<svg width="338" height="327" viewBox="0 0 338 327" fill="none" xmlns="http://www.w3.org/2000/svg">
<path d="M310.308 234.769C298.7 265.84 274.997 299.472 241.641 309.432C191.209 324.483 185.22 365.104 94.9472 361.337C81.7608 360.848 68.6665 358.93 55.8939 355.617C49.6538 353.97 43.5241 351.93 37.5414 349.51C-15.1837 328.147 -42.6928 281.135 -44.9701 231.948C-47.9803 167.245 -2.84364 136.411 26.4936 118.358C55.8308 100.305 91.1884 30.3302 179.957 33.3403C193.512 33.747 206.976 35.7143 220.082 39.2031C249.955 47.2879 280.316 65.2071 297.967 91.3056C299.291 93.2651 300.557 95.2719 301.766 97.3259C325.39 137.396 326.123 192.406 310.308 234.769Z" fill="#92E3A9"/>
<path opacity="0.7" d="M310.308 234.769C298.7 265.84 274.997 299.472 241.641 309.432C191.209 324.483 185.22 365.104 94.9472 361.337C81.7608 360.848 68.6665 358.93 55.8939 355.617C49.6538 353.97 43.5241 351.93 37.5414 349.51C-15.1837 328.147 -42.6928 281.135 -44.9701 231.948C-47.9803 167.245 -2.84364 136.411 26.4936 118.358C55.8308 100.305 91.1884 30.3302 179.957 33.3403C193.512 33.747 206.976 35.7143 220.082 39.2031C249.955 47.2879 280.316 65.2071 297.967 91.3056C299.291 93.2651 300.557 95.2719 301.766 97.3259C325.39 137.396 326.123 192.406 310.308 234.769Z" fill="white"/>
<g opacity="0.2">
<path d="M102.765 33.0967H15.707V278.054H102.765V33.0967Z" stroke="black" stroke-width="0.788" stroke-miterlimit="10" stroke-linecap="round"/>
<path d="M16.1719 40.543H102.592L100.559 33.8135" stroke="black" stroke-width="0.788" stroke-miterlimit="10" stroke-linecap="round"/>
<path d="M16.1719 48.6992H102.592L100.559 41.9697" stroke="black" stroke-width="0.788" stroke-miterlimit="10" stroke-linecap="round"/>
<path d="M16.1719 56.8546H102.592L100.559 50.1172" stroke="black" stroke-width="0.788" stroke-miterlimit="10" stroke-linecap="round"/>
<path d="M16.1719 65.0108H102.592L100.559 58.2734" stroke="black" stroke-width="0.788" stroke-miterlimit="10" stroke-linecap="round"/>
<path d="M16.1719 73.1661H102.592L100.559 66.4287" stroke="black" stroke-width="0.788" stroke-miterlimit="10" stroke-linecap="round"/>
<path d="M16.1719 81.3224H102.592L100.559 74.585" stroke="black" stroke-width="0.788" stroke-miterlimit="10" stroke-linecap="round"/>
<path d="M16.1719 89.4776H102.592L100.559 82.7402" stroke="black" stroke-width="0.788" stroke-miterlimit="10" stroke-linecap="round"/>
<path d="M16.1719 97.6339H102.592L100.559 90.8965" stroke="black" stroke-width="0.788" stroke-miterlimit="10" stroke-linecap="round"/>
<path d="M16.1719 105.79H102.592L100.559 99.0527" stroke="black" stroke-width="0.788" stroke-miterlimit="10" stroke-linecap="round"/>
<path d="M16.1719 113.945H102.592L100.559 107.208" stroke="black" stroke-width="0.788" stroke-miterlimit="10" stroke-linecap="round"/>
<path d="M16.1719 122.102H102.592L100.559 115.364" stroke="black" stroke-width="0.788" stroke-miterlimit="10" stroke-linecap="round"/>
<path d="M16.1719 130.257H102.592L100.559 123.52" stroke="black" stroke-width="0.788" stroke-miterlimit="10" stroke-linecap="round"/>
<path d="M16.1719 138.412H102.592L100.559 131.675" stroke="black" stroke-width="0.788" stroke-miterlimit="10" stroke-linecap="round"/>
<path d="M16.1719 146.568H102.592L100.559 139.831" stroke="black" stroke-width="0.788" stroke-miterlimit="10" stroke-linecap="round"/>
<path d="M16.1719 154.717H102.592L100.559 147.987" stroke="black" stroke-width="0.788" stroke-miterlimit="10" stroke-linecap="round"/>
<path d="M16.1719 162.873H102.592L100.559 156.144" stroke="black" stroke-width="0.788" stroke-miterlimit="10" stroke-linecap="round"/>
<path d="M16.1719 171.028H102.592L100.559 164.299" stroke="black" stroke-width="0.788" stroke-miterlimit="10" stroke-linecap="round"/>
<path d="M16.1719 179.184H102.592L100.559 172.454" stroke="black" stroke-width="0.788" stroke-miterlimit="10" stroke-linecap="round"/>
<path d="M16.1719 187.34H102.592L100.559 180.61" stroke="black" stroke-width="0.788" stroke-miterlimit="10" stroke-linecap="round"/>
<path d="M16.1719 195.495H102.592L100.559 188.766" stroke="black" stroke-width="0.788" stroke-miterlimit="10" stroke-linecap="round"/>
<path d="M16.1719 203.651H102.592L100.559 196.922" stroke="black" stroke-width="0.788" stroke-miterlimit="10" stroke-linecap="round"/>
<path d="M16.1719 211.808H102.592L100.559 205.078" stroke="black" stroke-width="0.788" stroke-miterlimit="10" stroke-linecap="round"/>
<path d="M16.1719 219.963H102.592L100.559 213.226" stroke="black" stroke-width="0.788" stroke-miterlimit="10" stroke-linecap="round"/>
<path d="M16.1719 228.119H102.592L100.559 221.382" stroke="black" stroke-width="0.788" stroke-miterlimit="10" stroke-linecap="round"/>
<path d="M16.1719 236.274H102.592L100.559 229.537" stroke="black" stroke-width="0.788" stroke-miterlimit="10" stroke-linecap="round"/>
<path d="M16.1719 244.43H102.592L100.559 237.692" stroke="black" stroke-width="0.788" stroke-miterlimit="10" stroke-linecap="round"/>
<path d="M16.1719 252.586H102.592L100.559 245.849" stroke="black" stroke-width="0.788" stroke-miterlimit="10" stroke-linecap="round"/>
<path d="M16.1719 260.742H102.592L100.559 254.005" stroke="black" stroke-width="0.788" stroke-miterlimit="10" stroke-linecap="round"/>
<path d="M16.1719 268.899H102.592L100.559 262.161" stroke="black" stroke-width="0.788" stroke-miterlimit="10" stroke-linecap="round"/>
</g>
<g opacity="0.2">
<path d="M196.379 33.0967H109.32V278.054H196.379V33.0967Z" stroke="black" stroke-width="0.788" stroke-miterlimit="10" stroke-linecap="round"/>
<path d="M109.785 40.543H196.205L194.18 33.8135" stroke="black" stroke-width="0.788" stroke-miterlimit="10" stroke-linecap="round"/>
<path d="M109.785 48.6992H196.205L194.18 41.9697" stroke="black" stroke-width="0.788" stroke-miterlimit="10" stroke-linecap="round"/>
<path d="M109.785 56.8546H196.205L194.18 50.1172" stroke="black" stroke-width="0.788" stroke-miterlimit="10" stroke-linecap="round"/>
<path d="M109.785 65.0108H196.205L194.18 58.2734" stroke="black" stroke-width="0.788" stroke-miterlimit="10" stroke-linecap="round"/>
<path d="M109.785 73.1661H196.205L194.18 66.4287" stroke="black" stroke-width="0.788" stroke-miterlimit="10" stroke-linecap="round"/>
<path d="M109.785 81.3224H196.205L194.18 74.585" stroke="black" stroke-width="0.788" stroke-miterlimit="10" stroke-linecap="round"/>
<path d="M109.785 89.4776H196.205L194.18 82.7402" stroke="black" stroke-width="0.788" stroke-miterlimit="10" stroke-linecap="round"/>
<path d="M109.785 97.6339H196.205L194.18 90.8965" stroke="black" stroke-width="0.788" stroke-miterlimit="10" stroke-linecap="round"/>
<path d="M109.785 105.79H196.205L194.18 99.0527" stroke="black" stroke-width="0.788" stroke-miterlimit="10" stroke-linecap="round"/>
<path d="M109.785 113.945H196.205L194.18 107.208" stroke="black" stroke-width="0.788" stroke-miterlimit="10" stroke-linecap="round"/>
<path d="M109.785 122.102H196.205L194.18 115.364" stroke="black" stroke-width="0.788" stroke-miterlimit="10" stroke-linecap="round"/>
<path d="M109.785 130.257H196.205L194.18 123.52" stroke="black" stroke-width="0.788" stroke-miterlimit="10" stroke-linecap="round"/>
<path d="M109.785 138.412H196.205L194.18 131.675" stroke="black" stroke-width="0.788" stroke-miterlimit="10" stroke-linecap="round"/>
<path d="M109.785 146.568H196.205L194.18 139.831" stroke="black" stroke-width="0.788" stroke-miterlimit="10" stroke-linecap="round"/>
<path d="M109.785 154.717H196.205L194.18 147.987" stroke="black" stroke-width="0.788" stroke-miterlimit="10" stroke-linecap="round"/>
<path d="M109.785 162.873H196.205L194.18 156.144" stroke="black" stroke-width="0.788" stroke-miterlimit="10" stroke-linecap="round"/>
<path d="M109.785 171.028H196.205L194.18 164.299" stroke="black" stroke-width="0.788" stroke-miterlimit="10" stroke-linecap="round"/>
<path d="M109.785 179.184H196.205L194.18 172.454" stroke="black" stroke-width="0.788" stroke-miterlimit="10" stroke-linecap="round"/>
<path d="M109.785 187.34H196.205L194.18 180.61" stroke="black" stroke-width="0.788" stroke-miterlimit="10" stroke-linecap="round"/>
<path d="M109.785 195.495H196.205L194.18 188.766" stroke="black" stroke-width="0.788" stroke-miterlimit="10" stroke-linecap="round"/>
<path d="M109.785 203.651H196.205L194.18 196.922" stroke="black" stroke-width="0.788" stroke-miterlimit="10" stroke-linecap="round"/>
<path d="M109.785 211.808H196.205L194.18 205.078" stroke="black" stroke-width="0.788" stroke-miterlimit="10" stroke-linecap="round"/>
<path d="M109.785 219.963H196.205L194.18 213.226" stroke="black" stroke-width="0.788" stroke-miterlimit="10" stroke-linecap="round"/>
<path d="M109.785 228.119H196.205L194.18 221.382" stroke="black" stroke-width="0.788" stroke-miterlimit="10" stroke-linecap="round"/>
<path d="M109.785 236.274H196.205L194.18 229.537" stroke="black" stroke-width="0.788" stroke-miterlimit="10" stroke-linecap="round"/>
<path d="M109.785 244.43H196.205L194.18 237.692" stroke="black" stroke-width="0.788" stroke-miterlimit="10" stroke-linecap="round"/>
<path d="M109.785 252.586H196.205L194.18 245.849" stroke="black" stroke-width="0.788" stroke-miterlimit="10" stroke-linecap="round"/>
<path d="M109.785 260.742H196.205L194.18 254.005" stroke="black" stroke-width="0.788" stroke-miterlimit="10" stroke-linecap="round"/>
<path d="M109.785 268.899H196.205L194.18 262.161" stroke="black" stroke-width="0.788" stroke-miterlimit="10" stroke-linecap="round"/>
</g>
<g opacity="0.3">
<path d="M-17.9102 55.9473H3.63376" stroke="black" stroke-width="0.788" stroke-miterlimit="10" stroke-linecap="round"/>
<path d="M-17.9102 79.5879H3.63376" stroke="black" stroke-width="0.788" stroke-miterlimit="10" stroke-linecap="round"/>
</g>
<g opacity="0.3">
<path d="M175.414 335.688L177.51 339.888L186.966 325.704" stroke="black" stroke-width="0.788" stroke-miterlimit="10" stroke-linecap="round"/>
</g>
<g opacity="0.3">
<path d="M233.985 40.9756H219.801V55.1596H233.985V40.9756Z" stroke="black" stroke-width="0.788" stroke-miterlimit="10" stroke-linecap="round"/>
<path d="M233.985 65.1436H219.801V79.3276H233.985V65.1436Z" stroke="black" stroke-width="0.788" stroke-miterlimit="10" stroke-linecap="round"/>
<path d="M239.242 48.3271H260.778" stroke="black" stroke-width="0.788" stroke-miterlimit="10" stroke-linecap="round"/>
<path d="M239.242 71.9678H260.778" stroke="black" stroke-width="0.788" stroke-miterlimit="10" stroke-linecap="round"/>
<path d="M222.953 45.1753L225.057 49.3832L234.513 35.1992" stroke="black" stroke-width="0.788" stroke-miterlimit="10" stroke-linecap="round"/>
</g>
<path d="M6.65286 300.819C11.7229 300.819 15.8331 290.041 15.8331 276.745C15.8331 263.45 11.7229 252.672 6.65286 252.672C1.58277 252.672 -2.52734 263.45 -2.52734 276.745C-2.52734 290.041 1.58277 300.819 6.65286 300.819Z" fill="#92E3A9" stroke="#263238" stroke-width="0.788" stroke-miterlimit="10"/>
<path d="M35.1766 261.918C38.0461 252.889 37.1848 244.556 33.2528 243.307C29.3209 242.057 23.8073 248.364 20.9378 257.393C18.0684 266.422 18.9296 274.755 22.8616 276.005C26.7935 277.254 32.3071 270.947 35.1766 261.918Z" fill="#92E3A9" stroke="#263238" stroke-width="0.788" stroke-miterlimit="10"/>
<path d="M43.8064 294.105C51.6091 286.367 55.0404 277.176 51.4704 273.576C47.9003 269.976 38.6809 273.33 30.8781 281.068C23.0754 288.806 19.6441 297.997 23.2141 301.597C26.7842 305.197 36.0036 301.843 43.8064 294.105Z" fill="#92E3A9" stroke="#263238" stroke-width="0.788" stroke-miterlimit="10"/>
<path d="M7.30078 299.613L8.00998 332.709" stroke="#263238" stroke-width="0.788" stroke-miterlimit="10" stroke-linecap="round"/>
<path d="M6.44141 267.794L7.30033 299.613" stroke="#263238" stroke-width="0.788" stroke-miterlimit="10" stroke-linecap="round"/>
<path d="M6.50445 262.601L6.44141 265.036" stroke="#263238" stroke-width="0.788" stroke-miterlimit="10" stroke-linecap="round"/>
<path d="M-4.96875 297.076C0.294583 307.951 3.37593 319.752 4.10113 331.811" stroke="#263238" stroke-width="0.788" stroke-miterlimit="10" stroke-linecap="round"/>
<path d="M23.7915 300.48C17.3522 309.504 12.3348 319.462 8.91406 330.007" stroke="#263238" stroke-width="0.788" stroke-miterlimit="10" stroke-linecap="round"/>
<path d="M34.3522 288.345C30.4627 292.053 26.9277 296.115 23.793 300.48" stroke="#263238" stroke-width="0.788" stroke-miterlimit="10" stroke-linecap="round"/>
<path d="M45.6509 279.74C42.7821 281.357 40.0886 283.266 37.6133 285.437" stroke="#263238" stroke-width="0.788" stroke-miterlimit="10" stroke-linecap="round"/>
<path d="M23.4067 273.751C18.3162 289.747 11.4921 313.395 8.30859 333.915" stroke="#263238" stroke-width="0.788" stroke-miterlimit="10" stroke-linecap="round"/>
<path d="M26.5031 264.255C25.5969 266.958 24.541 270.157 23.4062 273.711" stroke="#263238" stroke-width="0.788" stroke-miterlimit="10" stroke-linecap="round"/>
<path d="M29.6722 255.075C29.6722 255.075 28.7896 257.526 27.3555 261.726" stroke="#263238" stroke-width="0.788" stroke-miterlimit="10" stroke-linecap="round"/>
<path d="M-14.4805 309.636C-8.12919 312.039 -1.92763 316.688 1.09041 325.49" stroke="#263238" stroke-width="0.788" stroke-miterlimit="10" stroke-linecap="round"/>
<path d="M47.7717 316.35C57.1174 314.774 64.1306 310.188 63.4371 306.106C62.7437 302.024 54.6194 300.023 45.3131 301.607C36.0068 303.191 28.9542 307.769 29.6398 311.851C30.3254 315.933 38.4339 317.926 47.7717 316.35Z" fill="#92E3A9" stroke="#263238" stroke-width="0.788" stroke-miterlimit="10"/>
<path d="M30.2873 309.558C23.8651 311.922 17.5611 316.594 14.5273 325.491" stroke="#263238" stroke-width="0.788" stroke-miterlimit="10" stroke-linecap="round"/>
<path d="M42.7986 307.201C38.5292 307.327 34.3063 308.125 30.2852 309.565" stroke="#263238" stroke-width="0.788" stroke-miterlimit="10" stroke-linecap="round"/>
<path d="M49.4197 307.438C49.4197 307.438 48.679 307.328 47.3945 307.249" stroke="#263238" stroke-width="0.788" stroke-miterlimit="10" stroke-linecap="round"/>
<path d="M30.1534 353.615C32.9678 347.705 34.4475 341.248 34.4874 334.703C34.496 330.774 33.9115 326.866 32.7538 323.111H-16.1022C-17.26 326.866 -17.8445 330.774 -17.8358 334.703C-17.7971 341.249 -16.3146 347.707 -13.494 353.615H30.1534Z" fill="#263238"/>
<path d="M313.132 66.5537H128.52V327.602H313.132V66.5537Z" fill="#263238"/>
<path d="M308.57 61.9912H123.957V323.04H308.57V61.9912Z" fill="white" stroke="#263238" stroke-width="0.788" stroke-linecap="round" stroke-linejoin="round"/>
<path d="M299.507 87.9004H131.734V135.188H299.507V87.9004Z" fill="white" stroke="#263238" stroke-width="0.788" stroke-linecap="round" stroke-linejoin="round"/>
<path d="M186.792 78.1846H131.734V87.9006H186.792V78.1846Z" fill="white" stroke="#263238" stroke-width="0.788" stroke-linecap="round" stroke-linejoin="round"/>
<path d="M299.499 78.1846H244.441V87.9006H299.499V78.1846Z" fill="white" stroke="#263238" stroke-width="0.788" stroke-linecap="round" stroke-linejoin="round"/>
<path d="M131.734 103.448H299.507" stroke="#263238" stroke-width="0.788" stroke-linecap="round" stroke-linejoin="round"/>
<path d="M131.734 118.349H299.507" stroke="#263238" stroke-width="0.788" stroke-linecap="round" stroke-linejoin="round"/>
<path d="M299.507 149.751H131.734V197.039H299.507V149.751Z" fill="white" stroke="#263238" stroke-width="0.788" stroke-linecap="round" stroke-linejoin="round"/>
<path d="M131.734 165.298H299.507" stroke="#263238" stroke-width="0.788" stroke-linecap="round" stroke-linejoin="round"/>
<path d="M131.734 180.199H299.507" stroke="#263238" stroke-width="0.788" stroke-linecap="round" stroke-linejoin="round"/>
<path d="M134.469 91.6992H154.87" stroke="#263238" stroke-width="0.788" stroke-linecap="round" stroke-linejoin="round"/>
<path d="M238.516 91.6992H258.917" stroke="#263238" stroke-width="0.788" stroke-linecap="round" stroke-linejoin="round"/>
<path d="M134.469 80.6357H154.87" stroke="#263238" stroke-width="0.788" stroke-linecap="round" stroke-linejoin="round"/>
<path d="M245.301 80.6357H265.702" stroke="#263238" stroke-width="0.788" stroke-linecap="round" stroke-linejoin="round"/>
<path d="M134.469 106.442H154.87" stroke="#263238" stroke-width="0.788" stroke-linecap="round" stroke-linejoin="round"/>
<path d="M134.469 122.659H154.87" stroke="#263238" stroke-width="0.788" stroke-linecap="round" stroke-linejoin="round"/>
<path d="M197.477 122.659H217.87" stroke="#263238" stroke-width="0.788" stroke-linecap="round" stroke-linejoin="round"/>
<path d="M194.191 78.918H234.986" stroke="#263238" stroke-width="0.788" stroke-linecap="round" stroke-linejoin="round"/>
<path d="M194.191 83.0938H234.986" stroke="#263238" stroke-width="0.788" stroke-linecap="round" stroke-linejoin="round"/>
<path d="M190.078 131.477H199.329" stroke="#263238" stroke-width="0.788" stroke-linecap="round" stroke-linejoin="round"/>
<path d="M201.637 131.477H210.888" stroke="#263238" stroke-width="0.788" stroke-linecap="round" stroke-linejoin="round"/>
<path d="M213.199 131.477H222.45" stroke="#263238" stroke-width="0.788" stroke-linecap="round" stroke-linejoin="round"/>
<path d="M299.507 206.976H131.734V254.263H299.507V206.976Z" fill="white" stroke="#263238" stroke-width="0.788" stroke-linecap="round" stroke-linejoin="round"/>
<path d="M135.413 219.141C135.413 219.141 138.565 211.34 136.658 213.208C134.751 215.075 133.222 221.639 137.903 220.079C142.583 218.519 145.704 211.647 144.459 214.461C143.214 217.274 143.836 219.449 147.611 217.266C151.385 215.083 151.976 215.083 152.291 216.328C152.607 217.573 153.537 217.266 156.972 216.021C160.408 214.776 160.124 216.959 160.124 217.888C160.124 218.818 164.498 218.519 166.058 217.888C167.618 217.258 168.863 215.398 169.21 217.581C169.557 219.764 172.638 219.764 172.638 219.764H181.061" stroke="#92E3A9" stroke-width="0.788" stroke-linecap="round" stroke-linejoin="round"/>
<path d="M131.734 222.522H299.507" stroke="#263238" stroke-width="0.788" stroke-linecap="round" stroke-linejoin="round"/>
<path d="M131.734 237.424H299.507" stroke="#263238" stroke-width="0.788" stroke-linecap="round" stroke-linejoin="round"/>
<path d="M134.469 210.773H154.87" stroke="#263238" stroke-width="0.788" stroke-linecap="round" stroke-linejoin="round"/>
<path d="M238.516 210.773H258.917" stroke="#263238" stroke-width="0.788" stroke-linecap="round" stroke-linejoin="round"/>
<path d="M134.469 225.517H154.87" stroke="#263238" stroke-width="0.788" stroke-linecap="round" stroke-linejoin="round"/>
<path d="M134.469 241.733H154.87" stroke="#263238" stroke-width="0.788" stroke-linecap="round" stroke-linejoin="round"/>
<path d="M197.477 241.733H217.87" stroke="#263238" stroke-width="0.788" stroke-linecap="round" stroke-linejoin="round"/>
<path d="M190.078 250.552H199.329" stroke="#263238" stroke-width="0.788" stroke-linecap="round" stroke-linejoin="round"/>
<path d="M201.637 250.552H210.888" stroke="#263238" stroke-width="0.788" stroke-linecap="round" stroke-linejoin="round"/>
<path d="M213.199 250.552H222.45" stroke="#263238" stroke-width="0.788" stroke-linecap="round" stroke-linejoin="round"/>
<path d="M135.746 154.597H183.72" stroke="#263238" stroke-width="0.788" stroke-linecap="round" stroke-linejoin="round"/>
<path d="M135.746 170.199H165.225" stroke="#263238" stroke-width="0.788" stroke-linecap="round" stroke-linejoin="round"/>
<path d="M210.305 170.199H239.784" stroke="#263238" stroke-width="0.788" stroke-linecap="round" stroke-linejoin="round"/>
<path d="M256.555 189.859H286.034" stroke="#263238" stroke-width="0.788" stroke-linecap="round" stroke-linejoin="round"/>
<path d="M250.195 170.199H279.674" stroke="#263238" stroke-width="0.788" stroke-linecap="round" stroke-linejoin="round"/>
<path d="M251.345 186.385H244.41V193.319H251.345V186.385Z" stroke="#263238" stroke-width="0.788" stroke-linecap="round" stroke-linejoin="round"/>
<path d="M208.57 189.859H238.049" stroke="#263238" stroke-width="0.788" stroke-linecap="round" stroke-linejoin="round"/>
<path d="M203.372 186.385H196.438V193.319H203.372V186.385Z" stroke="#263238" stroke-width="0.788" stroke-linecap="round" stroke-linejoin="round"/>
<path d="M160.598 189.859H190.077" stroke="#263238" stroke-width="0.788" stroke-linecap="round" stroke-linejoin="round"/>
<path d="M155.391 186.385H148.457V193.319H155.391V186.385Z" stroke="#263238" stroke-width="0.788" stroke-linecap="round" stroke-linejoin="round"/>
<path d="M279.414 263.262H298.744" stroke="#263238" stroke-width="0.788" stroke-linecap="round" stroke-linejoin="round"/>
<path d="M202.695 263.262H276.925" stroke="#263238" stroke-width="0.788" stroke-linecap="round" stroke-linejoin="round"/>
<path d="M154.871 263.262H200.457" stroke="#263238" stroke-width="0.788" stroke-linecap="round" stroke-linejoin="round"/>
<path d="M132.852 263.262H153.119" stroke="#263238" stroke-width="0.788" stroke-linecap="round" stroke-linejoin="round"/>
<path d="M256.496 267.746H298.741" stroke="#263238" stroke-width="0.788" stroke-linecap="round" stroke-linejoin="round"/>
<path d="M175.793 267.746H254.506" stroke="#263238" stroke-width="0.788" stroke-linecap="round" stroke-linejoin="round"/>
<path d="M132.852 267.746H173.3" stroke="#263238" stroke-width="0.788" stroke-linecap="round" stroke-linejoin="round"/>
<path d="M267.461 272.229H298.745" stroke="#263238" stroke-width="0.788" stroke-linecap="round" stroke-linejoin="round"/>
<path d="M200.207 272.229H265.721" stroke="#263238" stroke-width="0.788" stroke-linecap="round" stroke-linejoin="round"/>
<path d="M161.844 272.229H196.713" stroke="#263238" stroke-width="0.788" stroke-linecap="round" stroke-linejoin="round"/>
<path d="M132.852 272.229H159.596" stroke="#263238" stroke-width="0.788" stroke-linecap="round" stroke-linejoin="round"/>
<path d="M284.648 276.714H298.746" stroke="#263238" stroke-width="0.788" stroke-linecap="round" stroke-linejoin="round"/>
<path d="M143.406 276.714H282.157" stroke="#263238" stroke-width="0.788" stroke-linecap="round" stroke-linejoin="round"/>
<path d="M132.852 276.714H141.417" stroke="#263238" stroke-width="0.788" stroke-linecap="round" stroke-linejoin="round"/>
<path d="M287.887 281.197H298.745" stroke="#263238" stroke-width="0.788" stroke-linecap="round" stroke-linejoin="round"/>
<path d="M253.262 281.197H285.649" stroke="#263238" stroke-width="0.788" stroke-linecap="round" stroke-linejoin="round"/>
<path d="M200.207 281.197H251.522" stroke="#263238" stroke-width="0.788" stroke-linecap="round" stroke-linejoin="round"/>
<path d="M150.633 281.197H198.212" stroke="#263238" stroke-width="0.788" stroke-linecap="round" stroke-linejoin="round"/>
<path d="M132.852 281.197H147.887" stroke="#263238" stroke-width="0.788" stroke-linecap="round" stroke-linejoin="round"/>
<path d="M279.168 285.681H298.742" stroke="#263238" stroke-width="0.788" stroke-linecap="round" stroke-linejoin="round"/>
<path d="M216.395 285.681H276.424" stroke="#263238" stroke-width="0.788" stroke-linecap="round" stroke-linejoin="round"/>
<path d="M175.793 285.681H213.16" stroke="#263238" stroke-width="0.788" stroke-linecap="round" stroke-linejoin="round"/>
<path d="M132.852 285.681H173.3" stroke="#263238" stroke-width="0.788" stroke-linecap="round" stroke-linejoin="round"/>
<path d="M250.516 290.173H298.741" stroke="#263238" stroke-width="0.788" stroke-linecap="round" stroke-linejoin="round"/>
<path d="M154.871 290.173H247.036" stroke="#263238" stroke-width="0.788" stroke-linecap="round" stroke-linejoin="round"/>
<path d="M132.852 290.173H152.126" stroke="#263238" stroke-width="0.788" stroke-linecap="round" stroke-linejoin="round"/>
<path d="M134.586 303.726H155.397" stroke="#263238" stroke-width="0.788" stroke-linecap="round" stroke-linejoin="round"/>
<path d="M237.477 303.726H258.288" stroke="#263238" stroke-width="0.788" stroke-linecap="round" stroke-linejoin="round"/>
<path d="M160.598 303.726H230.541" stroke="#263238" stroke-width="0.788" stroke-linecap="round" stroke-linejoin="round"/>
<path d="M264.062 303.726H298.167" stroke="#263238" stroke-width="0.788" stroke-linecap="round" stroke-linejoin="round"/>
<path d="M137.188 163.36C137.188 163.36 140.403 164.1 141.127 160.389C141.852 156.677 138.897 158.655 138.897 160.633C138.897 162.611 139.89 164.573 143.625 161.626C147.361 158.679 146.344 159.152 148.574 161.374C150.804 163.596 148.818 164.1 153.302 162.367C157.786 160.633 158.03 161.374 157.754 162.863C157.479 164.352 156.517 163.604 160.725 162.122C164.933 160.641 166.911 159.396 166.414 161.334C165.918 163.273 164.184 163.809 167.399 161.587C170.614 159.364 172.6 152.186 169.874 157.647C167.147 163.107 166.162 162.375 170.126 161.587C174.09 160.799 175.319 158.119 175.319 160.097C175.319 162.075 172.104 163.32 175.319 162.083C178.534 160.846 179.771 159.609 179.771 160.846C179.771 162.083 176.8 164.305 181.008 162.327C185.216 160.349 186.453 158.119 186.453 159.853C186.453 161.587 185.705 161.09 186.453 161.587C187.202 162.083 185.705 160.594 187.935 161.334C190.165 162.075 189.172 163.564 192.387 162.327C195.602 161.09 195.358 159.357 197.115 161.09C198.872 162.824 197.115 165.298 201.843 163.068C206.571 160.838 207.777 162.083 209.266 162.327C210.494 162.515 211.735 162.597 212.977 162.572C213.962 162.572 213.718 161.587 216.192 162.572C217.661 163.29 219.286 163.631 220.92 163.565H223.741" stroke="#92E3A9" stroke-width="0.788" stroke-linecap="round" stroke-linejoin="round"/>
<path d="M238.855 163.604C240.04 163.092 241.195 162.513 242.315 161.87C244.545 160.633 250.234 156.433 250.478 159.152C250.723 161.87 244.293 165.337 245.041 162.367C245.79 159.396 250.234 160.885 253.449 162.122C256.664 163.359 257.389 161.87 261.369 161.87C265.348 161.87 264.828 163.107 266.806 163.604C268.784 164.1 268.043 163.604 271.534 162.122C275.025 160.641 272.519 153.454 270.297 158.411C268.075 163.367 267.326 165.337 272.519 162.863C277.712 160.389 276.23 163.359 276.971 163.359C277.712 163.359 276.475 163.604 279.445 162.367C282.416 161.129 278.705 162.863 280.935 163.359C283.165 163.856 284.394 161.374 286.372 160.633C288.35 159.892 288.602 162.122 288.602 162.122H290.58" stroke="#92E3A9" stroke-width="0.788" stroke-linecap="round" stroke-linejoin="round"/>
<path d="M135.695 115.835C135.695 115.835 136.932 115.339 138.91 112.376C140.888 109.413 137.673 108.436 136.932 111.635C136.192 114.834 134.458 118.562 139.903 115.835C145.348 113.109 143.363 107.955 141.637 111.895C139.911 115.835 140.4 119.814 145.577 116.844C150.754 113.873 151.266 112.116 152.007 113.629C152.748 115.142 150.029 115.607 154.481 115.851C158.933 116.095 159.674 114.614 161.652 113.873C163.63 113.132 164.623 113.873 164.623 113.873C165.185 114.042 165.769 114.127 166.356 114.125C167.341 114.125 168.579 113.337 169.075 114.125C169.571 114.913 164.126 115.851 170.564 114.866C177.002 113.881 178.444 109.665 178.972 112.888C179.5 116.111 174.52 118.822 174.52 115.851C174.52 112.88 177.491 109.917 182.187 112.636C186.884 115.354 186.64 116.103 189.114 116.576C191.588 117.049 195.544 114.354 195.544 114.354C195.544 114.354 195.3 114.598 196.781 115.339C198.263 116.079 197.774 116.087 200.493 115.339C203.211 114.59 200.989 115.094 204.7 114.598C208.412 114.101 210.138 114.354 208.64 115.591C207.143 116.828 202.951 115.094 208.396 114.109C213.841 113.124 214.574 114.85 214.574 115.591C214.574 116.332 216.063 116.576 217.301 116.087C218.509 115.711 219.753 115.46 221.012 115.339" stroke="#92E3A9" stroke-width="0.788" stroke-linecap="round" stroke-linejoin="round"/>
<path d="M142.129 101.266C144.118 100.935 146.079 100.447 147.992 99.8077C149.623 99.2325 151.144 98.476 151.782 97.554C153.508 95.0797 148.315 95.8204 145.1 99.0434C141.885 102.266 147.078 102.503 153.768 100.281C160.458 98.0584 160.198 92.3611 155.746 96.569C151.293 100.777 153.027 101.762 159.953 100.281C166.88 98.7991 175.532 97.0576 172.814 99.4925C170.095 101.927 169.354 100.73 174.051 99.7447C178.747 98.7597 181.718 96.5296 180.977 98.2554C180.237 99.9811 178.259 102.195 181.97 100.485C185.682 98.7754 185.185 100.485 185.185 100.485C191.86 99.7447 195.571 91.3288 190.875 94.2996C186.178 97.2704 186.147 101.226 190.378 100.982C194.61 100.738 198.542 96.7739 196.564 98.7518C194.586 100.73 191.371 102.219 198.29 100.485C205.208 98.7518 207.446 95.0403 206.958 97.5146C206.469 99.989 206.217 99.7447 208.691 99.7447C211.166 99.7447 215.618 96.2775 214.136 98.7518C212.655 101.226 211.906 101.47 214.136 100.982C216.366 100.493 219.574 98.7518 220.566 98.7518C221.559 98.7518 218.589 101.47 221.551 101.226C224.514 100.982 230.708 97.2861 230.708 97.2861" stroke="#92E3A9" stroke-width="0.788" stroke-linecap="round" stroke-linejoin="round"/>
<path d="M223.742 97.3096C223.742 97.3096 229.928 101.51 231.409 101.51" stroke="#92E3A9" stroke-width="0.788" stroke-linecap="round" stroke-linejoin="round"/>
<path d="M198.113 188.158L198.846 191.593L206.45 182.523" stroke="#92E3A9" stroke-width="0.788" stroke-linecap="round" stroke-linejoin="round"/>
<path d="M47.127 234.202L51.5949 286.998C51.5949 286.998 48.0174 318.793 48.0174 321.945C48.0174 325.097 46.4414 335.341 46.4414 335.341L57.2134 336.657L71.5786 282.285L73.6826 260.221L91.2786 299.881L103.319 340.747L114.052 337.831L105.731 285.437L90.2936 236.053L89.1825 230.277L47.1506 230.797L47.127 234.202Z" fill="#263238" stroke="#263238" stroke-width="0.788" stroke-linecap="round" stroke-linejoin="round"/>
<path d="M62.0994 158.617C62.0994 158.617 48.3094 159.405 44.1724 162.163C40.0354 164.921 19.9414 181.469 19.9414 181.469L20.9737 198.679L43.1874 182.651L46.3394 238.205L90.2704 236.038L89.2854 205.109L88.6944 204.124C88.6944 204.124 102.878 218.702 108.197 218.308C113.516 217.914 114.698 209.049 110.758 203.533C106.818 198.017 100.908 190.137 96.7714 184.227C92.6344 178.317 92.6344 169.649 86.5274 165.512C80.4204 161.375 69.7824 159.011 69.7824 159.011L62.0994 158.617Z" fill="#92E3A9" stroke="#263238" stroke-width="0.788" stroke-linecap="round" stroke-linejoin="round"/>
<path d="M89.2847 205.108L88.4258 187.323" stroke="#263238" stroke-width="0.788" stroke-linecap="round" stroke-linejoin="round"/>
<path d="M91.2422 194.408L91.7465 191.358" stroke="#263238" stroke-width="0.788" stroke-linecap="round" stroke-linejoin="round"/>
<path d="M89.6094 204.179L90.8781 196.599" stroke="#263238" stroke-width="0.788" stroke-linecap="round" stroke-linejoin="round"/>
<path d="M71.2578 215.542L73.2357 217.701" stroke="#263238" stroke-width="0.788" stroke-linecap="round" stroke-linejoin="round"/>
<path d="M49.9805 192.312L70.0114 214.179" stroke="#263238" stroke-width="0.788" stroke-linecap="round" stroke-linejoin="round"/>
<path d="M57.1758 206.543L64.9297 214.147" stroke="#263238" stroke-width="0.788" stroke-linecap="round" stroke-linejoin="round"/>
<path d="M53.3008 202.752L55.5308 204.935" stroke="#263238" stroke-width="0.788" stroke-linecap="round" stroke-linejoin="round"/>
<path d="M49.7437 178.309L43.1875 182.65L49.5073 182.107" stroke="#263238" stroke-width="0.788" stroke-linecap="round" stroke-linejoin="round"/>
<path d="M60.7383 142.55C61.1739 145.557 61.4108 148.589 61.4475 151.628C61.4157 154.606 61.1787 157.578 60.7383 160.524C60.7383 160.524 69.6348 174.054 71.2344 175.118C72.8341 176.182 73.9058 171.556 73.9058 169.602C73.9058 167.648 74.087 161.95 74.087 161.95V155.544L60.7383 142.55Z" fill="#B0B0B0" stroke="#263238" stroke-width="0.788" stroke-linecap="round" stroke-linejoin="round"/>
<path d="M74.0228 162.825C74.0228 162.289 74.0228 161.95 74.0228 161.95V155.544L70.9968 152.605L63.6133 149.618L74.0228 162.825Z" fill="#263238" stroke="#263238" stroke-width="0.788" stroke-linecap="round" stroke-linejoin="round"/>
<path d="M82.4453 124.748C82.4453 124.748 84.5808 131.691 84.762 134.535C84.9432 137.38 83.3357 139.523 83.3357 140.414C83.3357 141.304 85.8258 144.858 85.8258 146.111C85.8258 147.364 82.7999 148.956 82.7999 148.956C82.7999 148.956 81.5548 155.543 78.3556 157.679C75.1563 159.814 67.8515 154.653 65.0068 151.982C62.6277 149.832 60.8995 147.058 60.0188 143.976C59.1284 141.123 60.2 134.52 61.9809 129.201C62.6317 126.994 63.898 125.018 65.6314 123.505C67.3647 121.993 69.4934 121.005 71.7679 120.659C75.8576 119.942 81.9016 122.258 82.4453 124.748Z" fill="#B0B0B0" stroke="#263238" stroke-width="0.788" stroke-linecap="round" stroke-linejoin="round"/>
<path d="M79.7763 141.573C79.7763 142.408 79.5005 143.085 79.1538 143.085C78.807 143.085 78.5312 142.408 78.5312 141.573C78.5312 140.737 78.8149 140.06 79.1538 140.06C79.4926 140.06 79.7763 140.737 79.7763 141.573Z" fill="#263238"/>
<path d="M77.9609 138.452C77.9609 138.452 80.4589 137.207 81.9009 138.814" stroke="#263238" stroke-width="0.788" stroke-linecap="round" stroke-linejoin="round"/>
<path d="M79.4205 151.627C79.4205 151.627 75.6853 150.382 75.4805 147.688" stroke="#263238" stroke-width="0.788" stroke-linecap="round" stroke-linejoin="round"/>
<path d="M61.4158 141.895C61.4158 141.895 64.7964 142.431 65.151 140.65C65.5056 138.87 63.3701 138.515 65.6868 136.915C68.0035 135.316 69.6268 135.339 70.3124 134.244C70.9979 133.149 70.0287 131.454 71.2737 128.61C72.5188 125.765 74.016 126.498 77.5777 127.034C79.6599 127.325 81.665 128.021 83.4799 129.083C83.4799 129.083 85.6705 124.449 83.3538 121.778C81.037 119.106 73.685 116.396 65.4977 118.886C57.3104 121.376 54.8282 127.302 54.119 133.708C53.4098 140.115 55.8998 143.676 58.2638 144.386C60.6278 145.095 61.4158 141.895 61.4158 141.895Z" fill="#263238" stroke="#263238" stroke-width="0.788" stroke-linecap="round" stroke-linejoin="round"/>
<path d="M63.2258 141.479C63.2258 141.479 61.0903 134.899 59.2858 138.279C57.4812 141.66 58.3953 144.504 60.1762 145.576C60.389 145.722 60.6335 145.816 60.8895 145.849C61.1455 145.882 61.4058 145.854 61.6489 145.767C61.892 145.681 62.1109 145.537 62.2878 145.349C62.4647 145.161 62.5944 144.934 62.6663 144.686" fill="#B0B0B0"/>
<path d="M63.2258 141.479C63.2258 141.479 61.0903 134.899 59.2858 138.279C57.4812 141.66 58.3953 144.504 60.1762 145.576C60.389 145.722 60.6335 145.816 60.8895 145.849C61.1455 145.882 61.4058 145.854 61.6489 145.767C61.892 145.681 62.1109 145.537 62.2878 145.349C62.4647 145.161 62.5944 144.934 62.6663 144.686" stroke="#263238" stroke-width="0.788" stroke-linecap="round" stroke-linejoin="round"/>
<path d="M102.566 208.883C104.836 204.714 114.883 192.445 114.883 192.445L121.431 195.597C121.431 195.597 116.475 213.658 114.095 216.235C111.715 218.812 109.099 219.686 106.317 217.701" fill="#B0B0B0"/>
<path d="M102.566 208.883C104.836 204.714 114.883 192.445 114.883 192.445L121.431 195.597C121.431 195.597 116.475 213.658 114.095 216.235C111.715 218.812 109.099 219.686 106.317 217.701" stroke="#263238" stroke-width="0.788" stroke-linecap="round" stroke-linejoin="round"/>
<path d="M106.46 217.583C107.725 218.278 109.193 218.513 110.612 218.245C112.03 217.978 113.312 217.226 114.237 216.117C114.955 215.329 115.908 213.147 116.885 210.475C114.597 210.974 112.207 210.673 110.114 209.623C108.02 208.574 106.35 206.839 105.38 204.707C104.196 206.216 103.174 207.846 102.331 209.569C102.252 209.813 102.906 212.831 102.867 213.052" fill="#92E3A9"/>
<path d="M106.46 217.583C107.725 218.278 109.193 218.513 110.612 218.245C112.03 217.978 113.312 217.226 114.237 216.117C114.955 215.329 115.908 213.147 116.885 210.475C114.597 210.974 112.207 210.673 110.114 209.623C108.02 208.574 106.35 206.839 105.38 204.707C104.196 206.216 103.174 207.846 102.331 209.569C102.252 209.813 102.906 212.831 102.867 213.052" stroke="#263238" stroke-width="0.788" stroke-linecap="round" stroke-linejoin="round"/>
<path d="M180.97 220.018C180.816 220.02 180.663 219.991 180.521 219.932L172.113 216.441C171.966 216.384 171.832 216.298 171.719 216.188C171.606 216.079 171.516 215.948 171.454 215.803C171.392 215.658 171.36 215.502 171.359 215.345C171.359 215.187 171.389 215.031 171.45 214.886C171.51 214.741 171.599 214.609 171.711 214.498C171.823 214.387 171.956 214.3 172.102 214.242C172.249 214.183 172.405 214.155 172.562 214.157C172.72 214.16 172.875 214.194 173.019 214.258L181.427 217.749C181.677 217.855 181.883 218.045 182.01 218.286C182.136 218.526 182.176 218.803 182.123 219.07C182.069 219.336 181.925 219.576 181.715 219.749C181.505 219.922 181.242 220.017 180.97 220.018Z" fill="white" stroke="#263238" stroke-width="0.788" stroke-linecap="round" stroke-linejoin="round"/>
<path d="M154.722 213.903L-32.1599 130.02C-33.5896 129.376 -34.7054 128.192 -35.2624 126.726C-35.8194 125.26 -35.772 123.634 -35.1307 122.203C-34.4887 120.774 -33.3054 119.658 -31.8411 119.101C-30.3768 118.544 -28.7512 118.591 -27.3216 119.232L159.56 203.115L154.722 213.903Z" fill="white" stroke="#263238" stroke-width="0.788" stroke-linecap="round" stroke-linejoin="round"/>
<path d="M159.561 203.115L178.268 215.928L177.102 218.418L154.723 213.903L159.561 203.115Z" fill="white" stroke="#263238" stroke-width="0.788" stroke-linecap="round" stroke-linejoin="round"/>
<path d="M7.13827 138.523C7.13827 138.523 5.56227 146.994 6.74427 148.57C7.92627 150.146 14.4273 156.056 14.4273 156.056C14.4273 156.056 11.8663 190.531 12.4573 193.683C13.0483 196.835 19.7463 199.199 21.9133 198.608C24.0803 198.017 25.6563 195.653 27.6263 191.319C29.5963 186.985 20.7313 156.647 20.7313 155.268C20.7313 153.889 16.5943 143.251 16.5943 143.251C16.5943 143.251 19.9433 140.887 20.5343 140.099C21.1253 139.311 18.1703 139.902 17.5793 139.902C15.6436 139.678 13.7317 139.283 11.8663 138.72C11.0783 138.326 7.13827 138.523 7.13827 138.523Z" fill="#B0B0B0" stroke="#263238" stroke-width="0.788" stroke-linecap="round" stroke-linejoin="round"/>
<path d="M16.6742 139.854C16.6742 139.854 13.8847 140.556 13.9871 141.249C14.0896 141.943 14.0896 146.332 14.0896 146.332" fill="white"/>
<path d="M16.6742 139.854C16.6742 139.854 13.8847 140.556 13.9871 141.249C14.0896 141.943 14.0896 146.332 14.0896 146.332" stroke="#263238" stroke-width="0.788" stroke-linecap="round" stroke-linejoin="round"/>
<path d="M12.3953 139.161C12.3953 139.161 10.0312 139.059 10.0312 140.359V145.835" fill="white"/>
<path d="M12.3953 139.161C12.3953 139.161 10.0312 139.059 10.0312 140.359V145.835" stroke="#263238" stroke-width="0.788" stroke-linecap="round" stroke-linejoin="round"/>
<path d="M7.10547 139.059L7.50734 145.835" stroke="#263238" stroke-width="0.788" stroke-linecap="round" stroke-linejoin="round"/>
<path d="M21.9114 198.577C24.0784 197.986 25.6544 195.622 27.6244 191.288C28.373 189.656 27.5693 184.322 26.2927 178.238C24.3405 179.552 22.1029 180.38 19.766 180.654C17.429 180.928 15.0604 180.64 12.8573 179.814C12.4712 186.583 12.2269 192.47 12.4554 193.691C13.0464 196.835 19.7444 199.199 21.9114 198.577Z" fill="#92E3A9" stroke="#263238" stroke-width="0.788" stroke-linecap="round" stroke-linejoin="round"/>
<path d="M114.809 183.005C115.625 182.317 116.665 181.953 117.732 181.981C119.308 182.131 119.631 184.471 119.481 186.512C119.332 188.553 117.117 189.002 116.85 187.686C116.582 186.37 116.266 184.321 116.266 184.321L114.809 183.005Z" fill="#B0B0B0" stroke="#263238" stroke-width="0.788" stroke-linecap="round" stroke-linejoin="round"/>
<path d="M119.191 182.864C119.736 182.704 120.32 182.75 120.832 182.993C121.345 183.236 121.751 183.658 121.973 184.18C122.848 186.079 121.823 188.561 120.799 188.711C119.775 188.86 119.483 186.512 119.483 186.512L119.191 182.864Z" fill="#B0B0B0" stroke="#263238" stroke-width="0.788" stroke-linecap="round" stroke-linejoin="round"/>
<path d="M121.973 184.18C122.17 184.079 122.389 184.026 122.61 184.025C122.832 184.024 123.051 184.075 123.249 184.174C123.448 184.273 123.62 184.417 123.753 184.595C123.886 184.772 123.975 184.978 124.014 185.197C124.605 186.954 125.188 189.137 123.872 189.137C122.556 189.137 122.114 186.773 122.114 186.773L121.973 184.18Z" fill="#B0B0B0" stroke="#263238" stroke-width="0.788" stroke-linecap="round" stroke-linejoin="round"/>
<path d="M124.016 185.18C124.016 185.18 125.923 185.038 126.38 186.205C126.837 187.371 127.696 189.569 126.088 189.569C125.655 189.569 124.63 187.521 124.63 187.521L124.016 185.18Z" fill="#B0B0B0" stroke="#263238" stroke-width="0.788" stroke-linecap="round" stroke-linejoin="round"/>
</svg>
