<svg width="500" height="500" viewBox="0 0 500 500" fill="none" xmlns="http://www.w3.org/2000/svg">
<path d="M488.621 299.51C494.621 209.59 449.191 123.51 370.471 79.6499C355.734 71.4462 340.153 64.858 324.001 59.9999C198.001 21.9999 151.001 53.9999 118.001 93.9999C85.0013 134 116.001 202 78.0013 230C40.0013 258 -5.99871 298 13.0013 357C32.0013 416 79.0013 455 123.001 451C167.001 447 213.001 395 244.001 429C275.001 463 374.001 496 439.001 439C473.741 408.54 485.341 348.66 488.621 299.51Z" fill="#92E3A9"/>
<path opacity="0.7" d="M488.621 299.51C494.621 209.59 449.191 123.51 370.471 79.6499C355.734 71.4462 340.153 64.858 324.001 59.9999C198.001 21.9999 151.001 53.9999 118.001 93.9999C85.0013 134 116.001 202 78.0013 230C40.0013 258 -5.99871 298 13.0013 357C32.0013 416 79.0013 455 123.001 451C167.001 447 213.001 395 244.001 429C275.001 463 374.001 496 439.001 439C473.741 408.54 485.341 348.66 488.621 299.51Z" fill="white"/>
<path d="M441.17 312.839C436.97 313.549 429.1 318.959 429.09 318.959C429.08 318.959 434.23 323.069 434.59 323.289C438.74 325.809 448.25 328.239 452.36 324.669C453.026 324.059 453.557 323.315 453.917 322.487C454.277 321.658 454.459 320.763 454.45 319.859C454.442 318.956 454.243 318.064 453.868 317.242C453.492 316.421 452.948 315.687 452.27 315.089C449.47 312.459 444.75 312.229 441.17 312.839Z" fill="#92E3A9"/>
<path d="M423.27 291.5C419.56 293.22 413.78 299.95 413.32 300.5C409.477 297.187 405.418 294.134 401.17 291.36C398.7 289.73 396.17 288.17 393.61 286.63C394.88 287.16 396.02 287.63 396.19 287.63C400.86 288.96 410.67 288.8 413.7 284.28C414.182 283.515 414.498 282.657 414.626 281.762C414.755 280.867 414.694 279.955 414.447 279.085C414.2 278.216 413.772 277.408 413.192 276.714C412.612 276.021 411.892 275.457 411.08 275.06C407.69 273.26 403.08 274.29 399.78 275.82C396.48 277.35 391.4 283.01 390.08 284.52C389.08 283.94 388.08 283.35 387.08 282.78C382.33 280.01 377.57 277.28 372.99 274.45C371.37 273.45 369.82 272.45 368.26 271.39C369.39 271.85 370.35 272.24 370.5 272.28C375.17 273.62 384.98 273.45 388 268.93C388.482 268.165 388.798 267.307 388.926 266.412C389.055 265.517 388.994 264.605 388.747 263.735C388.5 262.866 388.072 262.058 387.492 261.364C386.912 260.671 386.192 260.107 385.38 259.71C381.99 257.91 377.38 258.94 374.09 260.47C370.8 262 366.2 267.11 364.63 268.9C363.06 267.79 361.49 266.69 360.03 265.54C359.03 264.74 358.03 264.04 357.1 263.17L354.27 260.7C352.53 259.06 350.73 257.38 349.07 255.7C347.91 254.57 346.83 253.47 345.73 252.36C347.33 253.36 350.49 255.28 350.78 255.41C355.19 257.41 364.91 258.76 368.59 254.75C369.182 254.066 369.623 253.266 369.886 252.401C370.148 251.535 370.225 250.624 370.111 249.727C369.998 248.83 369.697 247.967 369.229 247.194C368.76 246.421 368.133 245.755 367.39 245.24C364.32 242.94 359.6 243.24 356.11 244.24C352.28 245.35 345.78 250.87 344.98 251.57C343.17 249.73 341.43 247.93 339.81 246.2C336.24 242.39 333.14 238.91 330.57 235.92L327.57 237.92C330.3 240.92 333.62 244.54 337.48 248.47C339.3 250.34 341.29 252.31 343.36 254.31C341.779 256.551 340.339 258.889 339.05 261.31C335.05 260.31 327.16 261.26 326.15 261.39C325.65 258.86 325.15 256.39 324.8 254.06C323.97 249.18 323.33 244.79 322.8 241.01L319.57 243.12C320.11 246.55 320.77 250.41 321.57 254.64C322.06 257.21 322.64 259.95 323.25 262.75C322.25 263.13 314.34 266.29 311.56 269.17C309.04 271.77 306.56 275.8 307.14 279.59C307.247 280.487 307.542 281.352 308.006 282.127C308.47 282.903 309.092 283.572 309.832 284.091C310.571 284.61 311.412 284.967 312.299 285.139C313.186 285.311 314.1 285.294 314.98 285.09C320.24 283.72 323.62 274.51 323.9 269.66C323.9 269.37 323.74 266.25 323.6 264.28C323.86 265.42 324.1 266.54 324.38 267.71C324.92 270.04 325.53 272.35 326.17 274.83C326.52 276.02 326.88 277.22 327.24 278.43C327.6 279.64 328.08 280.88 328.49 282.12C329.49 284.97 330.69 287.8 331.94 290.63C329.94 291.11 322.7 292.91 319.79 295.11C316.88 297.31 313.79 300.91 313.84 304.75C313.811 305.653 313.972 306.552 314.313 307.389C314.655 308.225 315.169 308.981 315.822 309.605C316.475 310.23 317.252 310.71 318.103 311.014C318.954 311.318 319.859 311.439 320.76 311.37C326.17 310.81 330.91 302.22 331.92 297.47C331.98 297.17 332.32 293.68 332.46 291.76C333.23 293.46 333.98 295.15 334.81 296.84C337.21 301.72 339.81 306.59 342.32 311.45C343.11 312.94 343.87 314.45 344.63 315.93C343.91 316.09 335.29 318.04 332.04 320.51C329.15 322.71 326.04 326.31 326.09 330.15C326.059 331.053 326.219 331.953 326.56 332.791C326.901 333.628 327.415 334.384 328.068 335.009C328.721 335.634 329.499 336.114 330.351 336.417C331.203 336.721 332.109 336.841 333.01 336.77C338.42 336.21 343.15 327.62 344.16 322.87C344.23 322.51 344.71 317.49 344.77 316.2C346.46 319.49 348.11 322.78 349.61 326.09C351.702 330.569 353.503 335.178 355 339.89C354.66 339.97 345.66 341.97 342.33 344.49C339.44 346.69 336.33 350.29 336.33 354.13C336.301 355.033 336.462 355.932 336.803 356.769C337.145 357.605 337.659 358.361 338.312 358.985C338.965 359.61 339.742 360.09 340.593 360.394C341.444 360.698 342.349 360.819 343.25 360.75C348.66 360.19 353.4 351.6 354.41 346.85C354.48 346.48 355 341.07 355.02 340.08C355.1 340.35 355.22 340.63 355.3 340.9C356.625 345.641 357.528 350.49 358 355.39C358.29 358.1 358.41 360.7 358.48 363.23C356.76 363.43 348.94 364.43 345.69 366.37C342.44 368.31 339.13 371.48 338.69 375.3C338.565 376.194 338.629 377.104 338.877 377.972C339.126 378.839 339.554 379.645 340.134 380.337C340.713 381.029 341.432 381.591 342.242 381.988C343.053 382.384 343.938 382.607 344.84 382.64C350.28 382.64 355.94 374.64 357.46 370.05C357.54 369.8 358.1 367.15 358.46 365.22C358.46 366.36 358.46 367.54 358.46 368.64C358.46 372.75 358.16 376.52 357.88 379.85C357.71 381.74 357.52 383.45 357.32 385.05C355.74 386.13 349.43 390.54 347.48 393.7C345.53 396.86 344 401.25 345.4 404.83C345.697 405.684 346.171 406.465 346.79 407.123C347.41 407.781 348.161 408.302 348.996 408.65C349.83 408.998 350.728 409.166 351.632 409.144C352.535 409.122 353.424 408.909 354.24 408.52C359.09 406.04 360.41 396.32 359.63 391.52C359.56 391.1 357.77 384.74 357.69 384.8L357.59 384.86C357.81 383.33 358.03 381.68 358.23 379.86C358.58 376.52 358.94 372.75 359.06 368.63C359.236 364.179 359.153 359.721 358.81 355.28C358.447 350.309 357.643 345.379 356.41 340.55C356.41 340.49 356.41 340.44 356.41 340.38C357.26 341.73 359.76 345.38 359.98 345.68C363.14 349.37 371.42 354.68 376.44 352.54C377.263 352.168 377.999 351.627 378.6 350.951C379.2 350.276 379.651 349.482 379.924 348.62C380.196 347.759 380.284 346.85 380.182 345.952C380.08 345.054 379.789 344.188 379.33 343.41C377.5 340.04 373.08 338.35 369.49 337.81C365.49 337.2 356.91 339.63 356.23 339.81C354.853 334.929 353.153 330.145 351.14 325.49C349.98 322.77 348.73 320.06 347.44 317.37C348.21 318.51 348.91 319.53 349.02 319.66C352.18 323.35 360.46 328.66 365.47 326.52C366.294 326.149 367.031 325.608 367.632 324.933C368.234 324.258 368.686 323.464 368.96 322.603C369.233 321.741 369.322 320.832 369.221 319.933C369.119 319.035 368.829 318.169 368.37 317.39C366.54 314.01 362.12 312.33 358.53 311.78C354.94 311.23 347.53 313.16 345.65 313.69C345.14 312.69 344.65 311.63 344.14 310.61C341.69 305.68 339.23 300.78 336.97 295.89C336.17 294.17 335.45 292.45 334.72 290.72C335.4 291.72 335.99 292.58 336.09 292.72C339.25 296.41 347.53 301.72 352.55 299.59C353.374 299.217 354.11 298.675 354.71 297.998C355.31 297.322 355.762 296.527 356.034 295.665C356.307 294.802 356.395 293.893 356.292 292.994C356.19 292.096 355.9 291.229 355.44 290.45C353.61 287.08 349.19 285.39 345.6 284.85C342.01 284.31 335.36 286.04 333.06 286.67C332.37 284.88 331.67 283.09 331.06 281.33C330.68 280.12 330.23 278.98 329.92 277.74C329.61 276.5 329.26 275.31 328.92 274.11C328.37 271.78 327.8 269.39 327.32 267.11C326.98 265.53 326.68 264.01 326.38 262.48C327.15 264.21 328.74 267.55 328.9 267.81C331.294 271.352 334.554 274.222 338.37 276.15C338.616 276.557 338.9 276.938 339.22 277.29C339.805 277.979 340.529 278.536 341.345 278.927C342.16 279.318 343.048 279.532 343.952 279.557C344.856 279.581 345.754 279.415 346.59 279.069C347.425 278.724 348.178 278.206 348.8 277.55C352.43 273.5 350.17 263.96 347.72 259.76C347.58 259.51 345.72 257 344.51 255.44C345.36 256.25 346.17 257.05 347.05 257.87C348.79 259.52 350.57 261.11 352.47 262.87L355.35 265.28C356.3 266.11 357.4 266.86 358.43 267.66C360.86 269.47 363.43 271.19 366.01 272.86C364.57 274.38 359.55 279.86 358.34 283.3C357.13 286.74 356.57 291.42 358.69 294.62C359.165 295.388 359.797 296.048 360.543 296.557C361.29 297.066 362.135 297.412 363.024 297.573C363.913 297.734 364.826 297.707 365.704 297.493C366.582 297.279 367.405 296.882 368.12 296.33C372.33 292.87 371.54 283.09 369.75 278.58C369.64 278.29 368 275.2 367.06 273.51C368.63 274.51 370.2 275.51 371.82 276.45C376.51 279.21 381.34 281.84 386.15 284.5C387.62 285.31 389.08 286.14 390.54 286.96C390.03 287.49 383.92 293.88 382.54 297.73C381.34 301.15 380.76 305.85 382.89 309.05C383.364 309.818 383.995 310.478 384.741 310.987C385.486 311.495 386.331 311.841 387.219 312.003C388.107 312.164 389.02 312.137 389.897 311.923C390.774 311.708 391.596 311.312 392.31 310.76C396.52 307.3 395.73 297.52 393.95 293.01C393.81 292.67 391.44 288.21 390.78 287.11C394 288.92 397.19 290.75 400.27 292.69C404.433 295.288 408.424 298.15 412.22 301.26C411.98 301.51 405.57 308.14 404.22 312.09C403.02 315.51 402.44 320.21 404.57 323.41C405.045 324.179 405.677 324.839 406.424 325.348C407.171 325.856 408.016 326.202 408.906 326.363C409.795 326.523 410.709 326.494 411.586 326.278C412.464 326.063 413.286 325.664 414 325.11C418.2 321.66 417.41 311.88 415.63 307.36C415.49 307.01 412.93 302.22 412.41 301.36L413.09 301.89C416.809 305.115 420.233 308.666 423.32 312.5C425.05 314.6 426.59 316.7 428.04 318.77C426.72 319.88 420.75 325.04 419.11 328.45C417.47 331.86 416.45 336.33 418.22 339.74C418.606 340.557 419.16 341.283 419.846 341.872C420.532 342.46 421.334 342.897 422.2 343.155C423.066 343.413 423.977 343.485 424.873 343.367C425.769 343.249 426.63 342.943 427.4 342.47C431.96 339.47 432.25 329.7 430.97 325.01C430.9 324.75 429.91 322.24 429.16 320.42C429.8 321.37 430.48 322.33 431.08 323.25C433.32 326.7 435.17 329.99 436.78 332.93C437.68 334.6 438.46 336.13 439.18 337.57C438.45 339.34 435.62 346.5 435.74 350.22C435.86 353.94 437.01 358.43 440.14 360.65C440.86 361.196 441.687 361.585 442.567 361.79C443.447 361.996 444.361 362.014 445.248 361.843C446.136 361.673 446.978 361.317 447.719 360.799C448.46 360.282 449.084 359.614 449.55 358.84C452.23 354.11 447.97 345.27 444.67 341.7C444.39 341.39 439.38 337.07 439.35 337.16L439.3 337.27C438.64 335.87 437.91 334.38 437.09 332.76C435.54 329.76 433.76 326.45 431.58 322.94C429.275 319.128 426.747 315.455 424.01 311.94C420.971 307.979 417.584 304.298 413.89 300.94L413.75 300.83C415.2 301.49 419.32 303.19 419.65 303.28C424.32 304.62 434.13 304.45 437.16 299.93C437.642 299.165 437.958 298.307 438.086 297.412C438.215 296.517 438.154 295.605 437.907 294.735C437.66 293.866 437.232 293.058 436.652 292.364C436.072 291.671 435.352 291.107 434.54 290.71C431.18 288.94 426.56 290 423.27 291.5Z" fill="#92E3A9"/>
<path d="M359.199 363.999C359.099 363.999 361.199 370.259 361.399 370.639C363.469 375.029 370.059 382.299 375.449 381.639C376.337 381.497 377.185 381.171 377.94 380.681C378.694 380.191 379.337 379.548 379.828 378.795C380.319 378.041 380.646 377.193 380.789 376.305C380.932 375.417 380.888 374.509 380.659 373.639C379.779 369.899 375.969 367.099 372.659 365.639C368.749 363.789 359.199 363.999 359.199 363.999Z" fill="#92E3A9"/>
<path d="M144.597 148.999C147.597 147.299 151.987 140.999 151.987 140.999C151.987 140.999 146.987 139.329 146.647 139.269C142.827 138.529 134.997 139.339 132.887 143.159C132.555 143.804 132.362 144.512 132.321 145.236C132.28 145.96 132.392 146.685 132.649 147.363C132.907 148.041 133.304 148.657 133.815 149.172C134.327 149.686 134.94 150.088 135.617 150.349C138.457 151.619 142.077 150.469 144.597 148.999Z" fill="#92E3A9"/>
<path d="M163.999 160.11C166.309 157.78 168.789 151.11 168.999 150.58C172.809 152.006 176.711 153.176 180.679 154.08C182.989 154.62 185.339 155.08 187.679 155.54C186.579 155.54 185.589 155.46 185.449 155.47C181.559 155.77 174.229 158.62 173.199 162.86C173.051 163.57 173.053 164.303 173.206 165.012C173.36 165.72 173.66 166.389 174.088 166.974C174.516 167.56 175.062 168.049 175.691 168.41C176.32 168.771 177.017 168.996 177.739 169.07C180.789 169.49 183.979 167.43 186.029 165.36C188.079 163.29 190.339 157.62 190.909 156.12L193.619 156.61C197.969 157.36 202.309 158.1 206.549 158.95C208.039 159.25 209.499 159.6 210.959 159.95C209.959 159.95 209.149 159.89 209.019 159.95C205.139 160.24 197.799 163.09 196.779 167.34C196.629 168.049 196.63 168.782 196.782 169.491C196.934 170.199 197.233 170.868 197.66 171.454C198.088 172.039 198.633 172.529 199.262 172.89C199.89 173.251 200.588 173.476 201.309 173.55C204.369 173.96 207.549 171.9 209.609 169.84C211.669 167.78 213.699 162.64 214.379 160.84C215.869 161.24 217.379 161.63 218.779 162.09C219.779 162.42 220.689 162.67 221.639 163.09L224.459 164.17C226.219 164.92 228.049 165.68 229.749 166.46C230.939 166.99 232.059 167.46 233.189 168.04C231.709 167.73 228.799 167.17 228.549 167.15C224.659 166.85 216.979 168.56 215.319 172.6C215.063 173.279 214.953 174.004 214.996 174.728C215.039 175.453 215.235 176.16 215.57 176.803C215.905 177.447 216.372 178.012 216.94 178.463C217.509 178.914 218.166 179.24 218.869 179.42C221.869 180.3 225.279 178.75 227.629 177.02C230.199 175.11 233.559 169.15 233.969 168.4C235.839 169.28 237.649 170.16 239.349 171.01C243.099 172.88 246.349 174.64 249.159 176.17L250.869 173.87C247.969 172.34 244.479 170.57 240.479 168.68C238.589 167.78 236.539 166.85 234.429 165.92C234.991 163.794 235.425 161.637 235.729 159.46C238.999 159.1 244.729 156.19 245.419 155.81C246.489 157.57 247.519 159.3 248.419 160.95C250.419 164.39 252.099 167.52 253.519 170.23L255.359 167.74C254.009 165.31 252.429 162.59 250.639 159.63C249.559 157.84 248.369 155.94 247.119 154C247.749 153.44 252.839 148.85 254.119 145.92C255.289 143.25 256.049 139.53 254.549 136.84C254.222 136.191 253.762 135.619 253.199 135.16C252.636 134.701 251.982 134.367 251.281 134.178C250.58 133.989 249.846 133.95 249.129 134.064C248.412 134.179 247.727 134.443 247.119 134.84C243.539 137.34 243.549 145.21 244.699 148.94C244.759 149.16 245.759 151.46 246.409 152.94C245.899 152.15 245.409 151.38 244.869 150.58C243.869 148.97 242.719 147.4 241.549 145.71L239.739 143.3C239.159 142.48 238.429 141.69 237.739 140.87C236.169 139.01 234.499 137.21 232.739 135.42C234.139 134.5 239.069 131.14 240.639 128.67C242.209 126.2 243.519 122.67 242.439 119.77C242.209 119.082 241.838 118.45 241.349 117.915C240.859 117.38 240.263 116.953 239.598 116.664C238.933 116.374 238.215 116.228 237.489 116.234C236.764 116.24 236.048 116.399 235.389 116.7C231.479 118.63 230.299 126.41 230.859 130.27C230.859 130.51 231.609 133.27 232.039 134.72C230.989 133.66 229.949 132.59 228.859 131.55C225.699 128.55 222.409 125.55 219.139 122.64L216.139 119.91C216.639 119.59 222.579 115.72 224.349 112.96C225.909 110.51 227.219 106.96 226.149 104.05C225.917 103.369 225.547 102.744 225.061 102.215C224.574 101.685 223.983 101.263 223.324 100.975C222.665 100.687 221.954 100.54 221.235 100.542C220.516 100.545 219.805 100.697 219.149 100.99C215.229 102.92 214.049 110.7 214.619 114.56C214.619 114.85 215.699 118.76 216.009 119.74C213.819 117.74 211.669 115.74 209.619 113.64C206.889 110.827 204.344 107.84 201.999 104.7C202.229 104.55 208.449 100.54 210.259 97.6999C211.819 95.2499 213.129 91.6999 212.059 88.7999C211.829 88.1182 211.459 87.4921 210.973 86.9616C210.487 86.431 209.896 86.0078 209.237 85.7188C208.578 85.4299 207.866 85.2816 207.146 85.2835C206.427 85.2854 205.716 85.4374 205.059 85.7299C201.139 87.6599 199.969 95.4399 200.529 99.2999C200.529 99.5999 201.689 103.81 201.949 104.56C201.809 104.38 201.649 104.21 201.509 104.02C199.211 100.818 197.203 97.418 195.509 93.8599C194.509 91.8599 193.719 89.9799 192.969 88.0999C194.199 87.4699 199.809 84.5399 201.719 82.1699C203.629 79.7999 205.239 76.5099 204.489 73.5199C204.337 72.8106 204.038 72.1412 203.61 71.5554C203.183 70.9696 202.636 70.4805 202.007 70.1201C201.377 69.7596 200.679 69.5359 199.958 69.4635C199.236 69.3911 198.507 69.4716 197.819 69.6999C193.709 71.1799 191.689 78.7899 191.819 82.6999C191.819 82.9099 192.139 85.0499 192.389 86.6099C192.059 85.7499 191.709 84.8799 191.389 84.0499C190.269 80.9399 189.389 78.0499 188.709 75.4499C188.319 73.9799 187.979 72.6399 187.709 71.3799C188.599 70.1299 192.129 65.0599 192.709 62.1299C193.289 59.1999 193.219 55.4799 191.179 53.1299C190.717 52.5713 190.142 52.1162 189.493 51.7939C188.844 51.4717 188.134 51.2895 187.41 51.2594C186.686 51.2292 185.963 51.3516 185.289 51.6188C184.616 51.8859 184.005 52.2917 183.499 52.8099C180.499 56.0199 182.249 63.6999 184.159 67.0999C184.329 67.3899 187.449 71.6799 187.489 71.6199L187.549 71.5399C187.809 72.7599 188.099 74.0499 188.449 75.4699C189.109 78.0799 189.889 81.0099 190.949 84.1499C192.051 87.5557 193.35 90.8946 194.839 94.1499C196.495 97.7931 198.469 101.283 200.739 104.58L200.829 104.69C199.829 103.91 196.909 101.83 196.669 101.69C193.259 99.7999 185.569 98.1299 182.379 101.1C181.862 101.609 181.459 102.221 181.194 102.896C180.929 103.571 180.81 104.294 180.843 105.018C180.876 105.742 181.061 106.451 181.386 107.099C181.71 107.748 182.168 108.32 182.729 108.78C185.049 110.78 188.849 110.85 191.729 110.26C194.939 109.6 200.729 105.4 201.149 105.06C203.542 108.355 206.155 111.486 208.969 114.43C210.589 116.16 212.289 117.84 213.969 119.51C213.069 118.87 212.259 118.3 212.139 118.23C208.729 116.33 201.039 114.66 197.849 117.64C197.332 118.149 196.929 118.761 196.664 119.436C196.399 120.111 196.28 120.834 196.313 121.558C196.346 122.282 196.531 122.991 196.856 123.639C197.18 124.288 197.638 124.86 198.199 125.32C200.519 127.32 204.319 127.39 207.199 126.8C210.079 126.21 215.059 122.72 216.369 121.8L218.369 123.7C221.579 126.7 224.789 129.7 227.849 132.79C228.939 133.86 229.959 134.96 230.989 136.05C230.189 135.48 229.509 135 229.399 134.94C225.999 133.04 218.299 131.38 215.109 134.35C214.593 134.859 214.19 135.472 213.926 136.147C213.662 136.823 213.544 137.546 213.577 138.27C213.611 138.994 213.797 139.703 214.123 140.351C214.449 140.999 214.907 141.571 215.469 142.03C217.779 144.03 221.579 144.1 224.469 143.51C227.359 142.92 231.849 139.77 233.399 138.66C234.399 139.81 235.399 140.96 236.399 142.13C237.019 142.93 237.679 143.67 238.259 144.52L240.009 146.97C241.069 148.57 242.169 150.21 243.159 151.8C243.859 152.9 244.509 153.96 245.159 155.02C244.099 153.94 241.969 151.87 241.779 151.71C238.989 149.713 235.737 148.46 232.329 148.07C232.018 147.826 231.683 147.615 231.329 147.44C230.696 147.085 229.997 146.868 229.275 146.801C228.553 146.734 227.825 146.82 227.138 147.053C226.452 147.286 225.822 147.661 225.29 148.153C224.757 148.645 224.335 149.244 224.049 149.91C222.439 153.97 226.799 160.52 229.809 163C229.989 163.15 232.089 164.52 233.429 165.36C232.569 164.99 231.729 164.61 230.839 164.24C229.079 163.48 227.289 162.78 225.379 162.02L222.539 161.02C221.599 160.66 220.539 160.4 219.539 160.08C217.209 159.4 214.809 158.81 212.389 158.28C213.049 156.73 215.299 151.21 215.249 148.28C215.199 145.35 214.329 141.67 211.839 139.86C211.268 139.413 210.61 139.091 209.907 138.916C209.203 138.74 208.471 138.714 207.757 138.839C207.044 138.965 206.364 139.239 205.763 139.644C205.162 140.049 204.653 140.575 204.269 141.19C202.069 144.96 205.379 152.1 207.979 155C208.139 155.19 210.239 157.06 211.409 158.07C209.949 157.76 208.499 157.44 207.009 157.18C202.719 156.41 198.349 155.77 194.009 155.1L190.009 154.47C190.249 153.93 193.069 147.42 193.009 144.15C192.959 141.24 192.089 137.54 189.599 135.73C189.028 135.283 188.37 134.961 187.667 134.786C186.963 134.61 186.231 134.584 185.517 134.709C184.804 134.835 184.124 135.109 183.523 135.514C182.922 135.919 182.413 136.445 182.029 137.06C179.829 140.83 183.139 147.97 185.729 150.88C185.929 151.09 188.949 153.79 189.729 154.44C186.799 153.97 183.889 153.44 181.029 152.87C177.175 152.072 173.377 151.026 169.659 149.74C169.769 149.49 172.749 142.74 172.659 139.36C172.609 136.45 171.739 132.75 169.249 130.94C168.678 130.493 168.02 130.171 167.317 129.996C166.613 129.82 165.881 129.794 165.167 129.919C164.454 130.045 163.774 130.319 163.173 130.724C162.572 131.129 162.063 131.655 161.679 132.27C159.479 136.04 162.789 143.18 165.389 146.09C165.589 146.31 168.849 149.21 169.469 149.69C169.259 149.62 169.029 149.56 168.809 149.48C165.113 148.086 161.549 146.366 158.159 144.34C156.279 143.25 154.539 142.09 152.869 140.94C153.549 139.73 156.619 134.19 156.869 131.17C157.119 128.15 156.679 124.5 154.409 122.42C153.89 121.913 153.27 121.521 152.59 121.269C151.909 121.017 151.184 120.91 150.46 120.956C149.736 121.003 149.029 121.2 148.387 121.537C147.744 121.873 147.179 122.341 146.729 122.91C144.129 126.42 146.639 133.91 148.899 137.05C149.019 137.23 150.469 138.84 151.539 140.05C150.789 139.52 150.009 138.98 149.309 138.45C146.659 136.45 144.359 134.52 142.309 132.76C141.169 131.76 140.149 130.81 139.209 129.93C139.269 128.4 139.409 122.22 138.289 119.45C137.169 116.68 135.049 113.62 132.069 112.83C131.373 112.619 130.641 112.558 129.92 112.649C129.2 112.741 128.506 112.983 127.885 113.36C127.264 113.738 126.73 114.242 126.317 114.84C125.904 115.438 125.622 116.116 125.489 116.83C124.789 121.14 130.489 126.61 133.929 128.38C134.229 128.53 139.189 130.38 139.199 130.31V130.22C140.089 131.09 141.049 132.01 142.119 133C144.119 134.8 146.379 136.83 148.999 138.86C151.79 141.088 154.712 143.148 157.749 145.03C161.137 147.156 164.708 148.976 168.419 150.47L168.549 150.52C167.279 150.42 163.699 150.29 163.429 150.31C159.539 150.61 152.199 153.46 151.179 157.7C151.029 158.409 151.03 159.142 151.182 159.851C151.334 160.559 151.633 161.228 152.06 161.814C152.488 162.399 153.033 162.889 153.662 163.25C154.29 163.611 154.988 163.836 155.709 163.91C158.769 164.24 161.999 162.18 163.999 160.11Z" fill="#92E3A9"/>
<path d="M192.099 87.7603C192.169 87.7603 188.839 83.6103 188.599 83.3803C185.819 80.6503 178.839 77.0003 174.999 79.0003C174.366 79.3545 173.815 79.8382 173.382 80.4197C172.949 81.0011 172.643 81.6675 172.484 82.3751C172.326 83.0828 172.318 83.816 172.462 84.5267C172.606 85.2375 172.898 85.91 173.319 86.5003C175.009 89.0703 178.659 90.1203 181.569 90.3003C184.999 90.5503 192.089 87.7703 192.099 87.7603Z" fill="#92E3A9"/>
<g opacity="0.1">
<path d="M74.7517 184.729C74.8917 183.659 73.6517 182.489 73.6517 181.389C73.6517 180.289 74.8917 179.109 74.7517 178.049C74.6117 176.989 73.1117 176.139 72.8317 175.049C72.5517 173.959 73.4417 172.539 73.0217 171.539C72.6017 170.539 70.9517 170.129 70.4017 169.199C69.8517 168.269 70.3417 166.619 69.6817 165.759C69.0217 164.899 67.3117 164.939 66.5417 164.169C65.7717 163.399 65.8217 161.699 64.9517 161.029C64.0817 160.359 62.4617 160.849 61.5117 160.309C60.5617 159.769 60.1817 158.109 59.1717 157.689C58.1617 157.269 56.7217 158.159 55.6617 157.879C54.6017 157.599 53.8017 156.099 52.7117 155.959C51.6217 155.819 50.4817 157.059 49.3717 157.059C48.2617 157.059 47.1017 155.869 46.0017 155.999C44.9017 156.129 44.1017 157.639 43.0617 157.919C42.0217 158.199 40.5417 157.309 39.5417 157.729C38.5417 158.149 38.1417 159.799 37.2017 160.349C36.2617 160.899 34.6217 160.409 33.7617 161.069C32.9017 161.729 32.9417 163.439 32.1717 164.209C31.4017 164.979 29.7017 164.929 29.0417 165.799C28.3817 166.669 28.8617 168.289 28.3117 169.239C27.7617 170.189 26.1117 170.569 25.6917 171.579C25.2717 172.589 26.1717 174.029 25.8817 175.089C25.5917 176.149 24.1117 176.949 23.9617 178.089C23.8117 179.229 25.0617 180.329 25.0617 181.429C25.0617 182.529 23.8317 183.699 23.9617 184.769C24.0917 185.839 25.6017 186.669 25.8817 187.769C26.1617 188.869 25.2817 190.279 25.6917 191.279C26.1017 192.279 27.7717 192.679 28.3117 193.619C28.8517 194.559 28.3717 196.199 29.0417 197.059C29.7117 197.919 31.4017 197.879 32.1717 198.649C32.9417 199.419 32.9017 201.119 33.7617 201.789C34.6217 202.459 36.2617 201.969 37.2017 202.509C38.1417 203.049 38.5417 204.709 39.5517 205.129C40.5617 205.549 42.0017 204.659 43.0617 204.939C44.1217 205.219 44.9117 206.709 46.0017 206.859C47.0917 207.009 48.2417 205.759 49.3417 205.759C50.4417 205.759 51.6217 206.999 52.6817 206.859C53.7417 206.719 54.5917 205.219 55.6317 204.939C56.6717 204.659 58.1417 205.539 59.1417 205.129C60.1417 204.719 60.5517 203.049 61.4817 202.509C62.4117 201.969 64.0617 202.449 64.9217 201.779C65.7817 201.109 65.7417 199.419 66.5117 198.649C67.2817 197.879 68.9917 197.919 69.6517 197.059C70.3117 196.199 69.8317 194.569 70.3817 193.619C70.9317 192.669 72.5817 192.289 72.9917 191.279C73.4017 190.269 72.5217 188.819 72.8017 187.769C73.0817 186.719 74.6117 185.819 74.7517 184.729ZM49.3717 201.079C45.4774 201.079 41.6705 199.924 38.4325 197.761C35.1945 195.597 32.6708 192.522 31.1805 188.924C29.6902 185.326 29.3003 181.367 30.0601 177.548C30.8198 173.728 32.6951 170.22 35.4488 167.466C38.2025 164.713 41.7109 162.837 45.5304 162.078C49.3499 161.318 53.3089 161.708 56.9068 163.198C60.5046 164.688 63.5798 167.212 65.7434 170.45C67.9069 173.688 69.0617 177.495 69.0617 181.389C69.0591 186.611 66.9837 191.617 63.2917 195.309C59.5997 199.001 54.593 201.077 49.3717 201.079Z" fill="black"/>
<path d="M60.5124 192.529C66.6631 186.378 66.6631 176.405 60.5124 170.255C54.3616 164.104 44.3893 164.104 38.2385 170.255C32.0877 176.405 32.0877 186.378 38.2385 192.529C44.3893 198.679 54.3616 198.679 60.5124 192.529Z" fill="black"/>
</g>
<g opacity="0.1">
<path d="M464.753 177.35C464.933 175.93 463.283 174.35 463.283 172.89C463.283 171.43 464.933 169.89 464.753 168.43C464.573 166.97 462.563 165.89 462.193 164.5C461.823 163.11 463.003 161.14 462.443 159.81C461.883 158.48 459.673 157.93 458.953 156.68C458.233 155.43 458.863 153.24 457.953 152.09C457.043 150.94 454.793 151 453.763 149.97C452.733 148.94 452.763 146.67 451.643 145.78C450.523 144.89 448.313 145.54 447.053 144.78C445.793 144.02 445.273 141.85 443.923 141.29C442.573 140.73 440.653 141.92 439.233 141.54C437.813 141.16 436.763 139.17 435.303 138.98C433.843 138.79 432.303 140.45 430.843 140.45C429.383 140.45 427.843 138.8 426.383 138.98C424.923 139.16 423.843 141.17 422.453 141.54C421.063 141.91 419.103 140.74 417.763 141.29C416.423 141.84 415.893 144.06 414.633 144.79C413.373 145.52 411.193 144.87 410.043 145.79C408.893 146.71 409.003 148.94 408.003 150C407.003 151.06 404.703 151 403.823 152.12C402.943 153.24 403.583 155.45 402.823 156.71C402.063 157.97 399.883 158.49 399.323 159.84C398.763 161.19 399.963 163.11 399.583 164.53C399.203 165.95 397.213 167 397.023 168.46C396.833 169.92 398.483 171.46 398.483 172.92C398.483 174.38 396.833 175.92 397.023 177.38C397.213 178.84 399.213 179.92 399.583 181.31C399.953 182.7 398.773 184.66 399.323 186C399.873 187.34 402.093 187.87 402.823 189.13C403.553 190.39 402.913 192.57 403.823 193.72C404.733 194.87 406.983 194.81 408.003 195.84C409.023 196.87 409.003 199.14 410.123 200.02C411.243 200.9 413.453 200.26 414.723 201.02C415.993 201.78 416.503 203.96 417.853 204.52C419.203 205.08 421.123 203.89 422.533 204.26C423.943 204.63 425.013 206.63 426.463 206.82C427.913 207.01 429.463 205.36 430.923 205.36C432.383 205.36 433.923 207.01 435.383 206.82C436.843 206.63 437.923 204.63 439.313 204.26C440.703 203.89 442.673 205.07 444.003 204.52C445.333 203.97 445.883 201.75 447.133 201.02C448.383 200.29 450.573 200.94 451.723 200.02C452.873 199.1 452.813 196.86 453.843 195.84C454.873 194.82 457.143 194.84 458.033 193.72C458.923 192.6 458.273 190.39 459.033 189.13C459.793 187.87 461.963 187.34 462.523 186C463.083 184.66 461.893 182.72 462.273 181.31C462.653 179.9 464.563 178.8 464.753 177.35ZM430.873 199.17C425.675 199.17 420.594 197.629 416.273 194.741C411.951 191.853 408.583 187.749 406.594 182.947C404.604 178.145 404.084 172.861 405.098 167.763C406.112 162.665 408.615 157.983 412.29 154.307C415.966 150.632 420.648 148.129 425.746 147.115C430.844 146.101 436.128 146.621 440.93 148.61C445.732 150.6 449.836 153.968 452.724 158.29C455.612 162.611 457.153 167.692 457.153 172.89C457.15 179.859 454.381 186.542 449.453 191.47C444.525 196.398 437.842 199.167 430.873 199.17Z" fill="black"/>
<path d="M442.985 187.836C452.273 180.871 454.155 167.696 447.189 158.408C440.224 149.121 427.049 147.239 417.761 154.204C408.474 161.17 406.592 174.345 413.557 183.632C420.523 192.92 433.698 194.802 442.985 187.836Z" fill="black"/>
</g>
<g opacity="0.1">
<path d="M409.582 391.129C405.231 391.129 400.977 392.419 397.36 394.837C393.742 397.254 390.922 400.69 389.257 404.71C387.592 408.73 387.156 413.153 388.005 417.421C388.854 421.688 390.949 425.608 394.026 428.685C397.102 431.762 401.022 433.857 405.29 434.706C409.558 435.555 413.981 435.119 418.001 433.454C422.021 431.789 425.457 428.969 427.874 425.351C430.292 421.734 431.582 417.48 431.582 413.129C431.582 407.294 429.264 401.698 425.138 397.573C421.013 393.447 415.417 391.129 409.582 391.129ZM411.002 428.389V430.709H408.202V428.389C404.402 427.869 402.692 424.979 402.692 420.829V418.999H405.882V421.099C405.882 423.849 407.022 425.429 409.472 425.429C411.922 425.429 413.062 423.849 413.062 421.099C413.062 414.279 402.822 414.189 402.822 405.569C402.822 401.369 404.532 398.619 408.202 398.049V395.599H411.002V397.999C414.722 398.529 416.422 401.409 416.422 405.519V406.349H413.232V405.299C413.232 402.589 412.142 400.929 409.692 400.929C407.242 400.929 406.192 402.589 406.192 405.299C406.192 412.169 416.472 412.209 416.472 420.829C416.472 424.939 414.722 427.869 411.002 428.389Z" fill="black"/>
<path d="M409.582 377.129C402.462 377.129 395.502 379.24 389.582 383.196C383.661 387.152 379.047 392.774 376.322 399.352C373.598 405.93 372.885 413.169 374.274 420.152C375.663 427.135 379.092 433.55 384.126 438.585C389.161 443.619 395.575 447.048 402.559 448.437C409.542 449.826 416.781 449.113 423.359 446.389C429.937 443.664 435.559 439.05 439.515 433.129C443.471 427.209 445.582 420.249 445.582 413.129C445.582 403.581 441.789 394.424 435.038 387.673C428.287 380.922 419.13 377.129 409.582 377.129ZM409.582 440.129C404.242 440.129 399.022 438.545 394.582 435.579C390.142 432.612 386.681 428.395 384.637 423.461C382.594 418.528 382.059 413.099 383.101 407.861C384.143 402.624 386.714 397.813 390.49 394.037C394.266 390.261 399.077 387.69 404.315 386.648C409.552 385.606 414.981 386.141 419.914 388.184C424.848 390.228 429.065 393.688 432.032 398.129C434.999 402.569 436.582 407.789 436.582 413.129C436.582 420.29 433.737 427.157 428.674 432.221C423.61 437.284 416.743 440.129 409.582 440.129Z" fill="black"/>
</g>
<g opacity="0.1">
<path d="M324.571 422.339C321.498 422.339 318.493 423.25 315.938 424.958C313.382 426.665 311.39 429.092 310.214 431.932C309.038 434.772 308.73 437.896 309.33 440.911C309.929 443.925 311.41 446.694 313.583 448.867C315.756 451.041 318.525 452.521 321.54 453.12C324.554 453.72 327.679 453.412 330.518 452.236C333.358 451.06 335.785 449.068 337.492 446.512C339.2 443.957 340.111 440.952 340.111 437.879C340.111 435.838 339.709 433.817 338.928 431.932C338.147 430.047 337.003 428.333 335.56 426.89C334.117 425.447 332.404 424.303 330.518 423.522C328.633 422.741 326.612 422.339 324.571 422.339ZM325.571 448.659V450.299H323.571V448.659C320.881 448.289 319.681 446.249 319.681 443.309V441.999H322.001V443.479C322.001 445.419 322.801 446.539 324.531 446.539C326.261 446.539 327.071 445.419 327.071 443.479C327.071 438.659 319.841 438.599 319.841 432.479C319.841 429.479 321.041 427.569 323.641 427.169V425.439H325.641V427.169C328.261 427.539 329.471 429.579 329.471 432.479V433.069H327.211V432.329C327.211 430.409 326.441 429.239 324.711 429.239C322.981 429.239 322.241 430.409 322.241 432.329C322.241 437.179 329.501 437.209 329.501 443.329C329.441 446.219 328.201 448.289 325.581 448.659H325.571Z" fill="black"/>
<path d="M324.571 412.449C319.541 412.449 314.624 413.941 310.442 416.735C306.261 419.529 303.001 423.501 301.076 428.148C299.152 432.794 298.648 437.907 299.629 442.84C300.61 447.773 303.032 452.304 306.589 455.861C310.145 459.417 314.677 461.839 319.609 462.821C324.542 463.802 329.656 463.298 334.302 461.373C338.949 459.449 342.921 456.189 345.715 452.007C348.509 447.825 350.001 442.909 350.001 437.879C350.001 431.135 347.321 424.667 342.552 419.897C337.783 415.128 331.315 412.449 324.571 412.449ZM324.571 456.949C320.799 456.949 317.112 455.831 313.976 453.735C310.84 451.64 308.396 448.662 306.952 445.177C305.509 441.692 305.131 437.858 305.867 434.159C306.603 430.46 308.419 427.062 311.086 424.395C313.753 421.728 317.151 419.911 320.85 419.176C324.549 418.44 328.384 418.817 331.868 420.261C335.353 421.704 338.331 424.148 340.427 427.284C342.522 430.421 343.641 434.108 343.641 437.879C343.647 440.388 343.159 442.873 342.203 445.192C341.248 447.512 339.844 449.62 338.073 451.396C336.301 453.172 334.197 454.581 331.88 455.543C329.563 456.504 327.079 456.999 324.571 456.999V456.949Z" fill="black"/>
</g>
<g opacity="0.1">
<path d="M297.712 368.349C294.638 368.349 291.634 369.26 289.078 370.968C286.523 372.675 284.531 375.102 283.355 377.942C282.179 380.781 281.871 383.906 282.47 386.92C283.07 389.935 284.55 392.704 286.723 394.877C288.897 397.05 291.666 398.53 294.68 399.13C297.695 399.73 300.819 399.422 303.659 398.246C306.498 397.07 308.925 395.078 310.633 392.522C312.34 389.967 313.252 386.962 313.252 383.889C313.253 381.848 312.852 379.826 312.072 377.94C311.291 376.054 310.147 374.341 308.703 372.897C307.26 371.454 305.546 370.309 303.66 369.529C301.774 368.748 299.753 368.347 297.712 368.349ZM298.712 394.669V396.299H296.712V394.669C294.032 394.299 292.822 392.259 292.822 389.319V387.999H295.082V389.479C295.082 391.419 295.882 392.539 297.612 392.539C299.342 392.539 300.142 391.419 300.142 389.479C300.142 384.659 292.912 384.599 292.912 378.479C292.912 375.479 294.122 373.569 296.712 373.169V371.439H298.712V373.169C301.342 373.539 302.542 375.579 302.542 378.479V379.069H300.292V378.329C300.292 376.409 299.512 375.239 297.782 375.239C296.052 375.239 295.312 376.409 295.312 378.329C295.312 383.179 302.572 383.209 302.572 389.329C302.572 392.229 301.342 394.299 298.712 394.669Z" fill="black"/>
<path d="M297.713 358.459C292.683 358.457 287.766 359.947 283.583 362.74C279.399 365.533 276.138 369.504 274.212 374.15C272.286 378.797 271.781 383.91 272.761 388.844C273.741 393.778 276.162 398.31 279.718 401.867C283.274 405.425 287.805 407.848 292.739 408.83C297.672 409.812 302.785 409.309 307.433 407.384C312.08 405.46 316.052 402.2 318.847 398.018C321.642 393.836 323.133 388.919 323.133 383.889C323.135 380.55 322.478 377.243 321.201 374.158C319.924 371.073 318.052 368.269 315.692 365.908C313.331 363.546 310.528 361.673 307.444 360.395C304.359 359.117 301.052 358.459 297.713 358.459ZM297.713 402.959C293.942 402.959 290.255 401.841 287.119 399.745C283.983 397.65 281.538 394.671 280.095 391.187C278.652 387.702 278.274 383.868 279.01 380.169C279.746 376.469 281.562 373.071 284.229 370.404C286.896 367.737 290.294 365.921 293.993 365.185C297.692 364.45 301.527 364.827 305.011 366.271C308.496 367.714 311.474 370.158 313.57 373.294C315.665 376.43 316.783 380.117 316.783 383.889C316.789 386.397 316.299 388.881 315.343 391.199C314.387 393.517 312.983 395.624 311.212 397.399C309.441 399.174 307.337 400.583 305.02 401.544C302.704 402.504 300.221 402.999 297.713 402.999V402.959Z" fill="black"/>
</g>
<path opacity="0.1" d="M85.7812 74.0288H100.491L93.1312 61.2988L85.7812 74.0288Z" fill="black"/>
<path opacity="0.1" d="M56.9102 74.0288H71.6202L64.2702 61.2988L56.9102 74.0288Z" fill="black"/>
<path opacity="0.1" d="M78.702 44.6699C73.0415 44.6699 67.5082 46.3485 62.8016 49.4933C58.0951 52.6381 54.4268 57.1079 52.2606 62.3375C50.0944 67.5671 49.5277 73.3217 50.632 78.8734C51.7363 84.4251 54.4621 89.5247 58.4646 93.5273C62.4672 97.5299 67.5668 100.256 73.1186 101.36C78.6703 102.464 84.4248 101.898 89.6544 99.7314C94.8841 97.5652 99.3539 93.8969 102.499 89.1903C105.644 84.4838 107.322 78.9504 107.322 73.2899C107.314 65.7019 104.296 58.4269 98.9307 53.0613C93.5651 47.6957 86.2901 44.6779 78.702 44.6699ZM98.942 77.9999H87.332C86.7656 77.9999 86.209 77.8509 85.7183 77.5679C85.2276 77.2848 84.82 76.8777 84.5363 76.3874C84.2527 75.897 84.1029 75.3407 84.1022 74.7742C84.1014 74.2077 84.2497 73.651 84.532 73.1599L92.932 58.5999H80.682V86.3999H85.222V88.7699H91.552V92.0999H66.642V88.7699H72.172V86.3999H78.002V58.5499H64.472L72.872 73.1099C73.167 73.6022 73.3255 74.1642 73.3312 74.7381C73.3368 75.312 73.1895 75.877 72.9043 76.3751C72.6192 76.8731 72.2064 77.2862 71.7086 77.5717C71.2108 77.8573 70.6459 78.0051 70.072 77.9999H58.462C57.8956 77.9999 57.339 77.8509 56.8483 77.5679C56.3576 77.2848 55.95 76.8777 55.6663 76.3874C55.3827 75.897 55.2329 75.3407 55.2322 74.7742C55.2314 74.2077 55.3797 73.651 55.662 73.1599L64.062 58.5999H63.722C63.3828 58.5707 63.0668 58.4154 62.8365 58.1645C62.6063 57.9136 62.4786 57.5854 62.4786 57.2449C62.4786 56.9044 62.6063 56.5763 62.8365 56.3254C63.0668 56.0745 63.3828 55.9191 63.722 55.8899H78.002C78.0312 55.5506 78.1866 55.2347 78.4375 55.0044C78.6884 54.7742 79.0165 54.6464 79.357 54.6464C79.6976 54.6464 80.0257 54.7742 80.2766 55.0044C80.5275 55.2347 80.6829 55.5506 80.712 55.8899H94.922C95.1098 55.8738 95.2988 55.8968 95.4772 55.9576C95.6555 56.0184 95.8193 56.1155 95.9581 56.2429C96.0969 56.3703 96.2078 56.5252 96.2836 56.6977C96.3594 56.8701 96.3986 57.0565 96.3986 57.2449C96.3986 57.4333 96.3594 57.6197 96.2836 57.7922C96.2078 57.9647 96.0969 58.1195 95.9581 58.2469C95.8193 58.3743 95.6555 58.4715 95.4772 58.5323C95.2988 58.593 95.1098 58.6161 94.922 58.5999H93.332L101.742 73.1599C102.024 73.651 102.173 74.2077 102.172 74.7742C102.171 75.3407 102.021 75.897 101.738 76.3874C101.454 76.8777 101.046 77.2848 100.556 77.5679C100.065 77.8509 99.5085 77.9999 98.942 77.9999Z" fill="black"/>
<path opacity="0.1" d="M78.7036 40.5195C72.2223 40.5195 65.8866 42.4415 60.4976 46.0423C55.1086 49.6431 50.9084 54.7611 48.4281 60.749C45.9478 66.7369 45.2988 73.3259 46.5633 79.6826C47.8277 86.0394 50.9488 91.8785 55.5317 96.4614C60.1147 101.044 65.9537 104.165 72.3105 105.43C78.6673 106.694 85.2562 106.045 91.2441 103.565C97.2321 101.085 102.35 96.8846 105.951 91.4956C109.552 86.1066 111.474 79.7708 111.474 73.2895C111.474 64.5984 108.021 56.2632 101.875 50.1176C95.7299 43.9721 87.3947 40.5195 78.7036 40.5195ZM78.7036 102.91C72.8453 102.91 67.1186 101.172 62.2476 97.9177C57.3766 94.663 53.5802 90.037 51.3383 84.6246C49.0964 79.2123 48.5099 73.2567 49.6527 67.511C50.7956 61.7652 53.6167 56.4875 57.7591 52.345C61.9015 48.2026 67.1793 45.3816 72.925 44.2387C78.6707 43.0958 84.6263 43.6823 90.0387 45.9242C95.451 48.1661 100.077 51.9626 103.332 56.8335C106.586 61.7045 108.324 67.4312 108.324 73.2895C108.313 81.142 105.189 88.6698 99.6364 94.2223C94.0839 99.7749 86.5561 102.899 78.7036 102.91Z" fill="black"/>
<path opacity="0.1" d="M107.613 409.49H122.323L114.973 396.75L107.613 409.49Z" fill="black"/>
<path opacity="0.1" d="M78.75 409.49H93.46L86.1 396.75L78.75 409.49Z" fill="black"/>
<path opacity="0.1" d="M100.53 380.129C94.8692 380.129 89.3355 381.808 84.6287 384.953C79.922 388.098 76.2537 392.569 74.0878 397.799C71.9219 403.029 71.3557 408.784 72.4608 414.336C73.5659 419.888 76.2927 424.988 80.2963 428.99C84.2999 432.992 89.4004 435.717 94.9528 436.82C100.505 437.923 106.26 437.355 111.489 435.187C116.719 433.02 121.188 429.35 124.332 424.642C127.475 419.934 129.152 414.4 129.15 408.739C129.142 401.152 126.124 393.878 120.758 388.514C115.392 383.15 108.117 380.134 100.53 380.129ZM120.78 413.399H109.16C108.593 413.4 108.036 413.252 107.545 412.969C107.054 412.686 106.646 412.278 106.363 411.787C106.08 411.296 105.932 410.739 105.933 410.172C105.934 409.605 106.085 409.049 106.37 408.559L114.77 394.009H102.52V421.849H107.06V424.219H113.39V427.549H88.4702V424.219H94.0002V421.849H99.8002V393.999H86.3002L94.7002 408.549C94.9853 409.039 95.1361 409.595 95.1374 410.162C95.1386 410.729 94.9901 411.286 94.7071 411.777C94.424 412.268 94.0163 412.676 93.5252 412.959C93.0341 413.242 92.477 413.39 91.9102 413.389H80.2902C79.7233 413.39 79.1662 413.242 78.6751 412.959C78.184 412.676 77.7763 412.268 77.4933 411.777C77.2102 411.286 77.0618 410.729 77.063 410.162C77.0642 409.595 77.215 409.039 77.5002 408.549L85.9002 393.999H85.5602C85.1995 393.999 84.8535 393.856 84.5985 393.601C84.3434 393.346 84.2002 393 84.2002 392.639C84.2002 392.278 84.3434 391.932 84.5985 391.677C84.8535 391.422 85.1995 391.279 85.5602 391.279H99.8002C99.8002 390.918 99.9434 390.572 100.198 390.317C100.454 390.062 100.799 389.919 101.16 389.919C101.521 389.919 101.867 390.062 102.122 390.317C102.377 390.572 102.52 390.918 102.52 391.279H116.76C117.121 391.279 117.467 391.422 117.722 391.677C117.977 391.932 118.12 392.278 118.12 392.639C118.12 393 117.977 393.346 117.722 393.601C117.467 393.856 117.121 393.999 116.76 393.999H115.17L123.57 408.549C123.855 409.04 124.005 409.596 124.006 410.163C124.007 410.731 123.858 411.288 123.576 411.78C123.293 412.271 122.886 412.68 122.395 412.964C121.904 413.248 121.347 413.398 120.78 413.399Z" fill="black"/>
<path opacity="0.1" d="M100.532 376C94.0504 376 87.7147 377.922 82.3257 381.523C76.9367 385.124 72.7365 390.242 70.2562 396.229C67.7759 402.217 67.127 408.806 68.3914 415.163C69.6558 421.52 72.7769 427.359 77.3598 431.942C81.9428 436.525 87.7819 439.646 94.1386 440.91C100.495 442.175 107.084 441.526 113.072 439.046C119.06 436.565 124.178 432.365 127.779 426.976C131.38 421.587 133.302 415.251 133.302 408.77C133.302 400.079 129.849 391.744 123.704 385.598C117.558 379.453 109.223 376 100.532 376ZM100.532 438.39C94.6735 438.39 88.9467 436.653 84.0757 433.398C79.2048 430.143 75.4083 425.517 73.1664 420.105C70.9246 414.693 70.338 408.737 71.4809 402.991C72.6238 397.246 75.4448 391.968 79.5872 387.826C83.7297 383.683 89.0074 380.862 94.7532 379.719C100.499 378.576 106.454 379.163 111.867 381.405C117.279 383.647 121.905 387.443 125.16 392.314C128.415 397.185 130.152 402.912 130.152 408.77C130.136 416.618 127.009 424.14 121.457 429.686C115.905 435.233 108.38 438.352 100.532 438.36V438.39Z" fill="black"/>
<path d="M246 489C360.323 489 453 485.418 453 481C453 476.582 360.323 473 246 473C131.677 473 39 476.582 39 481C39 485.418 131.677 489 246 489Z" fill="#263238"/>
<path d="M392.479 278.67C398.389 279.77 404.839 275.98 408.479 269.89C411.249 265.32 412.219 260.81 413.349 255.64C414.619 250 458.539 45.81 458.999 43.79H236.559L191.279 254.2L189.439 262.69C189.057 264.457 188.381 266.147 187.439 267.69L186.099 269.92C184.683 272.264 182.652 274.175 180.226 275.447C177.801 276.719 175.074 277.303 172.341 277.135C169.607 276.967 166.972 276.054 164.721 274.495C162.469 272.935 160.688 270.79 159.569 268.29C157.724 264.161 154.739 260.644 150.964 258.153C147.189 255.662 142.781 254.301 138.259 254.23H137.429C132.167 254.329 127.086 256.17 122.982 259.465C118.878 262.76 115.982 267.324 114.749 272.44L96.3789 348.66H318.789L335.669 278.66" fill="white"/>
<path d="M392.479 278.67C398.389 279.77 404.839 275.98 408.479 269.89C411.249 265.32 412.219 260.81 413.349 255.64C414.619 250 458.539 45.81 458.999 43.79H236.559L191.279 254.2L189.439 262.69C189.057 264.457 188.381 266.147 187.439 267.69L186.099 269.92C184.683 272.264 182.652 274.175 180.226 275.447C177.801 276.719 175.074 277.303 172.341 277.135C169.607 276.967 166.972 276.054 164.721 274.495C162.469 272.935 160.688 270.79 159.569 268.29C157.724 264.161 154.739 260.644 150.964 258.153C147.189 255.662 142.781 254.301 138.259 254.23H137.429C132.167 254.329 127.086 256.17 122.982 259.465C118.878 262.76 115.982 267.323 114.749 272.44L96.3789 348.66H318.789L335.669 278.66" stroke="#263238" stroke-linecap="round" stroke-linejoin="round"/>
<path d="M307 67.5398L306.68 69.2198H304.68L305.02 67.4298C305.35 65.7498 304.88 64.7398 303.35 64.7398C301.82 64.7398 300.97 65.7398 300.64 67.4298L298.74 77.3198C298.41 78.9998 298.91 80.0098 300.41 80.0098C301.91 80.0098 302.8 79.0098 303.12 77.3198L303.59 74.8898H305.59L305.15 77.2098C304.6 80.0398 302.9 81.9098 300.02 81.9098C297.14 81.9098 296.19 80.0398 296.73 77.2098L298.6 67.5398C299.14 64.7098 300.84 62.8398 303.7 62.8398C306.56 62.8398 307.5 64.7098 307 67.5398Z" fill="#263238"/>
<path d="M308.688 67.5398C309.238 64.6798 311.008 62.8398 313.868 62.8398C316.728 62.8398 317.808 64.6798 317.258 67.5398L315.398 77.2098C314.848 80.0398 313.078 81.9098 310.188 81.9098C307.298 81.9098 306.278 80.0398 306.818 77.2098L308.688 67.5398ZM308.858 77.3198C308.528 79.0298 309.058 80.0098 310.558 80.0098C312.058 80.0098 312.958 79.0098 313.288 77.3198L315.198 67.4298C315.518 65.7498 315.018 64.7398 313.498 64.7398C311.978 64.7398 311.088 65.7398 310.768 67.4298L308.858 77.3198Z" fill="#263238"/>
<path d="M318.35 81.72H316.48L320.08 63H322.73L324.45 76.51L327.06 63H328.9L325.29 81.69H323.13L321.26 66.58L318.35 81.72Z" fill="#263238"/>
<path d="M330.128 81.7203L333.368 64.9203H329.918L330.288 63.0303H339.238L338.868 64.9203H335.428L332.188 81.7203H330.128Z" fill="#263238"/>
<path d="M344.818 63C347.758 63 348.698 64.49 348.168 67.27L347.868 68.79C347.478 70.85 346.508 72.13 344.808 72.64C346.418 73.15 346.808 74.54 346.408 76.54L345.838 79.45C345.644 80.1841 345.644 80.9559 345.838 81.69H343.718C343.566 80.9365 343.6 80.1573 343.818 79.42L344.378 76.49C344.788 74.37 343.928 73.71 342.188 73.71H340.718L339.178 81.71H337.098L340.648 63H344.818ZM342.588 71.81C342.965 71.8647 343.349 71.8405 343.716 71.7389C344.083 71.6373 344.425 71.4606 344.72 71.2199C345.015 70.9792 345.257 70.6798 345.431 70.3407C345.604 70.0016 345.705 69.6302 345.728 69.25L346.068 67.46C346.398 65.77 345.948 64.89 344.398 64.89H342.398L340.998 71.84L342.588 71.81Z" fill="#263238"/>
<path d="M350.41 78L349 81.72H347L354.23 63H357.23V81.69H355.15V78H350.41ZM351.02 76.21H355.19V65.42L351.02 76.21Z" fill="#263238"/>
<path d="M369.808 67.5398L369.488 69.2198H367.488L367.838 67.4298C368.158 65.7498 367.688 64.7398 366.168 64.7398C364.648 64.7398 363.778 65.7398 363.458 67.4298L361.548 77.3198C361.228 78.9998 361.718 80.0098 363.218 80.0098C364.718 80.0098 365.608 79.0098 365.928 77.3198L366.398 74.8898H368.398L367.998 77.2098C367.448 80.0398 365.758 81.9098 362.868 81.9098C359.978 81.9098 358.998 79.9998 359.528 77.2098L361.398 67.5398C361.938 64.7098 363.638 62.8398 366.498 62.8398C369.358 62.8398 370.358 64.7098 369.808 67.5398Z" fill="#263238"/>
<path d="M371.669 81.7203L374.909 64.9203H371.469L371.829 63.0303H380.779L380.419 64.9203H376.999L373.759 81.7203H371.669Z" fill="#263238"/>
<path d="M242.289 90.8604H438.479" stroke="#263238" stroke-miterlimit="10"/>
<path d="M386.289 112.6H432.199" stroke="#263238" stroke-miterlimit="10"/>
<path d="M314.289 112.6H381.459" stroke="#263238" stroke-miterlimit="10"/>
<path d="M269.348 112.6H310.428" stroke="#263238" stroke-miterlimit="10"/>
<path d="M236.008 112.6H265.488" stroke="#263238" stroke-miterlimit="10"/>
<path d="M380.488 123.71H429.778" stroke="#263238" stroke-miterlimit="10"/>
<path d="M268.867 123.71H375.657" stroke="#263238" stroke-miterlimit="10"/>
<path d="M233.598 123.71H264.518" stroke="#263238" stroke-miterlimit="10"/>
<path d="M370.348 134.83H427.368" stroke="#263238" stroke-miterlimit="10"/>
<path d="M284.82 134.83H366.48" stroke="#263238" stroke-miterlimit="10"/>
<path d="M231.18 134.83H280.95" stroke="#263238" stroke-miterlimit="10"/>
<path d="M389.188 145.939H424.948" stroke="#263238" stroke-miterlimit="10"/>
<path d="M334.59 145.939H384.36" stroke="#263238" stroke-miterlimit="10"/>
<path d="M281.918 145.939H329.758" stroke="#263238" stroke-miterlimit="10"/>
<path d="M242.289 145.94H277.569" stroke="#263238" stroke-miterlimit="10"/>
<path d="M228.758 145.939H237.938" stroke="#263238" stroke-miterlimit="10"/>
<path d="M414.32 157.061H422.53" stroke="#263238" stroke-miterlimit="10"/>
<path d="M332.648 157.061H408.038" stroke="#263238" stroke-miterlimit="10"/>
<path d="M275.148 157.061H327.818" stroke="#263238" stroke-miterlimit="10"/>
<path d="M226.348 157.061H269.838" stroke="#263238" stroke-miterlimit="10"/>
<path d="M403.688 168.17H420.117" stroke="#263238" stroke-miterlimit="10"/>
<path d="M355.848 168.17H399.338" stroke="#263238" stroke-miterlimit="10"/>
<path d="M341.348 168.17H351.018" stroke="#263238" stroke-miterlimit="10"/>
<path d="M271.77 168.17H338.94" stroke="#263238" stroke-miterlimit="10"/>
<path d="M223.93 168.17H267.9" stroke="#263238" stroke-miterlimit="10"/>
<path d="M221.508 179.28H417.698" stroke="#263238" stroke-miterlimit="10"/>
<path d="M405.141 190.4H415.291" stroke="#263238" stroke-miterlimit="10"/>
<path d="M360.68 190.4H398.86" stroke="#263238" stroke-miterlimit="10"/>
<path d="M296.898 190.4H353.918" stroke="#263238" stroke-miterlimit="10"/>
<path d="M282.879 190.4H292.549" stroke="#263238" stroke-miterlimit="10"/>
<path d="M238.43 190.4H277.57" stroke="#263238" stroke-miterlimit="10"/>
<path d="M219.098 190.4H232.628" stroke="#263238" stroke-miterlimit="10"/>
<path d="M363.578 201.51H412.868" stroke="#263238" stroke-miterlimit="10"/>
<path d="M311.391 201.51H357.301" stroke="#263238" stroke-miterlimit="10"/>
<path d="M271.289 201.51H306.559" stroke="#263238" stroke-miterlimit="10"/>
<path d="M216.68 201.51H266.45" stroke="#263238" stroke-miterlimit="10"/>
<path d="M394.988 212.63H410.448" stroke="#263238" stroke-miterlimit="10"/>
<path d="M343.77 212.63H389.67" stroke="#263238" stroke-miterlimit="10"/>
<path d="M310.91 212.63H340.39" stroke="#263238" stroke-miterlimit="10"/>
<path d="M284.328 212.63H306.078" stroke="#263238" stroke-miterlimit="10"/>
<path d="M259.207 212.63H280.467" stroke="#263238" stroke-miterlimit="10"/>
<path d="M227.309 212.63H253.889" stroke="#263238" stroke-miterlimit="10"/>
<path d="M214.27 212.63H222.96" stroke="#263238" stroke-miterlimit="10"/>
<path d="M381.938 223.74H408.038" stroke="#263238" stroke-miterlimit="10"/>
<path d="M336.039 223.74H376.139" stroke="#263238" stroke-miterlimit="10"/>
<path d="M293.027 223.74H330.237" stroke="#263238" stroke-miterlimit="10"/>
<path d="M242.777 223.74H287.227" stroke="#263238" stroke-miterlimit="10"/>
<path d="M211.848 223.74H237.938" stroke="#263238" stroke-miterlimit="10"/>
<path d="M380.488 234.85H405.618" stroke="#263238" stroke-miterlimit="10"/>
<path d="M337 234.85H375.66" stroke="#263238" stroke-miterlimit="10"/>
<path d="M292.059 234.85H330.239" stroke="#263238" stroke-miterlimit="10"/>
<path d="M261.141 234.85H287.721" stroke="#263238" stroke-miterlimit="10"/>
<path d="M229.25 234.85H256.31" stroke="#263238" stroke-miterlimit="10"/>
<path d="M209.43 234.85H226.35" stroke="#263238" stroke-miterlimit="10"/>
<path d="M388.707 245.971H403.197" stroke="#263238" stroke-miterlimit="10"/>
<path d="M339.418 245.971H383.878" stroke="#263238" stroke-miterlimit="10"/>
<path d="M300.277 245.971H333.617" stroke="#263238" stroke-miterlimit="10"/>
<path d="M274.668 245.971H294.958" stroke="#263238" stroke-miterlimit="10"/>
<path d="M233.598 245.971H267.418" stroke="#263238" stroke-miterlimit="10"/>
<path d="M207.02 245.971H230.21" stroke="#263238" stroke-miterlimit="10"/>
<path d="M358.309 254.2V254.27C353.326 254.686 348.602 256.663 344.808 259.92C341.014 263.177 338.344 267.548 337.179 272.41L318.789 348.66H96.3789L114.759 272.41C115.992 267.294 118.888 262.731 122.992 259.435C127.096 256.14 132.177 254.299 137.439 254.2H358.309Z" fill="white" stroke="#263238" stroke-linecap="round" stroke-linejoin="round"/>
<path d="M392.478 278.669H335.668L337.178 272.409C338.353 267.552 341.026 263.187 344.817 259.932C348.609 256.676 353.329 254.696 358.308 254.269C358.958 254.219 359.608 254.189 360.258 254.189C369.258 254.189 378.508 259.119 381.998 268.259C384.458 274.719 388.328 277.889 392.478 278.669Z" fill="#263238" stroke="#263238" stroke-linecap="round" stroke-linejoin="round"/>
<path d="M322.919 272.15C322.919 272.89 321.109 273.44 320.979 274.15C320.849 274.86 322.319 276.04 322.059 276.71C321.799 277.38 319.909 277.26 319.539 277.89C319.169 278.52 320.169 280.1 319.699 280.66C319.229 281.22 317.489 280.52 316.939 281.01C316.389 281.5 316.939 283.3 316.339 283.72C315.739 284.14 314.219 283.02 313.579 283.36C312.939 283.7 313.039 285.59 312.359 285.86C311.679 286.13 310.439 284.72 309.739 284.92C309.039 285.12 308.739 286.99 308.039 287.12C307.339 287.25 306.379 285.62 305.649 285.69C304.919 285.76 304.299 287.53 303.569 287.53C302.839 287.53 302.189 285.75 301.479 285.69C300.769 285.63 299.799 287.25 299.099 287.12C298.399 286.99 298.099 285.12 297.389 284.92C296.679 284.72 295.439 286.13 294.779 285.86C294.119 285.59 294.179 283.7 293.559 283.36C292.939 283.02 291.379 284.13 290.799 283.72C290.219 283.31 290.719 281.48 290.189 281.01C289.659 280.54 287.889 281.2 287.429 280.66C286.969 280.12 287.959 278.5 287.599 277.88C287.239 277.26 285.339 277.38 285.079 276.71C284.819 276.04 286.289 274.86 286.149 274.15C286.009 273.44 284.219 272.9 284.219 272.15C284.219 271.4 286.019 270.87 286.149 270.15C286.279 269.43 284.819 268.27 285.079 267.59C285.339 266.91 287.219 267.05 287.599 266.42C287.979 265.79 286.959 264.21 287.429 263.65C287.899 263.09 289.649 263.79 290.189 263.3C290.729 262.81 290.189 261.01 290.799 260.59C291.409 260.17 292.909 261.29 293.559 260.94C294.209 260.59 294.099 258.72 294.779 258.44C295.459 258.16 296.689 259.59 297.389 259.39C298.089 259.19 298.389 257.32 299.099 257.19C299.809 257.06 300.749 258.69 301.479 258.62C302.209 258.55 302.829 256.77 303.569 256.77C304.309 256.77 304.939 258.55 305.649 258.62C306.359 258.69 307.339 257.05 308.039 257.19C308.739 257.33 309.039 259.19 309.739 259.39C310.439 259.59 311.739 258.18 312.359 258.44C312.979 258.7 312.949 260.61 313.579 260.94C314.209 261.27 315.749 260.18 316.339 260.59C316.929 261 316.419 262.82 316.939 263.3C317.459 263.78 319.249 263.1 319.699 263.65C320.149 264.2 319.169 265.81 319.539 266.42C319.909 267.03 321.799 266.93 322.059 267.6C322.319 268.27 320.839 269.44 320.979 270.15C321.119 270.86 322.919 271.42 322.919 272.15Z" fill="#92E3A9"/>
<path d="M303.569 283.67C311.682 283.67 318.259 278.512 318.259 272.15C318.259 265.788 311.682 260.63 303.569 260.63C295.456 260.63 288.879 265.788 288.879 272.15C288.879 278.512 295.456 283.67 303.569 283.67Z" fill="white"/>
<path d="M303.57 281.48C310.136 281.48 315.46 277.303 315.46 272.15C315.46 266.997 310.136 262.82 303.57 262.82C297.003 262.82 291.68 266.997 291.68 272.15C291.68 277.303 297.003 281.48 303.57 281.48Z" fill="#92E3A9"/>
<path d="M311.939 328.29H215.359" stroke="#263238" stroke-linecap="round" stroke-linejoin="round"/>
<path d="M184.637 328.29H115.438" stroke="#263238" stroke-linecap="round" stroke-linejoin="round"/>
<path d="M236.309 326.25C236.309 326.25 254.539 306.06 259.739 286.25C264.939 266.44 252.149 277.18 247.039 299.15C241.929 321.12 241.929 326.75 247.039 322.66C251.138 319.141 254.676 315.017 257.529 310.43C258.249 309.29 258.849 308.23 259.309 307.33C261.309 303.24 254.709 305.8 253.169 313.97C251.629 322.14 260.839 310.4 263.389 306.31C265.939 302.22 271.059 300.18 266.969 310.91C262.879 321.64 256.749 319.59 262.369 312.44C267.989 305.29 274.129 290.44 274.639 298.64C275.149 306.84 273.099 316 268.999 318.58C264.899 321.16 276.659 306.83 280.239 307.85C283.819 308.87 285.349 312.96 281.769 316.03C278.189 319.1 278.189 308.87 305.279 309.89" stroke="#263238" stroke-linecap="round" stroke-linejoin="round"/>
<path d="M300.859 298.051L315.859 310.051C316.023 310.185 316.136 310.371 316.179 310.578C316.223 310.785 316.194 311.001 316.099 311.19C316.003 311.378 315.846 311.529 315.654 311.617C315.461 311.704 315.244 311.723 315.039 311.671L296.039 306.741L300.859 298.051Z" fill="white" stroke="#263238" stroke-linecap="round" stroke-linejoin="round"/>
<path d="M298.43 293.38L210.79 241.49L201 258.15L291.74 307.3C291.964 307.457 292.206 307.588 292.46 307.69C295.46 308.95 299.25 306.77 300.9 302.81C302.55 298.85 301.44 294.63 298.43 293.38Z" fill="#8C8C8C" stroke="#263238" stroke-linecap="round" stroke-linejoin="round"/>
<path d="M213.1 252.121C210.54 258.251 204.68 261.641 200.01 259.691C199.561 259.499 199.133 259.265 198.73 258.991L108.9 208.931L101.58 204.841L100.68 204.351L100.91 203.801L111.21 179.141L111.65 178.141L112.84 178.861L123.1 185.111L209.28 237.531C214 239.441 215.66 246.001 213.1 252.121Z" fill="white" stroke="#263238" stroke-linecap="round" stroke-linejoin="round"/>
<path d="M208.42 237L123.1 185.1L112.84 178.85L111.65 178.13L111.21 179.13L100.91 203.79L100.68 204.34L101.58 204.83L108.9 208.92L196.67 257.83C201.35 259.22 206.91 255.83 209.41 249.83C211.41 245 210.88 240 208.42 237Z" fill="#8C8C8C" stroke="#263238" stroke-linecap="round" stroke-linejoin="round"/>
<path d="M108.898 208.931C114.228 209.151 119.898 205.011 122.678 198.411C124.577 194.191 124.728 189.391 123.098 185.061L112.838 178.811C112.288 178.881 111.743 178.991 111.208 179.141C106.978 180.331 102.938 184.021 100.758 189.251C98.5781 194.481 98.7581 199.961 100.908 203.801C101.107 204.149 101.331 204.484 101.578 204.801" fill="white"/>
<path d="M108.898 208.931C114.228 209.151 119.898 205.011 122.678 198.411C124.577 194.191 124.728 189.391 123.098 185.061L112.838 178.811C112.288 178.881 111.743 178.991 111.208 179.141C106.978 180.331 102.938 184.021 100.758 189.251C98.5781 194.481 98.7581 199.961 100.908 203.801C101.107 204.149 101.331 204.484 101.578 204.801" stroke="#263238" stroke-linecap="round" stroke-linejoin="round"/>
<path d="M116.9 193.82L183.54 237.19C183.944 237.462 184.236 237.872 184.359 238.344C184.482 238.815 184.429 239.315 184.21 239.75C184.083 239.984 183.91 240.19 183.702 240.357C183.494 240.523 183.255 240.646 182.999 240.718C182.743 240.791 182.475 240.812 182.211 240.78C181.946 240.747 181.691 240.663 181.46 240.53L112.91 200L116.9 193.82Z" fill="white" stroke="#263238" stroke-linecap="round" stroke-linejoin="round"/>
<path d="M116.171 195.4C113.171 202.65 106.171 206.66 100.681 204.35C95.1913 202.04 93.1413 194.29 96.1613 187C99.1813 179.71 106.161 175.74 111.651 178.05C117.141 180.36 119.201 188.15 116.171 195.4Z" fill="#8C8C8C" stroke="#263238" stroke-linecap="round" stroke-linejoin="round"/>
<path d="M113.998 194.5C111.628 200.18 106.188 203.33 101.858 201.5C97.528 199.67 82.638 185.43 84.998 179.75C87.358 174.07 106.118 179.11 110.448 180.92C114.778 182.73 116.388 188.81 113.998 194.5Z" fill="white" stroke="#263238" stroke-linecap="round" stroke-linejoin="round"/>
<path d="M254.329 288.78L259.739 286.26C260.97 286.205 262.182 286.587 263.159 287.34C264.779 288.6 267.839 290.58 267.839 290.58C267.839 290.58 273.959 290.94 274.139 291.84C274.319 292.74 270.539 293.84 269.999 293.84H265.999C265.999 293.84 271.579 296.73 272.119 297.09C272.659 297.45 280.409 299.79 279.329 300.51C278.249 301.23 271.039 301.05 269.419 301.41C267.811 301.657 266.186 301.778 264.559 301.77L258.439 296.19L254.109 291.5C254.109 291.5 252.709 289.86 254.329 288.78Z" fill="white" stroke="#263238" stroke-linecap="round" stroke-linejoin="round"/>
<path d="M118.538 224.13C118.538 224.13 118.178 219.26 118.178 216.92C118.178 214.58 116.918 210.08 116.378 209.72C115.838 209.36 110.258 207.2 108.638 205.72C107.018 204.24 105.028 206.26 105.748 207.52C106.468 208.78 110.618 211.12 110.618 211.12L109.538 212.74L105.538 209.32C105.538 209.32 101.398 202.84 100.318 203.38C99.2383 203.92 99.5983 204.82 100.318 206.08C101.038 207.34 100.678 215.44 102.658 217.08C104.638 218.72 110.588 220.69 110.588 220.69L111.128 225.19C111.128 225.19 116.708 225.55 117.428 225.73C118.148 225.91 118.538 224.13 118.538 224.13Z" fill="white" stroke="#263238" stroke-linecap="round" stroke-linejoin="round"/>
<path d="M106.648 231L107.368 226.14C107.368 226.14 107.188 224.52 111.368 223.8C113.764 223.355 116.23 223.478 118.568 224.16C118.824 224.261 119.046 224.433 119.205 224.657C119.365 224.88 119.456 225.146 119.468 225.42C119.436 227.172 119.256 228.919 118.928 230.64C118.928 230.64 112.418 228.09 106.648 231Z" fill="white" stroke="#263238" stroke-linecap="round" stroke-linejoin="round"/>
<path d="M178.891 470V483C178.891 483 181.891 484.51 190.641 484.51C198.474 484.337 206.219 482.808 213.531 479.99C217.741 478.19 219.251 474.27 217.741 473.67C216.231 473.07 208.741 472.76 207.201 471.56C205.661 470.36 199.371 466.44 199.371 466.44C199.371 466.44 184.311 470.91 178.891 470Z" fill="#92E3A9" stroke="#263238" stroke-linecap="round" stroke-linejoin="round"/>
<path d="M218.291 474.811C211.966 477.778 205.219 479.748 198.291 480.651C187.891 481.991 181.481 480.841 178.871 480.161V483.001C178.871 483.001 181.871 484.511 190.621 484.511C198.455 484.337 206.199 482.808 213.511 479.991C216.551 478.651 218.171 476.271 218.291 474.811Z" fill="white" stroke="#263238" stroke-linecap="round" stroke-linejoin="round"/>
<path d="M183.408 345.63L184.918 349.85C184.918 349.85 191.238 361.85 195.758 370.63C200.278 379.41 205.088 398.03 206.598 399.84C208.108 401.65 207.798 404.05 206.898 406.76C205.998 409.47 198.768 456.76 198.768 457.96C198.768 459.16 198.168 459.16 199.068 460.67C199.968 462.18 200.278 466.99 200.278 466.99C198.296 468.908 195.772 470.172 193.048 470.61C188.228 471.51 178.888 471.51 178.888 471.51C178.888 471.51 177.688 465.79 177.988 464.89C178.288 463.99 179.198 458.26 179.198 458.26C179.198 458.26 182.198 443.5 181.598 435.98C180.998 428.46 182.508 411.58 183.108 409.78C183.525 407.808 183.726 405.796 183.708 403.78L181.908 400.47V398C181.908 398 167.448 383.24 161.728 377.52C156.008 371.8 150.288 364.87 150.288 364.87C150.288 364.87 143.658 394.39 141.848 400.71C140.038 407.03 139.138 409.71 137.938 411.55C136.738 413.39 124.388 429.62 119.868 436.25C115.348 442.88 108.428 454.62 108.428 454.62C108.41 456.332 108.511 458.043 108.728 459.74C109.028 460.94 105.728 465.46 105.728 465.46L104.518 466.66C104.518 466.66 97.2884 459.43 94.5784 458.83C91.8684 458.23 86.1484 459.13 86.1484 459.13C86.1484 459.13 89.7684 449.2 90.6684 447.13C91.5684 445.06 99.9984 423.64 102.408 419.42C104.818 415.2 106.628 406.77 110.848 403.42C115.068 400.07 119.848 396.19 119.848 396.19L119.248 362.47L118.648 353.13C118.057 350.765 117.752 348.338 117.738 345.9V339.9C117.738 339.9 145.148 346.22 158.738 345.62C172.328 345.02 180.418 341.41 180.418 341.41L183.408 345.63Z" fill="#263238" stroke="#263238" stroke-linecap="round" stroke-linejoin="round"/>
<path d="M190.941 251.5C190.941 251.5 175.271 244.66 166.991 244.66C158.711 244.66 154.201 244.84 145.371 245.2C136.541 245.56 131.371 248.26 131.371 248.26L118.371 252.58L119.441 229C116.805 228.274 114.05 228.09 111.341 228.46C109.051 228.886 106.953 230.019 105.341 231.7C105.341 231.7 100.481 263.76 100.661 266.64C100.841 269.52 104.661 270.06 104.661 270.06L134.021 269.52L131.861 302.3L109.861 340.48C109.861 340.48 110.041 346.42 128.051 352.37C146.061 358.32 168.211 356.37 175.051 354.53C181.891 352.69 192.841 344.63 193.741 343.37C194.641 342.11 193.741 335.62 193.741 332.92C193.741 330.22 189.241 304.64 189.961 303.38C190.681 302.12 194.641 285.19 194.641 285.19C194.641 285.19 231.201 308.96 233.361 308.6C235.521 308.24 257.491 297.44 258.041 297.08C258.591 296.72 260.041 294.74 257.861 291.49C257.058 290.37 256.011 289.447 254.798 288.792C253.585 288.137 252.238 287.767 250.861 287.71C249.781 287.71 235.011 288.97 235.011 288.97C235.011 288.97 216.511 272.57 216.001 271.67C215.491 270.77 212.581 263.21 211.321 261.23C210.061 259.25 190.941 251.5 190.941 251.5Z" fill="#92E3A9" stroke="#263238" stroke-linecap="round" stroke-linejoin="round"/>
<path d="M235.059 289C235.059 289 240.979 292.37 242.159 294.44L235.059 289Z" fill="#92E3A9"/>
<path d="M235.059 289C235.059 289 240.979 292.37 242.159 294.44" stroke="#263238" stroke-linecap="round" stroke-linejoin="round"/>
<path d="M211.289 261.23C211.289 261.23 205.879 261.66 200.289 267.56L211.289 261.23Z" fill="#92E3A9"/>
<path d="M211.289 261.23C211.289 261.23 205.879 261.66 200.289 267.56" stroke="#263238" stroke-linecap="round" stroke-linejoin="round"/>
<path d="M199.1 263.73C197.468 264.643 196.063 265.914 194.991 267.446C193.919 268.979 193.208 270.734 192.91 272.58" fill="#92E3A9"/>
<path d="M199.1 263.73C197.468 264.643 196.063 265.914 194.991 267.446C193.919 268.979 193.208 270.734 192.91 272.58" stroke="#263238" stroke-linecap="round" stroke-linejoin="round"/>
<path d="M134.028 269.51L133.488 256L134.028 269.51Z" stroke="#263238" stroke-linecap="round" stroke-linejoin="round"/>
<path d="M186.188 290.97L194.718 285.18L180.848 289.5" stroke="#263238" stroke-linecap="round" stroke-linejoin="round"/>
<path d="M180.129 295.09L183.079 293.09" stroke="#263238" stroke-linecap="round" stroke-linejoin="round"/>
<path d="M179.288 253.551C175.958 254.743 172.884 256.555 170.228 258.891C163.228 265.191 159.418 264.651 159.418 264.651" stroke="#263238" stroke-linecap="round" stroke-linejoin="round"/>
<path d="M186.258 251.86C185.187 251.972 184.125 252.156 183.078 252.41" stroke="#263238" stroke-linecap="round" stroke-linejoin="round"/>
<path d="M169.148 256.36C169.148 256.36 163.378 261.77 157.258 264.29" stroke="#263238" stroke-linecap="round" stroke-linejoin="round"/>
<path d="M105.719 255.84C105.129 256.55 104.779 257.429 104.719 258.35" stroke="#263238" stroke-linecap="round" stroke-linejoin="round"/>
<path d="M118.36 252.58L115.84 252.76C115.84 252.76 112.6 251.32 110.98 251.5C109.843 251.869 108.813 252.511 107.98 253.37" stroke="#263238" stroke-linecap="round" stroke-linejoin="round"/>
<path d="M107.37 251.86C107.37 251.86 104.13 253.12 103.59 256" stroke="#263238" stroke-linecap="round" stroke-linejoin="round"/>
<path d="M190.001 303.37C190.001 303.37 187.451 320.67 186.311 326.01C185.171 331.35 183.641 344.5 183.641 344.5C185.548 343.775 187.53 343.265 189.551 342.98C192.551 342.6 193.741 343.36 193.741 343.36C193.741 343.36 196.031 337.83 193.741 328.29C191.451 318.75 190.001 303.37 190.001 303.37Z" fill="#92E3A9" stroke="#263238" stroke-linecap="round" stroke-linejoin="round"/>
<path d="M104.511 466.69C104.511 466.69 105.721 472.41 106.921 473.02C108.121 473.63 113.851 474.82 114.451 476.33C115.051 477.84 109.031 480.54 105.111 481.15C101.191 481.76 94.2714 480.24 93.3714 479.64C92.4714 479.04 90.3714 476.03 87.6514 475.12C84.9314 474.21 81.6514 473.02 82.2314 469.4C82.8114 465.78 86.1414 459.16 86.1414 459.16C90.1824 457.923 94.5153 458.029 98.4914 459.46C105.111 461.87 104.511 466.69 104.511 466.69Z" fill="#92E3A9" stroke="#263238" stroke-linecap="round" stroke-linejoin="round"/>
<path d="M105.11 481.15C109.03 480.54 115.05 477.83 114.45 476.33C114.386 476.192 114.298 476.067 114.19 475.96C111.26 476.96 107.66 477.51 104.35 475.68C100.29 473.42 98.9295 468.45 93.5095 466.68C90.3595 465.63 86.1395 465.81 83.1595 466.13C82.7571 467.206 82.446 468.313 82.2295 469.44C81.6195 473.06 84.9395 474.26 87.6495 475.16C90.3595 476.06 92.4695 479.08 93.3695 479.68C94.2695 480.28 101.2 481.75 105.11 481.15Z" fill="white" stroke="#263238" stroke-linecap="round" stroke-linejoin="round"/>
<path d="M103.308 479C99.9877 477.49 96.9777 473.58 92.1577 470.57C87.7577 467.81 83.1577 470.84 82.3477 471.38C83.0377 473.48 85.5177 474.38 87.6477 475.08C90.3577 475.99 92.4677 479 93.3677 479.6C94.2677 480.2 101.198 481.71 105.108 481.11C105.905 480.979 106.693 480.798 107.468 480.57C106.052 480.126 104.663 479.602 103.308 479Z" fill="#263238" stroke="#263238" stroke-linecap="round" stroke-linejoin="round"/>
<path d="M193.998 246.641L188.598 250.421C188.598 250.421 181.598 245.741 176.708 244.841C171.818 243.941 169.328 243.761 169.328 243.761L173.108 237.091C175.872 235.099 177.999 232.348 179.228 229.171C180.848 224.311 182.468 222.331 186.078 224.171C189.688 226.011 191.078 233.171 191.078 237.671C191.078 242.171 193.998 246.641 193.998 246.641Z" fill="white" stroke="#263238" stroke-linecap="round" stroke-linejoin="round"/>
<path d="M197.06 213.5C197.06 213.5 200.12 218 200.48 219.63C200.84 221.26 199.22 224.49 199.22 224.49C199.22 224.49 202.83 229.71 203.01 230.97C203.19 232.23 200.84 234.57 200.84 234.57C200.84 234.57 201.38 239.8 202.11 241.06C202.84 242.32 203.55 244.12 202.65 245.74C201.75 247.36 200.48 248.44 196.65 248.98C192.82 249.52 189.81 247.72 189.09 243.98C188.37 240.24 188.37 232.09 187.83 230.98C187.29 229.87 184.77 227.38 183.51 229.36C182.25 231.34 183.15 233.36 184.05 235.12C184.601 236.206 185.484 237.089 186.57 237.64L182.57 239.64C180.177 240.675 177.49 240.803 175.01 240C174.125 239.665 173.317 239.157 172.63 238.506C171.943 237.856 171.393 237.075 171.01 236.21C170.83 235.67 169.01 231.21 168.49 230.27C167.97 229.33 164.16 223.97 163.98 217.66C163.8 211.35 171.37 204.16 181.09 202.18C190.81 200.2 195.32 204.52 197.48 204.7C199.64 204.88 197.48 202.9 199.28 204.16C201.08 205.42 201.56 212.42 197.06 213.5Z" fill="white" stroke="#263238" stroke-linecap="round" stroke-linejoin="round"/>
<path d="M200.841 234.57C200.841 234.57 201.041 234.37 201.321 234.06C200.591 234.16 198.401 234.46 197.061 234.75C195.441 235.11 194.721 239.98 193.281 238.75C191.841 237.52 191.121 226.86 190.761 226.32C190.401 225.78 192.001 224 192.001 224C192.001 224 194.521 220.58 194.521 219.13C194.521 217.68 192.001 216.07 192.901 215.71C193.801 215.35 197.041 213.55 197.041 213.55C201.541 212.47 201.181 205.45 199.381 204.19C197.581 202.93 199.741 204.91 197.581 204.73C195.421 204.55 190.921 200.22 181.191 202.21C171.461 204.2 163.901 211.39 164.081 217.69C164.261 223.99 168.081 229.4 168.591 230.3C169.101 231.2 170.931 235.7 171.111 236.24C171.494 237.105 172.045 237.886 172.731 238.536C173.418 239.187 174.227 239.695 175.111 240.03C177.591 240.833 180.279 240.705 182.671 239.67L186.671 237.67C185.585 237.119 184.703 236.236 184.151 235.15C183.251 233.35 182.341 231.37 183.611 229.39C184.881 227.41 187.391 229.93 187.931 231.01C188.471 232.09 188.471 240.2 189.191 244.01C189.911 247.82 192.971 249.59 196.751 249.01C200.531 248.43 201.751 247.39 202.751 245.77C203.751 244.15 202.931 242.35 202.211 241.09C201.491 239.83 200.841 234.57 200.841 234.57Z" fill="#263238" stroke="#263238" stroke-linecap="round" stroke-linejoin="round"/>
<path d="M199.938 221.25C199.452 221.246 198.975 221.38 198.561 221.634C198.147 221.889 197.813 222.255 197.598 222.69" stroke="#263238" stroke-linecap="round" stroke-linejoin="round"/>
<path d="M198.501 227.37C198.899 227.37 199.221 226.484 199.221 225.39C199.221 224.297 198.899 223.41 198.501 223.41C198.104 223.41 197.781 224.297 197.781 225.39C197.781 226.484 198.104 227.37 198.501 227.37Z" fill="#263238"/>
<path d="M201.199 239.08C201.199 239.08 198.139 240.16 196.879 237.99" stroke="white" stroke-linecap="round" stroke-linejoin="round"/>
<path d="M167.001 244.66C175.281 244.66 190.951 251.5 190.951 251.5L191.551 251.75C191.391 250.94 191.049 250.177 190.551 249.52C190.011 249.16 187.131 245.02 181.721 242.86C178.178 241.394 174.394 240.6 170.561 240.52C169.291 240.52 165.661 243.86 164.801 244.66H167.001Z" fill="#92E3A9" stroke="#263238" stroke-linecap="round" stroke-linejoin="round"/>
</svg>
