<svg width="500" height="500" viewBox="0 0 500 500" fill="none" xmlns="http://www.w3.org/2000/svg">
<path d="M464.858 297.93C450.128 337.36 420.048 380.04 377.718 392.68C313.718 411.78 306.118 463.33 191.558 458.55C174.824 457.929 158.207 455.495 141.998 451.29C134.079 449.2 126.3 446.611 118.708 443.54C51.7981 416.43 16.8881 356.77 13.9981 294.35C10.1781 212.24 67.4581 173.11 104.688 150.2C141.918 127.29 186.788 38.49 299.438 42.31C316.641 42.8262 333.727 45.3226 350.358 49.75C388.268 60.01 426.798 82.75 449.198 115.87C450.878 118.357 452.485 120.903 454.018 123.51C483.998 174.36 484.928 244.17 464.858 297.93Z" fill="#92E3A9"/>
<path opacity="0.7" d="M464.858 297.93C450.128 337.36 420.048 380.04 377.718 392.68C313.718 411.78 306.118 463.33 191.558 458.55C174.824 457.929 158.207 455.495 141.998 451.29C134.079 449.2 126.3 446.611 118.708 443.54C51.7981 416.43 16.8881 356.77 13.9981 294.35C10.1781 212.24 67.4581 173.11 104.688 150.2C141.918 127.29 186.788 38.49 299.438 42.31C316.641 42.8262 333.727 45.3226 350.358 49.75C388.268 60.01 426.798 82.75 449.198 115.87C450.878 118.357 452.485 120.903 454.018 123.51C483.998 174.36 484.928 244.17 464.858 297.93Z" fill="white"/>
<g opacity="0.2">
<path d="M201.48 42H91V352.86H201.48V42Z" stroke="black" stroke-miterlimit="10" stroke-linecap="round"/>
<path d="M91.5898 51.4502H201.26L198.68 42.9102" stroke="black" stroke-miterlimit="10" stroke-linecap="round"/>
<path d="M91.5898 61.7998H201.26L198.68 53.2598" stroke="black" stroke-miterlimit="10" stroke-linecap="round"/>
<path d="M91.5898 72.1496H201.26L198.68 63.5996" stroke="black" stroke-miterlimit="10" stroke-linecap="round"/>
<path d="M91.5898 82.5002H201.26L198.68 73.9502" stroke="black" stroke-miterlimit="10" stroke-linecap="round"/>
<path d="M91.5898 92.8498H201.26L198.68 84.2998" stroke="black" stroke-miterlimit="10" stroke-linecap="round"/>
<path d="M91.5898 103.2H201.26L198.68 94.6504" stroke="black" stroke-miterlimit="10" stroke-linecap="round"/>
<path d="M91.5898 113.55H201.26L198.68 105" stroke="black" stroke-miterlimit="10" stroke-linecap="round"/>
<path d="M91.5898 123.9H201.26L198.68 115.35" stroke="black" stroke-miterlimit="10" stroke-linecap="round"/>
<path d="M91.5898 134.25H201.26L198.68 125.7" stroke="black" stroke-miterlimit="10" stroke-linecap="round"/>
<path d="M91.5898 144.6H201.26L198.68 136.05" stroke="black" stroke-miterlimit="10" stroke-linecap="round"/>
<path d="M91.5898 154.95H201.26L198.68 146.4" stroke="black" stroke-miterlimit="10" stroke-linecap="round"/>
<path d="M91.5898 165.3H201.26L198.68 156.75" stroke="black" stroke-miterlimit="10" stroke-linecap="round"/>
<path d="M91.5898 175.65H201.26L198.68 167.1" stroke="black" stroke-miterlimit="10" stroke-linecap="round"/>
<path d="M91.5898 186H201.26L198.68 177.45" stroke="black" stroke-miterlimit="10" stroke-linecap="round"/>
<path d="M91.5898 196.34H201.26L198.68 187.8" stroke="black" stroke-miterlimit="10" stroke-linecap="round"/>
<path d="M91.5898 206.69H201.26L198.68 198.15" stroke="black" stroke-miterlimit="10" stroke-linecap="round"/>
<path d="M91.5898 217.04H201.26L198.68 208.5" stroke="black" stroke-miterlimit="10" stroke-linecap="round"/>
<path d="M91.5898 227.39H201.26L198.68 218.85" stroke="black" stroke-miterlimit="10" stroke-linecap="round"/>
<path d="M91.5898 237.74H201.26L198.68 229.2" stroke="black" stroke-miterlimit="10" stroke-linecap="round"/>
<path d="M91.5898 248.09H201.26L198.68 239.55" stroke="black" stroke-miterlimit="10" stroke-linecap="round"/>
<path d="M91.5898 258.44H201.26L198.68 249.9" stroke="black" stroke-miterlimit="10" stroke-linecap="round"/>
<path d="M91.5898 268.79H201.26L198.68 260.25" stroke="black" stroke-miterlimit="10" stroke-linecap="round"/>
<path d="M91.5898 279.14H201.26L198.68 270.59" stroke="black" stroke-miterlimit="10" stroke-linecap="round"/>
<path d="M91.5898 289.49H201.26L198.68 280.94" stroke="black" stroke-miterlimit="10" stroke-linecap="round"/>
<path d="M91.5898 299.84H201.26L198.68 291.29" stroke="black" stroke-miterlimit="10" stroke-linecap="round"/>
<path d="M91.5898 310.19H201.26L198.68 301.64" stroke="black" stroke-miterlimit="10" stroke-linecap="round"/>
<path d="M91.5898 320.54H201.26L198.68 311.99" stroke="black" stroke-miterlimit="10" stroke-linecap="round"/>
<path d="M91.5898 330.89H201.26L198.68 322.34" stroke="black" stroke-miterlimit="10" stroke-linecap="round"/>
<path d="M91.5898 341.24H201.26L198.68 332.69" stroke="black" stroke-miterlimit="10" stroke-linecap="round"/>
</g>
<g opacity="0.2">
<path d="M320.277 42H209.797V352.86H320.277V42Z" stroke="black" stroke-miterlimit="10" stroke-linecap="round"/>
<path d="M210.387 51.4502H320.057L317.487 42.9102" stroke="black" stroke-miterlimit="10" stroke-linecap="round"/>
<path d="M210.387 61.7998H320.057L317.487 53.2598" stroke="black" stroke-miterlimit="10" stroke-linecap="round"/>
<path d="M210.387 72.1496H320.057L317.487 63.5996" stroke="black" stroke-miterlimit="10" stroke-linecap="round"/>
<path d="M210.387 82.5002H320.057L317.487 73.9502" stroke="black" stroke-miterlimit="10" stroke-linecap="round"/>
<path d="M210.387 92.8498H320.057L317.487 84.2998" stroke="black" stroke-miterlimit="10" stroke-linecap="round"/>
<path d="M210.387 103.2H320.057L317.487 94.6504" stroke="black" stroke-miterlimit="10" stroke-linecap="round"/>
<path d="M210.387 113.55H320.057L317.487 105" stroke="black" stroke-miterlimit="10" stroke-linecap="round"/>
<path d="M210.387 123.9H320.057L317.487 115.35" stroke="black" stroke-miterlimit="10" stroke-linecap="round"/>
<path d="M210.387 134.25H320.057L317.487 125.7" stroke="black" stroke-miterlimit="10" stroke-linecap="round"/>
<path d="M210.387 144.6H320.057L317.487 136.05" stroke="black" stroke-miterlimit="10" stroke-linecap="round"/>
<path d="M210.387 154.95H320.057L317.487 146.4" stroke="black" stroke-miterlimit="10" stroke-linecap="round"/>
<path d="M210.387 165.3H320.057L317.487 156.75" stroke="black" stroke-miterlimit="10" stroke-linecap="round"/>
<path d="M210.387 175.65H320.057L317.487 167.1" stroke="black" stroke-miterlimit="10" stroke-linecap="round"/>
<path d="M210.387 186H320.057L317.487 177.45" stroke="black" stroke-miterlimit="10" stroke-linecap="round"/>
<path d="M210.387 196.34H320.057L317.487 187.8" stroke="black" stroke-miterlimit="10" stroke-linecap="round"/>
<path d="M210.387 206.69H320.057L317.487 198.15" stroke="black" stroke-miterlimit="10" stroke-linecap="round"/>
<path d="M210.387 217.04H320.057L317.487 208.5" stroke="black" stroke-miterlimit="10" stroke-linecap="round"/>
<path d="M210.387 227.39H320.057L317.487 218.85" stroke="black" stroke-miterlimit="10" stroke-linecap="round"/>
<path d="M210.387 237.74H320.057L317.487 229.2" stroke="black" stroke-miterlimit="10" stroke-linecap="round"/>
<path d="M210.387 248.09H320.057L317.487 239.55" stroke="black" stroke-miterlimit="10" stroke-linecap="round"/>
<path d="M210.387 258.44H320.057L317.487 249.9" stroke="black" stroke-miterlimit="10" stroke-linecap="round"/>
<path d="M210.387 268.79H320.057L317.487 260.25" stroke="black" stroke-miterlimit="10" stroke-linecap="round"/>
<path d="M210.387 279.14H320.057L317.487 270.59" stroke="black" stroke-miterlimit="10" stroke-linecap="round"/>
<path d="M210.387 289.49H320.057L317.487 280.94" stroke="black" stroke-miterlimit="10" stroke-linecap="round"/>
<path d="M210.387 299.84H320.057L317.487 291.29" stroke="black" stroke-miterlimit="10" stroke-linecap="round"/>
<path d="M210.387 310.19H320.057L317.487 301.64" stroke="black" stroke-miterlimit="10" stroke-linecap="round"/>
<path d="M210.387 320.54H320.057L317.487 311.99" stroke="black" stroke-miterlimit="10" stroke-linecap="round"/>
<path d="M210.387 330.89H320.057L317.487 322.34" stroke="black" stroke-miterlimit="10" stroke-linecap="round"/>
<path d="M210.387 341.24H320.057L317.487 332.69" stroke="black" stroke-miterlimit="10" stroke-linecap="round"/>
</g>
<g opacity="0.3">
<path d="M41.6719 61.6699H23.6719V79.6699H41.6719V61.6699Z" stroke="black" stroke-miterlimit="10" stroke-linecap="round"/>
<path d="M41.6719 92.3301H23.6719V110.33H41.6719V92.3301Z" stroke="black" stroke-miterlimit="10" stroke-linecap="round"/>
<path d="M48.332 71H75.672" stroke="black" stroke-miterlimit="10" stroke-linecap="round"/>
<path d="M48.332 101H75.672" stroke="black" stroke-miterlimit="10" stroke-linecap="round"/>
<path d="M27.6719 67.0001L30.3319 72.3301L42.3319 54.3301" stroke="black" stroke-miterlimit="10" stroke-linecap="round"/>
</g>
<g opacity="0.3">
<path d="M307.672 420.67H289.672V438.67H307.672V420.67Z" stroke="black" stroke-miterlimit="10" stroke-linecap="round"/>
<path d="M307.672 451.33H289.672V469.33H307.672V451.33Z" stroke="black" stroke-miterlimit="10" stroke-linecap="round"/>
<path d="M314.332 430H341.672" stroke="black" stroke-miterlimit="10" stroke-linecap="round"/>
<path d="M314.332 460H341.672" stroke="black" stroke-miterlimit="10" stroke-linecap="round"/>
<path d="M293.672 426L296.332 431.33L308.332 413.33" stroke="black" stroke-miterlimit="10" stroke-linecap="round"/>
</g>
<g opacity="0.3">
<path d="M368 52H350V70H368V52Z" stroke="black" stroke-miterlimit="10" stroke-linecap="round"/>
<path d="M368 82.6699H350V100.67H368V82.6699Z" stroke="black" stroke-miterlimit="10" stroke-linecap="round"/>
<path d="M374.672 61.3301H402.002" stroke="black" stroke-miterlimit="10" stroke-linecap="round"/>
<path d="M374.672 91.3301H402.002" stroke="black" stroke-miterlimit="10" stroke-linecap="round"/>
<path d="M354 57.3299L356.67 62.6699L368.67 44.6699" stroke="black" stroke-miterlimit="10" stroke-linecap="round"/>
</g>
<path d="M470.52 448.86H485.4" stroke="#263238" stroke-linecap="round" stroke-linejoin="round"/>
<path d="M25 448.86H463.59" stroke="#263238" stroke-linecap="round" stroke-linejoin="round"/>
<path d="M79.5094 381.75C85.9435 381.75 91.1594 368.073 91.1594 351.2C91.1594 334.328 85.9435 320.65 79.5094 320.65C73.0753 320.65 67.8594 334.328 67.8594 351.2C67.8594 368.073 73.0753 381.75 79.5094 381.75Z" fill="#92E3A9" stroke="#263238" stroke-miterlimit="10"/>
<path d="M115.706 332.384C119.347 320.925 118.254 310.351 113.265 308.765C108.275 307.179 101.278 315.183 97.6364 326.641C93.995 338.1 95.0879 348.674 100.078 350.26C105.067 351.846 112.064 343.842 115.706 332.384Z" fill="#92E3A9" stroke="#263238" stroke-miterlimit="10"/>
<path d="M30.2408 401.46C18.3808 399.46 9.4808 393.64 10.3608 388.46C11.2408 383.28 21.5508 380.74 33.3608 382.75C45.1708 384.76 54.1208 390.57 53.2508 395.75C52.3808 400.93 42.0908 403.46 30.2408 401.46Z" fill="#92E3A9" stroke="#263238" stroke-miterlimit="10"/>
<path d="M126.656 373.23C136.558 363.41 140.912 351.747 136.382 347.178C131.851 342.609 120.151 346.866 110.249 356.685C100.347 366.505 95.993 378.168 100.524 382.737C105.054 387.306 116.754 383.049 126.656 373.23Z" fill="#92E3A9" stroke="#263238" stroke-miterlimit="10"/>
<path d="M58.4301 346.28C68.0001 360.17 70.8601 374.82 64.8101 379C58.7601 383.18 46.0801 375.29 36.5101 361.4C26.9401 347.51 24.0801 332.87 30.1301 328.69C36.1801 324.51 48.8601 332.39 58.4301 346.28Z" fill="#92E3A9" stroke="#263238" stroke-miterlimit="10"/>
<path d="M80.332 380.22L81.232 422.22" stroke="#263238" stroke-miterlimit="10" stroke-linecap="round"/>
<path d="M79.2422 339.84L80.3322 380.22" stroke="#263238" stroke-miterlimit="10" stroke-linecap="round"/>
<path d="M79.3222 333.25L79.2422 336.34" stroke="#263238" stroke-miterlimit="10" stroke-linecap="round"/>
<path d="M64.7617 377C71.4411 390.8 75.3514 405.776 76.2717 421.08" stroke="#263238" stroke-miterlimit="10" stroke-linecap="round"/>
<path d="M44.7617 346.4C52.7559 355.668 59.4815 365.959 64.7617 377" stroke="#263238" stroke-miterlimit="10" stroke-linecap="round"/>
<path d="M38.4609 339.74C38.4609 339.74 39.6709 340.84 41.6509 342.95" stroke="#263238" stroke-miterlimit="10" stroke-linecap="round"/>
<path d="M101.259 381.32C93.0873 392.772 86.7199 405.409 82.3789 418.79" stroke="#263238" stroke-miterlimit="10" stroke-linecap="round"/>
<path d="M114.662 365.92C109.726 370.625 105.24 375.781 101.262 381.32" stroke="#263238" stroke-miterlimit="10" stroke-linecap="round"/>
<path d="M129.001 355C125.36 357.051 121.942 359.474 118.801 362.23" stroke="#263238" stroke-miterlimit="10" stroke-linecap="round"/>
<path d="M100.769 347.4C94.3094 367.7 85.6494 397.71 81.6094 423.75" stroke="#263238" stroke-miterlimit="10" stroke-linecap="round"/>
<path d="M104.7 335.35C103.55 338.78 102.21 342.84 100.77 347.35" stroke="#263238" stroke-miterlimit="10" stroke-linecap="round"/>
<path d="M108.721 323.7C108.721 323.7 107.601 326.81 105.781 332.14" stroke="#263238" stroke-miterlimit="10" stroke-linecap="round"/>
<path d="M52.6914 392.939C60.7514 395.989 68.6214 401.889 72.4514 413.059" stroke="#263238" stroke-miterlimit="10" stroke-linecap="round"/>
<path d="M37.8008 389.91C42.8869 390.155 47.9069 391.166 52.6908 392.91" stroke="#263238" stroke-miterlimit="10" stroke-linecap="round"/>
<path d="M28.1523 390.15C28.1523 390.15 29.5923 389.94 31.9523 389.85" stroke="#263238" stroke-miterlimit="10" stroke-linecap="round"/>
<path d="M131.69 401.46C143.55 399.46 152.45 393.64 151.57 388.46C150.69 383.28 140.38 380.74 128.57 382.75C116.76 384.76 107.81 390.57 108.68 395.75C109.55 400.93 119.84 403.46 131.69 401.46Z" fill="#92E3A9" stroke="#263238" stroke-miterlimit="10"/>
<path d="M109.5 392.84C101.35 395.84 93.35 401.77 89.5 413.06" stroke="#263238" stroke-miterlimit="10" stroke-linecap="round"/>
<path d="M125.38 389.85C119.962 390.01 114.603 391.022 109.5 392.85" stroke="#263238" stroke-miterlimit="10" stroke-linecap="round"/>
<path d="M133.781 390.15C133.781 390.15 132.841 390.01 131.211 389.91" stroke="#263238" stroke-miterlimit="10" stroke-linecap="round"/>
<path d="M109.33 448.75C112.901 441.25 114.779 433.057 114.83 424.75C114.841 419.764 114.099 414.805 112.63 410.04H50.6298C49.1605 414.805 48.4188 419.764 48.4298 424.75C48.479 433.058 50.3603 441.253 53.9398 448.75H109.33Z" fill="#263238"/>
<path d="M48.9998 416.88C48.8198 418.01 48.6898 419.15 48.5898 420.31H114.64C114.54 419.15 114.4 418.01 114.22 416.88H48.9998Z" fill="#7A7A7A"/>
<path d="M113.93 434.44C114.14 433.3 114.32 432.16 114.46 431.01H48.7695C48.8995 432.16 49.0795 433.3 49.2895 434.44H113.93Z" fill="#7A7A7A"/>
<path d="M56.4108 424.9C56.4108 425.43 56.2533 425.949 55.9584 426.39C55.6635 426.831 55.2443 427.174 54.7541 427.377C54.2638 427.579 53.7244 427.632 53.2043 427.527C52.6841 427.423 52.2066 427.167 51.8322 426.791C51.4578 426.415 51.2033 425.937 51.1011 425.416C50.9988 424.896 51.0533 424.357 51.2577 423.867C51.462 423.378 51.8071 422.96 52.2491 422.667C52.6912 422.373 53.2103 422.218 53.7408 422.22C54.4498 422.222 55.1289 422.506 55.6294 423.008C56.1298 423.511 56.4108 424.191 56.4108 424.9Z" fill="#8C8C8C"/>
<path d="M69.7697 424.9C69.7677 425.427 69.6094 425.943 69.3148 426.38C69.0203 426.818 68.6026 427.159 68.1145 427.359C67.6265 427.56 67.0899 427.611 66.5727 427.507C66.0554 427.403 65.5806 427.148 65.2082 426.774C64.8358 426.4 64.5825 425.925 64.4803 425.407C64.3781 424.889 64.4315 424.353 64.6339 423.866C64.8363 423.378 65.1785 422.962 65.6173 422.669C66.0562 422.376 66.572 422.22 67.0997 422.22C67.4511 422.22 67.7992 422.289 68.1237 422.424C68.4483 422.559 68.7431 422.756 68.9912 423.005C69.2392 423.254 69.4357 423.55 69.5693 423.875C69.7029 424.2 69.771 424.548 69.7697 424.9Z" fill="#8C8C8C"/>
<path d="M83.1412 424.9C83.1412 425.43 82.9838 425.949 82.6889 426.39C82.394 426.831 81.9748 427.174 81.4845 427.377C80.9942 427.579 80.4549 427.632 79.9347 427.527C79.4146 427.423 78.9371 427.167 78.5627 426.791C78.1883 426.415 77.9338 425.937 77.8315 425.416C77.7293 424.896 77.7838 424.357 77.9881 423.867C78.1925 423.378 78.5376 422.96 78.9796 422.667C79.4216 422.373 79.9408 422.218 80.4713 422.22C81.1803 422.222 81.8594 422.506 82.3598 423.008C82.8603 423.511 83.1413 424.191 83.1412 424.9Z" fill="#8C8C8C"/>
<path d="M96.5001 424.9C96.4982 425.427 96.3399 425.943 96.0453 426.38C95.7507 426.818 95.333 427.159 94.845 427.359C94.3569 427.56 93.8204 427.611 93.3031 427.507C92.7859 427.403 92.3111 427.148 91.9387 426.774C91.5662 426.4 91.3129 425.925 91.2107 425.407C91.1085 424.889 91.162 424.353 91.3644 423.866C91.5667 423.378 91.909 422.962 92.3478 422.669C92.7867 422.376 93.3025 422.22 93.8301 422.22C94.1816 422.22 94.5296 422.289 94.8542 422.424C95.1788 422.559 95.4736 422.756 95.7217 423.005C95.9697 423.254 96.1662 423.55 96.2998 423.875C96.4334 424.2 96.5015 424.548 96.5001 424.9Z" fill="#8C8C8C"/>
<path d="M109.872 424.9C109.872 425.43 109.714 425.949 109.419 426.39C109.124 426.831 108.705 427.174 108.215 427.377C107.725 427.579 107.185 427.632 106.665 427.527C106.145 427.423 105.668 427.167 105.293 426.791C104.919 426.415 104.664 425.937 104.562 425.416C104.46 424.896 104.514 424.357 104.719 423.867C104.923 423.378 105.268 422.96 105.71 422.667C106.152 422.373 106.671 422.218 107.202 422.22C107.911 422.222 108.59 422.506 109.09 423.008C109.591 423.511 109.872 424.191 109.872 424.9Z" fill="#8C8C8C"/>
<path d="M468.44 84.46H234.16V415.74H468.44V84.46Z" fill="#263238"/>
<path d="M462.651 78.6699H228.371V409.95H462.651V78.6699Z" fill="white" stroke="#263238" stroke-linecap="round" stroke-linejoin="round"/>
<path d="M451.152 111.55H238.242V171.56H451.152V111.55Z" fill="white" stroke="#263238" stroke-linecap="round" stroke-linejoin="round"/>
<path d="M308.112 99.2197H238.242V111.55H308.112V99.2197Z" fill="white" stroke="#263238" stroke-linecap="round" stroke-linejoin="round"/>
<path d="M451.14 99.2197H381.27V111.55H451.14V99.2197Z" fill="white" stroke="#263238" stroke-linecap="round" stroke-linejoin="round"/>
<path d="M238.242 131.28H451.152" stroke="#263238" stroke-linecap="round" stroke-linejoin="round"/>
<path d="M238.242 150.189H451.152" stroke="#263238" stroke-linecap="round" stroke-linejoin="round"/>
<path d="M451.152 190.04H238.242V250.05H451.152V190.04Z" fill="white" stroke="#263238" stroke-linecap="round" stroke-linejoin="round"/>
<path d="M238.242 209.77H451.152" stroke="#263238" stroke-linecap="round" stroke-linejoin="round"/>
<path d="M238.242 228.68H451.152" stroke="#263238" stroke-linecap="round" stroke-linejoin="round"/>
<path d="M241.711 116.37H267.601" stroke="#263238" stroke-linecap="round" stroke-linejoin="round"/>
<path d="M373.75 116.37H399.64" stroke="#263238" stroke-linecap="round" stroke-linejoin="round"/>
<path d="M241.711 102.33H267.601" stroke="#263238" stroke-linecap="round" stroke-linejoin="round"/>
<path d="M382.359 102.33H408.249" stroke="#263238" stroke-linecap="round" stroke-linejoin="round"/>
<path d="M241.711 135.08H267.601" stroke="#263238" stroke-linecap="round" stroke-linejoin="round"/>
<path d="M241.711 155.66H267.601" stroke="#263238" stroke-linecap="round" stroke-linejoin="round"/>
<path d="M321.672 155.66H347.552" stroke="#263238" stroke-linecap="round" stroke-linejoin="round"/>
<path d="M317.5 100.15H369.27" stroke="#263238" stroke-linecap="round" stroke-linejoin="round"/>
<path d="M317.5 105.45H369.27" stroke="#263238" stroke-linecap="round" stroke-linejoin="round"/>
<path d="M312.281 166.85H324.021" stroke="#263238" stroke-linecap="round" stroke-linejoin="round"/>
<path d="M326.949 166.85H338.689" stroke="#263238" stroke-linecap="round" stroke-linejoin="round"/>
<path d="M341.621 166.85H353.361" stroke="#263238" stroke-linecap="round" stroke-linejoin="round"/>
<path d="M451.152 262.66H238.242V322.67H451.152V262.66Z" fill="white" stroke="#263238" stroke-linecap="round" stroke-linejoin="round"/>
<path d="M242.911 278.1C242.911 278.1 246.911 268.2 244.491 270.57C242.071 272.94 240.131 281.27 246.071 279.29C252.011 277.31 255.971 268.59 254.391 272.16C252.811 275.73 253.601 278.49 258.391 275.72C263.181 272.95 263.931 272.95 264.331 274.53C264.731 276.11 265.911 275.72 270.271 274.14C274.631 272.56 274.271 275.33 274.271 276.51C274.271 277.69 279.821 277.31 281.801 276.51C283.781 275.71 285.361 273.35 285.801 276.12C286.241 278.89 290.151 278.89 290.151 278.89H300.841" stroke="#92E3A9" stroke-linecap="round" stroke-linejoin="round"/>
<path d="M238.242 282.39H451.152" stroke="#263238" stroke-linecap="round" stroke-linejoin="round"/>
<path d="M238.242 301.3H451.152" stroke="#263238" stroke-linecap="round" stroke-linejoin="round"/>
<path d="M241.711 267.479H267.601" stroke="#263238" stroke-linecap="round" stroke-linejoin="round"/>
<path d="M373.75 267.479H399.64" stroke="#263238" stroke-linecap="round" stroke-linejoin="round"/>
<path d="M241.711 286.189H267.601" stroke="#263238" stroke-linecap="round" stroke-linejoin="round"/>
<path d="M241.711 306.77H267.601" stroke="#263238" stroke-linecap="round" stroke-linejoin="round"/>
<path d="M321.672 306.77H347.552" stroke="#263238" stroke-linecap="round" stroke-linejoin="round"/>
<path d="M312.281 317.96H324.021" stroke="#263238" stroke-linecap="round" stroke-linejoin="round"/>
<path d="M326.949 317.96H338.689" stroke="#263238" stroke-linecap="round" stroke-linejoin="round"/>
<path d="M341.621 317.96H353.361" stroke="#263238" stroke-linecap="round" stroke-linejoin="round"/>
<path d="M243.332 196.189H304.212" stroke="#263238" stroke-linecap="round" stroke-linejoin="round"/>
<path d="M243.332 215.99H280.742" stroke="#263238" stroke-linecap="round" stroke-linejoin="round"/>
<path d="M337.949 215.99H375.359" stroke="#263238" stroke-linecap="round" stroke-linejoin="round"/>
<path d="M396.641 240.939H434.051" stroke="#263238" stroke-linecap="round" stroke-linejoin="round"/>
<path d="M388.57 215.99H425.98" stroke="#263238" stroke-linecap="round" stroke-linejoin="round"/>
<path d="M390.03 236.53H381.23V245.33H390.03V236.53Z" stroke="#263238" stroke-linecap="round" stroke-linejoin="round"/>
<path d="M335.75 240.939H373.16" stroke="#263238" stroke-linecap="round" stroke-linejoin="round"/>
<path d="M329.152 236.53H320.352V245.33H329.152V236.53Z" stroke="#263238" stroke-linecap="round" stroke-linejoin="round"/>
<path d="M274.871 240.939H312.281" stroke="#263238" stroke-linecap="round" stroke-linejoin="round"/>
<path d="M268.261 236.53H259.461V245.33H268.261V236.53Z" stroke="#263238" stroke-linecap="round" stroke-linejoin="round"/>
<path d="M425.652 334.09H450.182" stroke="#263238" stroke-linecap="round" stroke-linejoin="round"/>
<path d="M328.293 334.09H422.493" stroke="#263238" stroke-linecap="round" stroke-linejoin="round"/>
<path d="M267.602 334.09H325.452" stroke="#263238" stroke-linecap="round" stroke-linejoin="round"/>
<path d="M239.66 334.09H265.38" stroke="#263238" stroke-linecap="round" stroke-linejoin="round"/>
<path d="M396.57 339.78H450.18" stroke="#263238" stroke-linecap="round" stroke-linejoin="round"/>
<path d="M294.152 339.78H394.042" stroke="#263238" stroke-linecap="round" stroke-linejoin="round"/>
<path d="M239.66 339.78H290.99" stroke="#263238" stroke-linecap="round" stroke-linejoin="round"/>
<path d="M410.48 345.47H450.18" stroke="#263238" stroke-linecap="round" stroke-linejoin="round"/>
<path d="M325.133 345.47H408.273" stroke="#263238" stroke-linecap="round" stroke-linejoin="round"/>
<path d="M276.449 345.47H320.699" stroke="#263238" stroke-linecap="round" stroke-linejoin="round"/>
<path d="M239.66 345.47H273.6" stroke="#263238" stroke-linecap="round" stroke-linejoin="round"/>
<path d="M432.293 351.16H450.183" stroke="#263238" stroke-linecap="round" stroke-linejoin="round"/>
<path d="M253.051 351.16H429.131" stroke="#263238" stroke-linecap="round" stroke-linejoin="round"/>
<path d="M239.66 351.16H250.53" stroke="#263238" stroke-linecap="round" stroke-linejoin="round"/>
<path d="M436.402 356.85H450.182" stroke="#263238" stroke-linecap="round" stroke-linejoin="round"/>
<path d="M392.461 356.85H433.561" stroke="#263238" stroke-linecap="round" stroke-linejoin="round"/>
<path d="M325.133 356.85H390.253" stroke="#263238" stroke-linecap="round" stroke-linejoin="round"/>
<path d="M262.223 356.85H322.603" stroke="#263238" stroke-linecap="round" stroke-linejoin="round"/>
<path d="M239.66 356.85H258.74" stroke="#263238" stroke-linecap="round" stroke-linejoin="round"/>
<path d="M425.34 362.54H450.18" stroke="#263238" stroke-linecap="round" stroke-linejoin="round"/>
<path d="M345.68 362.54H421.86" stroke="#263238" stroke-linecap="round" stroke-linejoin="round"/>
<path d="M294.152 362.54H341.572" stroke="#263238" stroke-linecap="round" stroke-linejoin="round"/>
<path d="M239.66 362.54H290.99" stroke="#263238" stroke-linecap="round" stroke-linejoin="round"/>
<path d="M388.98 368.24H450.18" stroke="#263238" stroke-linecap="round" stroke-linejoin="round"/>
<path d="M267.602 368.24H384.562" stroke="#263238" stroke-linecap="round" stroke-linejoin="round"/>
<path d="M239.66 368.24H264.12" stroke="#263238" stroke-linecap="round" stroke-linejoin="round"/>
<path d="M241.859 385.439H268.269" stroke="#263238" stroke-linecap="round" stroke-linejoin="round"/>
<path d="M372.43 385.439H398.84" stroke="#263238" stroke-linecap="round" stroke-linejoin="round"/>
<path d="M274.871 385.439H363.631" stroke="#263238" stroke-linecap="round" stroke-linejoin="round"/>
<path d="M406.172 385.439H449.452" stroke="#263238" stroke-linecap="round" stroke-linejoin="round"/>
<path d="M245.16 207.31C245.16 207.31 249.24 208.25 250.16 203.54C251.08 198.83 247.33 201.34 247.33 203.85C247.33 206.36 248.59 208.85 253.33 205.11C258.07 201.37 256.78 201.97 259.61 204.79C262.44 207.61 259.92 208.25 265.61 206.05C271.3 203.85 271.61 204.79 271.26 206.68C270.91 208.57 269.69 207.62 275.03 205.74C280.37 203.86 282.88 202.28 282.25 204.74C281.62 207.2 279.42 207.88 283.5 205.06C287.58 202.24 290.1 193.13 286.64 200.06C283.18 206.99 281.93 206.06 286.96 205.06C291.99 204.06 293.55 200.66 293.55 203.17C293.55 205.68 289.47 207.26 293.55 205.69C297.63 204.12 299.2 202.55 299.2 204.12C299.2 205.69 295.43 208.51 300.77 206C306.11 203.49 307.68 200.66 307.68 202.86C307.68 205.06 306.73 204.43 307.68 205.06C308.63 205.69 306.73 203.8 309.56 204.74C312.39 205.68 311.13 207.57 315.21 206C319.29 204.43 318.98 202.23 321.21 204.43C323.44 206.63 321.21 209.77 327.21 206.94C333.21 204.11 334.74 205.69 336.63 206C338.188 206.239 339.764 206.343 341.34 206.31C342.59 206.31 342.28 205.06 345.42 206.31C347.284 207.222 349.347 207.655 351.42 207.57H355" stroke="#92E3A9" stroke-linecap="round" stroke-linejoin="round"/>
<path d="M374.18 207.62C375.683 206.97 377.149 206.235 378.57 205.42C381.4 203.85 388.62 198.52 388.93 201.97C389.24 205.42 381.08 209.82 382.03 206.05C382.98 202.28 388.62 204.17 392.7 205.74C396.78 207.31 397.7 205.42 402.75 205.42C407.8 205.42 407.14 206.99 409.65 207.62C412.16 208.25 411.22 207.62 415.65 205.74C420.08 203.86 416.9 194.74 414.08 201.03C411.26 207.32 410.31 209.82 416.9 206.68C423.49 203.54 421.61 207.31 422.55 207.31C423.49 207.31 421.92 207.62 425.69 206.05C429.46 204.48 424.75 206.68 427.58 207.31C430.41 207.94 431.97 204.79 434.48 203.85C436.99 202.91 437.31 205.74 437.31 205.74H439.82" stroke="#92E3A9" stroke-linecap="round" stroke-linejoin="round"/>
<path d="M243.27 147C243.27 147 244.84 146.37 247.35 142.61C249.86 138.85 245.78 137.61 244.84 141.67C243.9 145.73 241.7 150.46 248.61 147C255.52 143.54 253 137 250.81 142C248.62 147 249.24 152.05 255.81 148.28C262.38 144.51 263.03 142.28 263.97 144.2C264.91 146.12 261.46 146.71 267.11 147.02C272.76 147.33 273.7 145.45 276.21 144.51C278.72 143.57 279.98 144.51 279.98 144.51C280.693 144.725 281.434 144.833 282.18 144.83C283.43 144.83 285 143.83 285.63 144.83C286.26 145.83 279.35 147.02 287.52 145.77C295.69 144.52 297.52 139.17 298.19 143.26C298.86 147.35 292.54 150.79 292.54 147.02C292.54 143.25 296.31 139.49 302.27 142.94C308.23 146.39 307.92 147.34 311.06 147.94C314.2 148.54 319.22 145.12 319.22 145.12C319.22 145.12 318.91 145.43 320.79 146.37C322.67 147.31 322.05 147.32 325.5 146.37C328.95 145.42 326.13 146.06 330.84 145.43C335.55 144.8 337.74 145.12 335.84 146.69C333.94 148.26 328.62 146.06 335.53 144.81C342.44 143.56 343.37 145.75 343.37 146.69C343.37 147.63 345.26 147.94 346.83 147.32C348.363 146.843 349.941 146.524 351.54 146.37" stroke="#92E3A9" stroke-linecap="round" stroke-linejoin="round"/>
<path d="M251.43 128.51C253.955 128.09 256.442 127.472 258.87 126.66C260.94 125.93 262.87 124.97 263.68 123.8C265.87 120.66 259.28 121.6 255.2 125.69C251.12 129.78 257.71 130.08 266.2 127.26C274.69 124.44 274.36 117.21 268.71 122.55C263.06 127.89 265.26 129.14 274.05 127.26C282.84 125.38 293.82 123.17 290.37 126.26C286.92 129.35 285.98 127.83 291.94 126.58C297.9 125.33 301.67 122.5 300.73 124.69C299.79 126.88 297.28 129.69 301.99 127.52C306.7 125.35 306.07 127.52 306.07 127.52C314.54 126.58 319.25 115.9 313.29 119.67C307.33 123.44 307.29 128.46 312.66 128.15C318.03 127.84 323.02 122.81 320.51 125.32C318 127.83 313.92 129.72 322.7 127.52C331.48 125.32 334.32 120.61 333.7 123.75C333.08 126.89 332.76 126.58 335.9 126.58C339.04 126.58 344.69 122.18 342.81 125.32C340.93 128.46 339.98 128.77 342.81 128.15C345.64 127.53 349.71 125.32 350.97 125.32C352.23 125.32 348.46 128.77 352.22 128.46C355.98 128.15 363.84 123.46 363.84 123.46" stroke="#92E3A9" stroke-linecap="round" stroke-linejoin="round"/>
<path d="M355 123.49C355 123.49 362.85 128.82 364.73 128.82" stroke="#92E3A9" stroke-linecap="round" stroke-linejoin="round"/>
<path d="M322.48 238.78L323.41 243.14L333.06 231.63" stroke="#92E3A9" stroke-linecap="round" stroke-linejoin="round"/>
<path d="M215.773 428.7L223.633 436.36C223.633 436.36 241.573 443.01 242.383 444.22C243.193 445.43 242.383 448.86 242.383 448.86H201.062L202.152 432.4L215.773 428.7Z" fill="white" stroke="#263238" stroke-linecap="round" stroke-linejoin="round"/>
<path d="M242.732 446.24H201.243L201.062 448.86H242.383C242.574 447.999 242.691 447.122 242.732 446.24Z" fill="white" stroke="#263238" stroke-linecap="round" stroke-linejoin="round"/>
<path d="M130.87 297.21L136.54 364.21C136.54 364.21 132 404.56 132 408.56C132 412.56 130 425.56 130 425.56L143.67 427.23L161.9 358.23L164.57 330.23L186.9 380.56L202.18 432.42L215.8 428.72L205.24 362.23L185.65 299.56L184.24 292.23L130.9 292.89L130.87 297.21Z" fill="#263238" stroke="#263238" stroke-linecap="round" stroke-linejoin="round"/>
<path d="M130.002 425.561L126.002 436.481C126.002 436.481 118.552 445.141 119.152 446.761C119.318 447.22 119.584 447.637 119.929 447.983C120.275 448.328 120.692 448.594 121.152 448.761H139.692C140.16 448.649 140.584 448.399 140.907 448.042C141.23 447.685 141.438 447.238 141.502 446.761C141.764 445.295 141.898 443.809 141.902 442.321L143.652 427.231L130.002 425.561Z" fill="white" stroke="#263238" stroke-linecap="round" stroke-linejoin="round"/>
<path d="M141.493 446.76C141.553 446.5 141.603 446.23 141.643 445.95H119.213C119.101 446.205 119.07 446.487 119.123 446.76C119.29 447.22 119.555 447.637 119.901 447.982C120.246 448.328 120.664 448.593 121.123 448.76H139.663C140.135 448.653 140.564 448.404 140.891 448.046C141.218 447.689 141.428 447.24 141.493 446.76Z" fill="white" stroke="#263238" stroke-linecap="round" stroke-linejoin="round"/>
<path d="M149.871 201.29C149.871 201.29 132.371 202.29 127.121 205.79C121.871 209.29 96.3711 230.29 96.3711 230.29L97.6811 252.13L125.871 231.79L129.871 302.29L185.621 299.54L184.371 260.29L183.621 259.04C183.621 259.04 201.621 277.54 208.371 277.04C215.121 276.54 216.621 265.29 211.621 258.29C206.621 251.29 199.121 241.29 193.871 233.79C188.621 226.29 188.621 215.29 180.871 210.04C173.121 204.79 159.621 201.79 159.621 201.79L149.871 201.29Z" fill="#92E3A9" stroke="#263238" stroke-linecap="round" stroke-linejoin="round"/>
<path d="M184.371 260.29L183.281 237.72" stroke="#263238" stroke-linecap="round" stroke-linejoin="round"/>
<path d="M186.852 246.71L187.492 242.84" stroke="#263238" stroke-linecap="round" stroke-linejoin="round"/>
<path d="M184.781 259.11L186.391 249.49" stroke="#263238" stroke-linecap="round" stroke-linejoin="round"/>
<path d="M161.492 273.53L164.002 276.27" stroke="#263238" stroke-linecap="round" stroke-linejoin="round"/>
<path d="M134.492 244.05L159.912 271.8" stroke="#263238" stroke-linecap="round" stroke-linejoin="round"/>
<path d="M143.621 262.11L153.461 271.76" stroke="#263238" stroke-linecap="round" stroke-linejoin="round"/>
<path d="M138.703 257.3L141.533 260.07" stroke="#263238" stroke-linecap="round" stroke-linejoin="round"/>
<path d="M134.191 226.28L125.871 231.79L133.891 231.1" stroke="#263238" stroke-linecap="round" stroke-linejoin="round"/>
<path d="M148.141 180.9C148.693 184.716 148.994 188.565 149.041 192.42C149 196.2 148.7 199.972 148.141 203.71C148.141 203.71 159.431 220.88 161.461 222.23C163.491 223.58 164.851 217.71 164.851 215.23C164.851 212.75 165.081 205.52 165.081 205.52V197.39L148.141 180.9Z" fill="#B0B0B0" stroke="#263238" stroke-linecap="round" stroke-linejoin="round"/>
<path d="M165.003 206.63C165.003 205.95 165.003 205.52 165.003 205.52V197.39L161.163 193.66L151.793 189.87L165.003 206.63Z" fill="#263238" stroke="#263238" stroke-linecap="round" stroke-linejoin="round"/>
<path d="M175.69 158.31C175.69 158.31 178.4 167.12 178.63 170.73C178.86 174.34 176.82 177.06 176.82 178.19C176.82 179.32 179.98 183.83 179.98 185.42C179.98 187.01 176.14 189.03 176.14 189.03C176.14 189.03 174.56 197.39 170.5 200.1C166.44 202.81 157.17 196.26 153.56 192.87C150.541 190.142 148.347 186.622 147.23 182.71C146.1 179.09 147.46 170.71 149.72 163.96C150.546 161.16 152.153 158.653 154.352 156.733C156.552 154.813 159.253 153.56 162.14 153.12C167.33 152.21 175 155.15 175.69 158.31Z" fill="#B0B0B0" stroke="#263238" stroke-linecap="round" stroke-linejoin="round"/>
<path d="M172.303 179.66C172.303 180.72 171.953 181.58 171.513 181.58C171.073 181.58 170.723 180.72 170.723 179.66C170.723 178.6 171.083 177.74 171.513 177.74C171.943 177.74 172.303 178.6 172.303 179.66Z" fill="#263238"/>
<path d="M170 175.7C170 175.7 173.17 174.12 175 176.16" stroke="#263238" stroke-linecap="round" stroke-linejoin="round"/>
<path d="M171.852 192.42C171.852 192.42 167.112 190.84 166.852 187.42" stroke="#263238" stroke-linecap="round" stroke-linejoin="round"/>
<path d="M149.002 180.07C149.002 180.07 153.292 180.75 153.742 178.49C154.192 176.23 151.482 175.78 154.422 173.75C157.362 171.72 159.422 171.75 160.292 170.36C161.162 168.97 159.932 166.82 161.512 163.21C163.092 159.6 164.992 160.53 169.512 161.21C172.154 161.58 174.699 162.463 177.002 163.81C177.002 163.81 179.782 157.93 176.842 154.54C173.902 151.15 164.572 147.71 154.182 150.87C143.792 154.03 140.642 161.55 139.742 169.68C138.842 177.81 142.002 182.33 145.002 183.23C148.002 184.13 149.002 180.07 149.002 180.07Z" fill="#263238" stroke="#263238" stroke-linecap="round" stroke-linejoin="round"/>
<path d="M151.3 179.54C151.3 179.54 148.59 171.19 146.3 175.48C144.01 179.77 145.17 183.38 147.43 184.74C147.7 184.926 148.01 185.045 148.335 185.087C148.66 185.129 148.99 185.094 149.299 184.983C149.607 184.873 149.885 184.691 150.109 184.452C150.334 184.214 150.498 183.925 150.59 183.61" fill="#B0B0B0"/>
<path d="M151.3 179.54C151.3 179.54 148.59 171.19 146.3 175.48C144.01 179.77 145.17 183.38 147.43 184.74C147.7 184.926 148.01 185.045 148.335 185.087C148.66 185.129 148.99 185.094 149.299 184.983C149.607 184.873 149.885 184.691 150.109 184.452C150.334 184.214 150.498 183.925 150.59 183.61" stroke="#263238" stroke-linecap="round" stroke-linejoin="round"/>
<path d="M201.223 265.08C204.103 259.79 216.853 244.22 216.853 244.22L225.163 248.22C225.163 248.22 218.873 271.14 215.853 274.41C212.833 277.68 209.513 278.79 205.983 276.27" fill="#B0B0B0"/>
<path d="M201.223 265.08C204.103 259.79 216.853 244.22 216.853 244.22L225.163 248.22C225.163 248.22 218.873 271.14 215.853 274.41C212.833 277.68 209.513 278.79 205.983 276.27" stroke="#263238" stroke-linecap="round" stroke-linejoin="round"/>
<path d="M206.162 276.12C207.768 277.003 209.631 277.3 211.431 276.961C213.232 276.621 214.858 275.667 216.032 274.26C216.942 273.26 218.152 270.49 219.392 267.1C216.489 267.733 213.456 267.351 210.799 266.019C208.143 264.687 206.023 262.485 204.792 259.78C203.29 261.695 201.992 263.764 200.922 265.95C200.822 266.26 201.652 270.09 201.602 270.37" fill="#92E3A9"/>
<path d="M206.162 276.12C207.768 277.003 209.631 277.3 211.431 276.961C213.232 276.621 214.858 275.667 216.032 274.26C216.942 273.26 218.152 270.49 219.392 267.1C216.489 267.733 213.456 267.351 210.799 266.019C208.143 264.687 206.023 262.485 204.792 259.78C203.29 261.695 201.992 263.764 200.922 265.95C200.822 266.26 201.652 270.09 201.602 270.37" stroke="#263238" stroke-linecap="round" stroke-linejoin="round"/>
<path d="M300.72 279.21C300.524 279.213 300.33 279.175 300.15 279.1L289.48 274.67C289.294 274.598 289.124 274.489 288.98 274.35C288.836 274.211 288.722 274.045 288.644 273.861C288.565 273.677 288.524 273.48 288.523 273.28C288.522 273.08 288.561 272.882 288.638 272.697C288.715 272.513 288.827 272.345 288.97 272.205C289.112 272.065 289.281 271.954 289.466 271.88C289.652 271.806 289.85 271.769 290.05 271.773C290.25 271.776 290.447 271.82 290.63 271.9L301.3 276.33C301.617 276.466 301.878 276.706 302.039 277.012C302.2 277.317 302.251 277.668 302.182 278.007C302.114 278.345 301.932 278.649 301.665 278.869C301.399 279.088 301.065 279.209 300.72 279.21Z" fill="white" stroke="#263238" stroke-linecap="round" stroke-linejoin="round"/>
<path d="M267.411 271.45L30.2513 165C28.437 164.183 27.0209 162.68 26.3141 160.82C25.6073 158.96 25.6674 156.895 26.4813 155.08C27.296 153.266 28.7976 151.85 30.6559 151.143C32.5141 150.436 34.5771 150.496 36.3913 151.31L273.551 257.76L267.411 271.45Z" fill="white" stroke="#263238" stroke-linecap="round" stroke-linejoin="round"/>
<path d="M62.4431 163L36.4431 151.31C34.6277 150.489 32.5606 150.423 30.6965 151.126C28.8324 151.829 27.324 153.244 26.5031 155.06C25.6823 156.875 25.6162 158.942 26.3195 160.806C27.0228 162.671 28.4377 164.179 30.2531 165L55.6531 176.48L62.4431 163Z" fill="white" stroke="#263238" stroke-linecap="round" stroke-linejoin="round"/>
<path d="M273.55 257.76L297.29 274.02L295.81 277.18L267.41 271.45L273.55 257.76Z" fill="white" stroke="#263238" stroke-linecap="round" stroke-linejoin="round"/>
<path d="M56.1415 160.19L36.3915 151.33C34.5959 150.616 32.5941 150.623 30.8034 151.349C29.0127 152.075 27.5712 153.464 26.7795 155.227C25.9878 156.989 25.907 158.99 26.5538 160.81C27.2006 162.631 28.5252 164.132 30.2515 165L49.1715 173.49L56.1415 160.19Z" fill="#92E3A9" stroke="#263238" stroke-linecap="round" stroke-linejoin="round"/>
<path d="M80.1204 175.79C80.1204 175.79 78.1204 186.54 79.6204 188.54C81.1204 190.54 89.3704 198.04 89.3704 198.04C89.3704 198.04 86.1204 241.79 86.8704 245.79C87.6204 249.79 96.1204 252.79 98.8704 252.04C101.62 251.29 103.62 248.29 106.12 242.79C108.62 237.29 97.3704 198.79 97.3704 197.04C97.3704 195.29 92.1204 181.79 92.1204 181.79C92.1204 181.79 96.3704 178.79 97.1204 177.79C97.8704 176.79 94.1204 177.54 93.3704 177.54C90.9139 177.256 88.4877 176.754 86.1204 176.04C85.1204 175.54 80.1204 175.79 80.1204 175.79Z" fill="#B0B0B0" stroke="#263238" stroke-linecap="round" stroke-linejoin="round"/>
<path d="M92.2221 177.48C92.2221 177.48 88.6821 178.37 88.8121 179.25C88.9421 180.13 88.9421 185.7 88.9421 185.7" fill="white"/>
<path d="M92.2221 177.48C92.2221 177.48 88.6821 178.37 88.8121 179.25C88.9421 180.13 88.9421 185.7 88.9421 185.7" stroke="#263238" stroke-linecap="round" stroke-linejoin="round"/>
<path d="M86.793 176.6C86.793 176.6 83.793 176.47 83.793 178.12V185.07" fill="white"/>
<path d="M86.793 176.6C86.793 176.6 83.793 176.47 83.793 178.12V185.07" stroke="#263238" stroke-linecap="round" stroke-linejoin="round"/>
<path d="M80.082 176.47L80.592 185.07" stroke="#263238" stroke-linecap="round" stroke-linejoin="round"/>
<path d="M98.8698 252C101.62 251.25 103.62 248.25 106.12 242.75C107.07 240.68 106.05 233.91 104.43 226.19C101.952 227.857 99.1127 228.908 96.1471 229.256C93.1815 229.604 90.1757 229.239 87.3798 228.19C86.8898 236.78 86.5798 244.25 86.8698 245.8C87.6198 249.79 96.1198 252.79 98.8698 252Z" fill="#92E3A9" stroke="#263238" stroke-linecap="round" stroke-linejoin="round"/>
<path d="M216.762 232.24C217.797 231.367 219.118 230.905 220.472 230.94C222.472 231.13 222.882 234.1 222.692 236.69C222.502 239.28 219.692 239.85 219.352 238.18C219.012 236.51 218.612 233.91 218.612 233.91L216.762 232.24Z" fill="#B0B0B0" stroke="#263238" stroke-linecap="round" stroke-linejoin="round"/>
<path d="M222.32 232.061C223.011 231.859 223.752 231.917 224.403 232.225C225.053 232.533 225.568 233.068 225.85 233.731C226.96 236.141 225.66 239.291 224.36 239.481C223.06 239.671 222.69 236.691 222.69 236.691L222.32 232.061Z" fill="#B0B0B0" stroke="#263238" stroke-linecap="round" stroke-linejoin="round"/>
<path d="M225.852 233.731C226.102 233.603 226.379 233.536 226.661 233.534C226.942 233.533 227.22 233.598 227.472 233.723C227.723 233.848 227.942 234.031 228.111 234.256C228.279 234.482 228.393 234.744 228.442 235.021C229.192 237.251 229.932 240.021 228.262 240.021C226.592 240.021 226.032 237.021 226.032 237.021L225.852 233.731Z" fill="#B0B0B0" stroke="#263238" stroke-linecap="round" stroke-linejoin="round"/>
<path d="M228.441 235C228.441 235 230.861 234.82 231.441 236.3C232.021 237.78 233.111 240.57 231.071 240.57C230.521 240.57 229.221 237.97 229.221 237.97L228.441 235Z" fill="#B0B0B0" stroke="#263238" stroke-linecap="round" stroke-linejoin="round"/>
</svg>
