<svg width="500" height="500" viewBox="0 0 500 500" fill="none" xmlns="http://www.w3.org/2000/svg">
<path d="M208.871 454.86C208.871 454.86 286.741 468.93 351.221 415.33C415.701 361.73 437.281 273 456.661 201.5C476.041 130 446.131 65.5705 385.801 43.9005C325.471 22.2305 296.211 73.7405 219.631 88.6905C143.051 103.64 120.381 96.0005 64.271 150.31C8.16098 204.62 15.001 309.83 78.901 377.92C142.801 446.01 208.871 454.86 208.871 454.86Z" fill="#92E3A9"/>
<path opacity="0.8" d="M208.871 454.86C208.871 454.86 286.741 468.93 351.221 415.33C415.701 361.73 437.281 273 456.661 201.5C476.041 130 446.131 65.5705 385.801 43.9005C325.471 22.2305 296.211 73.7405 219.631 88.6905C143.051 103.64 120.381 96.0005 64.271 150.31C8.16098 204.62 15.001 309.83 78.901 377.92C142.801 446.01 208.871 454.86 208.871 454.86Z" fill="white"/>
<path d="M297.85 195C297.85 195 297.85 188.26 288.41 178.82C278.97 169.38 272.9 164 272.9 164C272.9 164 268.17 179.51 276.9 188.95C285.63 198.39 297.81 207.16 297.81 207.16L297.85 195Z" fill="#92E3A9"/>
<path d="M284.14 237.14C284.14 237.14 284.14 230.39 274.7 220.95C265.26 211.51 259.19 206.11 259.19 206.11C259.19 206.11 254.47 221.63 263.24 231.11C272.01 240.59 284.14 249.31 284.14 249.31V237.14Z" fill="#92E3A9"/>
<path d="M297.25 206.51C297.25 206.51 297.97 199.8 308.35 191.41C318.73 183.02 325.35 178.3 325.35 178.3C325.35 178.3 328.41 194.22 318.69 202.68C308.97 211.14 296 218.58 296 218.58L297.25 206.51Z" fill="#92E3A9"/>
<path d="M280.7 256.24C280.7 256.24 282.11 249.65 293.32 242.4C304.53 235.15 311.6 231.14 311.6 231.14C311.6 231.14 312.96 247.29 302.41 254.69C291.86 262.09 278.16 268.11 278.16 268.11L280.7 256.24Z" fill="#92E3A9"/>
<path d="M283.809 310.47C283.809 310.47 283.809 303.73 293.249 294.29C302.689 284.85 308.759 279.45 308.759 279.45C308.759 279.45 313.479 294.96 304.759 304.4C296.039 313.84 283.849 322.61 283.849 322.61L283.809 310.47Z" fill="#92E3A9"/>
<path d="M283.652 323.71C283.652 323.71 284.652 317.03 276.652 306.35C268.652 295.67 263.402 289.46 263.402 289.46C263.402 289.46 256.532 304.14 263.862 314.73C271.192 325.32 281.972 335.73 281.972 335.73L283.652 323.71Z" fill="#92E3A9"/>
<path d="M274.352 362.94C274.352 362.94 274.352 356.19 283.792 346.75C293.232 337.31 299.302 331.92 299.302 331.92C299.302 331.92 304.022 347.43 295.252 356.87C286.482 366.31 274.352 375.07 274.352 375.07V362.94Z" fill="#92E3A9"/>
<path d="M280.652 398.5C280.652 398.5 278.942 391.98 285.652 380.45C292.362 368.92 296.902 362.17 296.902 362.17C296.902 362.17 305.402 375.98 299.312 387.33C293.222 398.68 283.692 410.24 283.692 410.24L280.652 398.5Z" fill="#92E3A9"/>
<path d="M298.7 193.29C298.223 200.312 297.361 207.302 296.12 214.23C292.38 233.51 283.05 245.95 279.32 263.37C275.59 280.79 286.32 303.22 283.43 325.59C280.54 347.96 271.86 360.4 274.35 375.33C276.84 390.26 289.9 430.69 289.9 430.69" stroke="#263238" stroke-width="0.5" stroke-linecap="round" stroke-linejoin="round"/>
<path d="M297.16 210.99L307.33 203.18" stroke="#263238" stroke-width="0.5" stroke-linecap="round" stroke-linejoin="round"/>
<path d="M297.631 202L293.371 194.43" stroke="#263238" stroke-width="0.5" stroke-linecap="round" stroke-linejoin="round"/>
<path d="M279.891 262.57C279.891 262.57 288.411 256.18 297.161 249.79" stroke="#263238" stroke-width="0.5" stroke-linecap="round" stroke-linejoin="round"/>
<path d="M284.14 249.27C284.14 249.27 277.05 235.36 269 226.13" stroke="#263238" stroke-width="0.5" stroke-linecap="round" stroke-linejoin="round"/>
<path d="M284.148 320.07C289.008 311.104 295.146 302.891 302.368 295.69" stroke="#263238" stroke-width="0.5" stroke-linecap="round" stroke-linejoin="round"/>
<path d="M282.492 329.53C279.906 323.441 276.819 317.577 273.262 312C268.262 304.67 267.582 303.72 267.582 303.72" stroke="#263238" stroke-width="0.5" stroke-linecap="round" stroke-linejoin="round"/>
<path d="M274.352 375.33C276.501 369.972 279.059 364.787 282.002 359.82C284.949 355.221 288.27 350.873 291.932 346.82" stroke="#263238" stroke-width="0.5" stroke-linecap="round" stroke-linejoin="round"/>
<path d="M283.719 410.24C283.719 410.24 282.719 402.17 286.279 395.31C289.839 388.45 293.849 379.45 295.499 375.9" stroke="#263238" stroke-width="0.5" stroke-linecap="round" stroke-linejoin="round"/>
<path d="M235.999 285.11C235.999 285.11 235.269 280.88 240.169 273.94C245.069 267 248.279 262.94 248.279 262.94C248.279 262.94 252.929 272.15 248.449 279.02C245.13 283.888 241.407 288.468 237.319 292.71L235.999 285.11Z" fill="#92E3A9"/>
<path d="M249.191 310C249.191 310 248.461 305.77 253.351 298.83C258.241 291.89 261.471 287.83 261.471 287.83C261.471 287.83 266.111 297.04 261.641 303.92C258.32 308.783 254.597 313.359 250.511 317.6L249.191 310Z" fill="#92E3A9"/>
<path d="M237.641 292.25C237.641 292.25 236.47 288.12 229.04 283.99C221.61 279.86 217.001 277.61 217.001 277.61C217.001 277.61 216.811 287.92 223.821 292.18C228.935 295.123 234.287 297.632 239.821 299.68L237.641 292.25Z" fill="#92E3A9"/>
<path d="M253.42 321.64C253.42 321.64 251.82 317.64 244 314.33C236.18 311.02 231.32 309.25 231.32 309.25C231.32 309.25 232.22 319.53 239.64 323.02C245.027 325.409 250.603 327.346 256.31 328.81L253.42 321.64Z" fill="#92E3A9"/>
<path d="M257.362 356C257.362 356 256.632 351.78 249.682 346.88C242.732 341.98 238.342 339.26 238.342 339.26C238.342 339.26 237.072 349.5 243.592 354.47C248.357 357.937 253.405 360.997 258.682 363.62L257.362 356Z" fill="#92E3A9"/>
<path d="M258.89 364.27C258.89 364.27 257.57 360.18 261.43 352.61C265.29 345.04 267.9 340.61 267.9 340.61C267.9 340.61 273.8 349.07 270.35 356.5C267.754 361.788 264.72 366.849 261.28 371.63L258.89 364.27Z" fill="#92E3A9"/>
<path d="M270.739 398.38C270.739 398.38 271.229 394.11 277.889 388.83C284.549 383.55 288.769 380.58 288.769 380.58C288.769 380.58 290.629 390.73 284.399 396.06C279.84 399.793 274.976 403.138 269.859 406.06L270.739 398.38Z" fill="#92E3A9"/>
<path d="M269 387.86C269 387.86 268.27 383.63 261.32 378.73C254.37 373.83 250 371.11 250 371.11C250 371.11 248.72 381.35 255.24 386.32C260.005 389.787 265.053 392.848 270.33 395.47L269 387.86Z" fill="#92E3A9"/>
<path d="M268.899 410.84C268.899 410.84 269.259 406.57 263.779 400.07C258.299 393.57 254.779 389.83 254.779 389.83C254.779 389.83 250.959 399.41 256.009 405.83C259.738 410.388 263.843 414.627 268.279 418.5L268.899 410.84Z" fill="#92E3A9"/>
<path d="M235.301 284.12C236.362 288.481 237.66 292.781 239.191 297C243.631 308.69 250.831 315.47 255.061 326C259.291 336.53 255.011 351.75 259.241 365.46C263.471 379.17 270.241 386.04 270.331 395.67C270.421 405.3 266.591 432.07 266.591 432.07" stroke="#263238" stroke-width="0.5" stroke-linecap="round" stroke-linejoin="round"/>
<path d="M238.191 295.05L230.961 291.26" stroke="#263238" stroke-width="0.5" stroke-linecap="round" stroke-linejoin="round"/>
<path d="M236.91 289.46L238.76 284.25" stroke="#263238" stroke-width="0.5" stroke-linecap="round" stroke-linejoin="round"/>
<path d="M254.618 325.52C254.618 325.52 248.618 322.44 242.398 319.38" stroke="#263238" stroke-width="0.5" stroke-linecap="round" stroke-linejoin="round"/>
<path d="M250.512 317.64C250.512 317.64 253.442 308.15 257.512 301.49" stroke="#263238" stroke-width="0.5" stroke-linecap="round" stroke-linejoin="round"/>
<path d="M258.191 362C254.171 356.906 249.431 352.422 244.121 348.69" stroke="#263238" stroke-width="0.5" stroke-linecap="round" stroke-linejoin="round"/>
<path d="M260.262 367.79C261.218 363.689 262.516 359.675 264.142 355.79C266.462 350.65 266.802 349.98 266.802 349.98" stroke="#263238" stroke-width="0.5" stroke-linecap="round" stroke-linejoin="round"/>
<path d="M270 402.93C270 402.93 274.79 397.06 277.77 394.86C279.57 393.536 281.259 392.068 282.82 390.47" stroke="#263238" stroke-width="0.5" stroke-linecap="round" stroke-linejoin="round"/>
<path d="M270.329 395.63C268.399 392.5 266.23 389.525 263.839 386.73C261.49 384.166 258.935 381.798 256.199 379.65" stroke="#263238" stroke-width="0.5" stroke-linecap="round" stroke-linejoin="round"/>
<path d="M268.239 418.54C267.993 415.278 266.881 412.14 265.019 409.45C262.019 405.53 258.549 400.33 257.129 398.28" stroke="#263238" stroke-width="0.5" stroke-linecap="round" stroke-linejoin="round"/>
<path d="M417 343.12C417 343.12 420.16 339.82 420 330.79C419.84 321.76 419.36 316.28 419.36 316.28C419.36 316.28 409.8 321.65 409.66 330.36C409.699 336.627 410.265 342.879 411.35 349.05L417 343.12Z" fill="#92E3A9"/>
<path d="M390.631 357.28C390.631 357.28 393.791 353.98 393.631 344.95C393.471 335.92 393.001 330.44 393.001 330.44C393.001 330.44 383.431 335.81 383.301 344.52C383.343 350.787 383.912 357.039 385.001 363.21L390.631 357.28Z" fill="#92E3A9"/>
<path d="M411.37 348.45C411.37 348.45 414.86 345.51 423.86 346.27C432.86 347.03 438.3 347.82 438.3 347.82C438.3 347.82 432.3 357.03 423.63 356.61C417.381 356.175 411.179 355.219 405.09 353.75L411.37 348.45Z" fill="#92E3A9"/>
<path d="M379.999 365C379.999 365 383.779 362.44 392.649 364.14C401.519 365.84 406.849 367.2 406.849 367.2C406.849 367.2 399.949 375.73 391.339 374.41C385.169 373.318 379.102 371.713 373.199 369.61L379.999 365Z" fill="#92E3A9"/>
<path d="M356.129 393C356.129 393 359.289 389.71 368.319 389.51C377.349 389.31 382.839 389.51 382.839 389.51C382.839 389.51 377.889 399.29 369.189 399.8C362.929 400.027 356.66 399.73 350.449 398.91L356.129 393Z" fill="#92E3A9"/>
<path d="M349.861 399.34C349.861 399.34 353.451 396.53 354.541 387.56C355.631 378.59 356.001 373.11 356.001 373.11C356.001 373.11 345.771 377.06 344.391 385.67C343.537 391.875 343.202 398.14 343.391 404.4L349.861 399.34Z" fill="#92E3A9"/>
<path d="M326.942 414.15C326.942 414.15 330.102 410.85 339.132 410.66C348.162 410.47 353.662 410.66 353.662 410.66C353.662 410.66 348.662 420.44 340.002 420.95C333.741 421.177 327.473 420.879 321.262 420.06L326.942 414.15Z" fill="#92E3A9"/>
<path d="M313.369 434.48C313.369 434.48 315.589 430.48 324.279 428.02C332.969 425.56 338.329 424.35 338.329 424.35C338.329 424.35 336.019 435.07 327.729 437.77C321.731 439.57 315.593 440.868 309.379 441.65L313.369 434.48Z" fill="#92E3A9"/>
<path d="M418.27 342.67C414.75 345.873 411.054 348.877 407.2 351.67C396.35 359.34 385.97 361.05 375.99 367.82C366.01 374.59 360.74 390.55 348.87 400.14C337 409.73 326.92 411.73 321.14 420.14C315.36 428.55 302.82 454.47 302.82 454.47" stroke="#263238" stroke-width="0.5" stroke-linecap="round" stroke-linejoin="round"/>
<path d="M409.23 350.6L417.86 351.55" stroke="#263238" stroke-width="0.5" stroke-linecap="round" stroke-linejoin="round"/>
<path d="M413.672 346.43L415.132 340.73" stroke="#263238" stroke-width="0.5" stroke-linecap="round" stroke-linejoin="round"/>
<path d="M376.641 367.71C376.641 367.71 383.791 368.58 391.061 369.55" stroke="#263238" stroke-width="0.5" stroke-linecap="round" stroke-linejoin="round"/>
<path d="M385 363.21C385 363.21 388 353.09 388.43 344.81" stroke="#263238" stroke-width="0.5" stroke-linecap="round" stroke-linejoin="round"/>
<path d="M351.801 397.79C358.373 395.692 365.214 394.557 372.111 394.42" stroke="#263238" stroke-width="0.5" stroke-linecap="round" stroke-linejoin="round"/>
<path d="M346.559 401.64C348.147 397.461 349.382 393.155 350.249 388.77C351.249 382.86 351.359 382.06 351.359 382.06" stroke="#263238" stroke-width="0.5" stroke-linecap="round" stroke-linejoin="round"/>
<path d="M321.141 420.2C324.699 418.586 328.377 417.249 332.141 416.2C335.754 415.328 339.433 414.756 343.141 414.49" stroke="#263238" stroke-width="0.5" stroke-linecap="round" stroke-linejoin="round"/>
<path d="M309.379 441.65C311.533 438.919 314.378 436.813 317.619 435.55C322.559 433.86 328.739 431.35 331.209 430.39" stroke="#263238" stroke-width="0.5" stroke-linecap="round" stroke-linejoin="round"/>
<path d="M344.658 358.19C344.658 358.19 346.278 355.78 351.918 354.68C357.558 353.58 361.028 353.11 361.028 353.11C361.028 353.11 359.028 359.78 353.588 361.05C349.686 361.869 345.722 362.361 341.738 362.52L344.658 358.19Z" fill="#92E3A9"/>
<path d="M339.42 376.52C339.42 376.52 341.04 374.12 346.69 373.01C352.34 371.9 355.8 371.45 355.8 371.45C355.8 371.45 353.75 378.12 348.35 379.39C344.448 380.209 340.484 380.701 336.5 380.86L339.42 376.52Z" fill="#92E3A9"/>
<path d="M342.11 362.43C342.11 362.43 343.47 359.86 341.77 354.37C340.07 348.88 338.86 345.6 338.86 345.6C338.86 345.6 333.94 350.55 335.37 355.91C336.489 359.735 337.924 363.462 339.66 367.05L342.11 362.43Z" fill="#92E3A9"/>
<path d="M336.051 384.18C336.051 384.18 337.141 381.48 334.881 376.18C332.621 370.88 331.061 367.76 331.061 367.76C331.061 367.76 326.681 373.2 328.671 378.38C330.184 382.066 332.004 385.618 334.111 389L336.051 384.18Z" fill="#92E3A9"/>
<path d="M321.902 402.8C321.902 402.8 323.522 400.39 322.422 394.75C321.322 389.11 320.422 385.75 320.422 385.75C320.422 385.75 315.002 390.15 315.862 395.63C316.586 399.544 317.636 403.391 319.002 407.13L321.902 402.8Z" fill="#92E3A9"/>
<path d="M318.77 407.56C318.77 407.56 320.03 404.95 325.46 403.06C330.89 401.17 334.26 400.21 334.26 400.21C334.26 400.21 333.18 407.11 328.01 409.13C324.268 410.499 320.418 411.549 316.5 412.27L318.77 407.56Z" fill="#92E3A9"/>
<path d="M308.589 429.78C308.589 429.78 310.829 427.92 316.589 428.46C322.349 429 325.769 429.52 325.769 429.52C325.769 429.52 321.929 435.35 316.389 435.04C312.416 434.728 308.475 434.083 304.609 433.11L308.589 429.78Z" fill="#92E3A9"/>
<path d="M312.66 423.82C312.66 423.82 314.28 421.41 313.18 415.76C312.08 410.11 311.18 406.76 311.18 406.76C311.18 406.76 305.76 411.17 306.62 416.65C307.325 420.573 308.359 424.43 309.71 428.18L312.66 423.82Z" fill="#92E3A9"/>
<path d="M301.849 435C301.849 435 304.029 433.08 304.399 427.34C304.769 421.6 304.779 418.11 304.779 418.11C304.779 418.11 298.419 421 297.859 426.52C297.551 430.495 297.575 434.489 297.929 438.46L301.849 435Z" fill="#92E3A9"/>
<path d="M344.769 357.36C343.249 359.982 341.877 362.686 340.659 365.46C337.349 373.25 337.659 379.94 334.829 387.05C331.999 394.16 322.749 399.61 318.399 408.29C314.049 416.97 314.159 423.51 309.679 428.24C305.199 432.97 290.809 444.24 290.809 444.24" stroke="#263238" stroke-width="0.5" stroke-linecap="round" stroke-linejoin="round"/>
<path d="M341.059 364.05L339.309 358.82" stroke="#263238" stroke-width="0.5" stroke-linecap="round" stroke-linejoin="round"/>
<path d="M343.059 360.73L346.399 359.05" stroke="#263238" stroke-width="0.5" stroke-linecap="round" stroke-linejoin="round"/>
<path d="M334.82 386.63C334.82 386.63 333.32 382.3 331.73 377.91" stroke="#263238" stroke-width="0.5" stroke-linecap="round" stroke-linejoin="round"/>
<path d="M336.5 380.86C339.999 378.949 343.685 377.401 347.5 376.24" stroke="#263238" stroke-width="0.5" stroke-linecap="round" stroke-linejoin="round"/>
<path d="M319.472 406.15C319.895 401.778 319.679 397.369 318.832 393.06" stroke="#263238" stroke-width="0.5" stroke-linecap="round" stroke-linejoin="round"/>
<path d="M317.789 409.92C320.174 408.381 322.683 407.043 325.289 405.92C328.829 404.5 329.289 404.33 329.289 404.33" stroke="#263238" stroke-width="0.5" stroke-linecap="round" stroke-linejoin="round"/>
<path d="M306.102 431.66C308.611 431.334 311.144 431.23 313.672 431.35C315.169 431.549 316.681 431.623 318.192 431.57" stroke="#263238" stroke-width="0.5" stroke-linecap="round" stroke-linejoin="round"/>
<path d="M309.68 428.24C310.2 425.809 310.534 423.342 310.68 420.86C310.732 418.519 310.592 416.178 310.26 413.86" stroke="#263238" stroke-width="0.5" stroke-linecap="round" stroke-linejoin="round"/>
<path d="M297.93 438.46C299.336 436.75 300.261 434.697 300.61 432.51C300.99 429.2 301.72 425.02 301.98 423.36" stroke="#263238" stroke-width="0.5" stroke-linecap="round" stroke-linejoin="round"/>
<path d="M114.888 370.8C114.888 370.8 112.518 368.33 112.658 361.54C112.798 354.75 113.128 350.64 113.128 350.64C113.128 350.64 120.318 354.64 120.428 361.22C120.394 365.913 119.969 370.596 119.158 375.22L114.888 370.8Z" fill="#92E3A9"/>
<path d="M134.741 381.44C134.741 381.44 132.361 378.97 132.511 372.18C132.661 365.39 132.981 361.28 132.981 361.28C132.981 361.28 140.171 365.28 140.281 371.86C140.246 376.554 139.821 381.237 139.011 385.86L134.741 381.44Z" fill="#92E3A9"/>
<path d="M119.15 374.81C119.15 374.81 116.53 372.6 109.76 373.17C102.99 373.74 98.9102 374.34 98.9102 374.34C98.9102 374.34 103.39 381.26 109.91 380.95C114.605 380.617 119.265 379.895 123.84 378.79L119.15 374.81Z" fill="#92E3A9"/>
<path d="M142.721 387.25C142.721 387.25 139.881 385.32 133.221 386.61C126.561 387.9 122.551 388.9 122.551 388.9C122.551 388.9 127.731 395.31 134.211 394.32C138.843 393.499 143.399 392.291 147.831 390.71L142.721 387.25Z" fill="#92E3A9"/>
<path d="M160.66 408.25C160.66 408.25 158.29 405.78 151.5 405.63C144.71 405.48 140.59 405.63 140.59 405.63C140.59 405.63 144.31 412.99 150.85 413.37C155.554 413.539 160.263 413.315 164.93 412.7L160.66 408.25Z" fill="#92E3A9"/>
<path d="M165.38 413.06C165.38 413.06 162.68 410.94 161.85 404.2C161.02 397.46 160.77 393.34 160.77 393.34C160.77 393.34 168.46 396.34 169.5 402.78C170.137 407.444 170.384 412.154 170.24 416.86L165.38 413.06Z" fill="#92E3A9"/>
<path d="M182.6 424.18C182.6 424.18 180.22 421.71 173.43 421.56C166.64 421.41 162.52 421.56 162.52 421.56C162.52 421.56 166.24 428.92 172.78 429.3C177.487 429.469 182.2 429.245 186.87 428.63L182.6 424.18Z" fill="#92E3A9"/>
<path d="M192.79 439.46C192.79 439.46 191.13 436.46 184.6 434.6C178.07 432.74 174 431.85 174 431.85C174 431.85 175.74 439.91 182 441.93C186.51 443.287 191.126 444.264 195.8 444.85L192.79 439.46Z" fill="#92E3A9"/>
<path d="M114 370.47C116.644 372.88 119.418 375.143 122.31 377.25C130.47 383.01 138.31 384.3 145.77 389.38C153.23 394.46 157.23 406.47 166.15 413.67C175.07 420.87 182.65 422.38 186.99 428.73C191.33 435.08 200.75 454.53 200.75 454.53" stroke="#263238" stroke-width="0.5" stroke-linecap="round" stroke-linejoin="round"/>
<path d="M120.761 376.42L114.281 377.14" stroke="#263238" stroke-width="0.5" stroke-linecap="round" stroke-linejoin="round"/>
<path d="M117.42 373.29L116.32 369.01" stroke="#263238" stroke-width="0.5" stroke-linecap="round" stroke-linejoin="round"/>
<path d="M145.25 389.28C145.25 389.28 139.87 389.94 134.41 390.67" stroke="#263238" stroke-width="0.5" stroke-linecap="round" stroke-linejoin="round"/>
<path d="M139 385.9C137.67 381.393 136.802 376.763 136.41 372.08" stroke="#263238" stroke-width="0.5" stroke-linecap="round" stroke-linejoin="round"/>
<path d="M163.908 411.89C158.97 410.314 153.831 409.458 148.648 409.35" stroke="#263238" stroke-width="0.5" stroke-linecap="round" stroke-linejoin="round"/>
<path d="M167.85 414.78C166.662 411.639 165.736 408.404 165.08 405.11C164.32 400.67 164.25 400.11 164.25 400.11" stroke="#263238" stroke-width="0.5" stroke-linecap="round" stroke-linejoin="round"/>
<path d="M186.998 428.73C184.318 427.522 181.55 426.519 178.718 425.73C176.015 425.078 173.262 424.65 170.488 424.45" stroke="#263238" stroke-width="0.5" stroke-linecap="round" stroke-linejoin="round"/>
<path d="M195.801 444.85C194.177 442.8 192.037 441.219 189.601 440.27C185.891 439 181.251 437.11 179.391 436.39" stroke="#263238" stroke-width="0.5" stroke-linecap="round" stroke-linejoin="round"/>
<path d="M169.28 382.13C169.28 382.13 168.06 380.32 163.82 379.49C159.58 378.66 156.98 378.31 156.98 378.31C156.98 378.31 158.51 383.31 162.57 384.31C165.504 384.927 168.485 385.299 171.48 385.42L169.28 382.13Z" fill="#92E3A9"/>
<path d="M173.22 395.91C173.22 395.91 172 394.1 167.76 393.27C163.52 392.44 160.91 392.09 160.91 392.09C160.91 392.09 162.45 397.09 166.51 398.09C169.441 398.707 172.418 399.079 175.41 399.2L173.22 395.91Z" fill="#92E3A9"/>
<path d="M171.199 385.32C171.199 385.32 170.199 383.39 171.449 379.26C172.699 375.13 173.639 372.67 173.639 372.67C173.639 372.67 177.339 376.39 176.259 380.42C175.418 383.294 174.341 386.093 173.039 388.79L171.199 385.32Z" fill="#92E3A9"/>
<path d="M175.749 401.66C175.749 401.66 174.939 399.66 176.629 395.66C178.319 391.66 179.499 389.34 179.499 389.34C179.499 389.34 182.789 393.43 181.299 397.34C180.159 400.115 178.791 402.791 177.209 405.34L175.749 401.66Z" fill="#92E3A9"/>
<path d="M186.39 415.65C186.39 415.65 185.17 413.84 185.99 409.65C186.81 405.46 187.48 402.87 187.48 402.87C187.48 402.87 191.55 406.18 190.9 410.3C190.367 413.246 189.592 416.142 188.58 418.96L186.39 415.65Z" fill="#92E3A9"/>
<path d="M188.739 419.24C188.739 419.24 187.739 417.24 183.739 415.85C179.739 414.46 177.129 413.71 177.129 413.71C177.129 413.71 177.939 418.89 181.819 420.41C184.634 421.44 187.531 422.229 190.479 422.77L188.739 419.24Z" fill="#92E3A9"/>
<path d="M196.388 435.93C196.388 435.93 194.708 434.53 190.388 434.93C186.068 435.33 183.488 435.72 183.488 435.72C183.488 435.72 186.368 440.1 190.538 439.87C193.523 439.638 196.484 439.157 199.388 438.43L196.388 435.93Z" fill="#92E3A9"/>
<path d="M193.332 431.45C193.332 431.45 192.112 429.64 192.942 425.4C193.772 421.16 194.422 418.61 194.422 418.61C194.422 418.61 198.492 421.92 197.842 426.04C197.315 428.991 196.539 431.891 195.522 434.71L193.332 431.45Z" fill="#92E3A9"/>
<path d="M201.45 439.85C201.45 439.85 199.81 438.41 199.54 434.1C199.27 429.79 199.25 427.16 199.25 427.16C199.25 427.16 204.03 429.33 204.45 433.48C204.703 436.475 204.703 439.486 204.45 442.48L201.45 439.85Z" fill="#92E3A9"/>
<path d="M169.199 381.51C170.34 383.482 171.371 385.515 172.289 387.6C174.779 393.45 174.519 398.47 176.669 403.82C178.819 409.17 185.739 413.26 189.019 419.82C192.299 426.38 192.199 431.26 195.569 434.82C198.939 438.38 209.749 446.87 209.749 446.87" stroke="#263238" stroke-width="0.5" stroke-linecap="round" stroke-linejoin="round"/>
<path d="M171.988 386.54L173.298 382.6" stroke="#263238" stroke-width="0.5" stroke-linecap="round" stroke-linejoin="round"/>
<path d="M170.489 384.04L167.969 382.78" stroke="#263238" stroke-width="0.5" stroke-linecap="round" stroke-linejoin="round"/>
<path d="M176.672 403.51C176.672 403.51 177.812 400.25 179.002 396.95" stroke="#263238" stroke-width="0.5" stroke-linecap="round" stroke-linejoin="round"/>
<path d="M175.41 399.17C172.787 397.73 170.022 396.564 167.16 395.69" stroke="#263238" stroke-width="0.5" stroke-linecap="round" stroke-linejoin="round"/>
<path d="M188.212 418.17C187.9 414.884 188.065 411.569 188.702 408.33" stroke="#263238" stroke-width="0.5" stroke-linecap="round" stroke-linejoin="round"/>
<path d="M189.482 421C187.684 419.846 185.795 418.843 183.832 418C181.172 416.93 180.832 416.8 180.832 416.8" stroke="#263238" stroke-width="0.5" stroke-linecap="round" stroke-linejoin="round"/>
<path d="M198.262 437.34C196.376 437.096 194.472 437.019 192.572 437.11C191.445 437.261 190.308 437.318 189.172 437.28" stroke="#263238" stroke-width="0.5" stroke-linecap="round" stroke-linejoin="round"/>
<path d="M195.569 434.77C195.178 432.942 194.927 431.086 194.819 429.22C194.783 427.451 194.89 425.681 195.139 423.93" stroke="#263238" stroke-width="0.5" stroke-linecap="round" stroke-linejoin="round"/>
<path d="M204.398 442.45C203.348 441.163 202.658 439.62 202.398 437.98C202.118 435.5 201.568 432.36 201.398 431.1" stroke="#263238" stroke-width="0.5" stroke-linecap="round" stroke-linejoin="round"/>
<path d="M257.149 111.521H217.509C199.407 111.543 181.647 116.449 166.099 125.721L160.219 129.211C146.717 137.267 135.226 148.292 126.619 161.451L120.389 170.941C118.709 173.545 116.407 175.689 113.69 177.18C110.974 178.671 107.928 179.462 104.829 179.481H81.4394C80.8232 179.48 80.232 179.725 79.7953 180.159C79.3587 180.594 79.112 181.184 79.1094 181.801C79.1094 182.418 79.3549 183.011 79.7918 183.448C80.2288 183.885 80.8214 184.131 81.4394 184.131H106.439C109.934 184.116 113.382 183.336 116.542 181.845C119.702 180.354 122.497 178.189 124.729 175.501L134.659 163.701C143.896 152.692 155.343 143.749 168.259 137.451C181.918 130.814 196.904 127.361 212.089 127.351H255.359L257.149 111.521Z" fill="#92E3A9"/>
<path d="M244.23 111.521H283.87C301.972 111.543 319.733 116.449 335.28 125.721L341.16 129.211C354.663 137.267 366.154 148.292 374.76 161.451L380.99 170.941C382.67 173.545 384.973 175.689 387.689 177.18C390.406 178.671 393.452 179.462 396.55 179.481H419.94C420.557 179.48 421.148 179.725 421.585 180.159C422.021 180.594 422.268 181.184 422.27 181.801C422.27 182.418 422.025 183.011 421.588 183.448C421.151 183.885 420.558 184.131 419.94 184.131H394.94C391.446 184.116 387.998 183.336 384.838 181.845C381.678 180.354 378.883 178.189 376.65 175.501L366.72 163.701C357.484 152.692 346.037 143.749 333.12 137.451C319.462 130.814 304.476 127.361 289.29 127.351H246L244.23 111.521Z" fill="#92E3A9"/>
<path d="M255.723 142.655C267.967 140.599 276.226 129.007 274.171 116.763C272.115 104.519 260.523 96.2597 248.279 98.3152C236.035 100.371 227.776 111.963 229.831 124.207C231.887 136.451 243.479 144.71 255.723 142.655Z" fill="#A3A3A3"/>
<path d="M277.009 404.72H226.999C224.072 404.72 221.699 407.093 221.699 410.02V412.66C221.699 415.587 224.072 417.96 226.999 417.96H277.009C279.936 417.96 282.309 415.587 282.309 412.66V410.02C282.309 407.093 279.936 404.72 277.009 404.72Z" fill="#A3A3A3"/>
<path d="M286.769 372.35L284.639 367.91C279.917 358.087 276.849 347.552 275.559 336.73L259.629 173.46L254.299 173.1V172.8L251.999 173L249.699 172.85V173.15L244.369 173.51L228.439 336.73C227.149 347.552 224.081 358.087 219.359 367.91L217.229 372.35C215.049 376.88 214.205 381.938 214.797 386.931C215.389 391.924 217.391 396.644 220.569 400.54L224.509 405.38H279.509L283.449 400.54C286.624 396.642 288.623 391.921 289.211 386.928C289.799 381.935 288.952 376.878 286.769 372.35Z" fill="#A3A3A3"/>
<path d="M161.3 414.65H342.7C347.264 414.65 351.642 416.464 354.869 419.691C358.097 422.919 359.91 427.296 359.91 431.86V439.14H144.09V431.86C144.09 427.296 145.903 422.919 149.131 419.691C152.358 416.464 156.735 414.65 161.3 414.65Z" fill="#A3A3A3"/>
<path d="M132.202 435.06H371.802C377.029 435.06 382.042 437.136 385.739 440.832C389.435 444.529 391.512 449.542 391.512 454.77V457.88H112.512V454.77C112.512 449.546 114.586 444.535 118.278 440.84C121.97 437.144 126.978 435.065 132.202 435.06Z" fill="#A3A3A3"/>
<path d="M246.57 117.85H257.43L268.38 85.7099C270.74 78.7899 267.79 70.1299 263.07 70.1299H240.93C236.21 70.1299 233.26 78.7899 235.62 85.7099L246.57 117.85Z" fill="#A3A3A3"/>
<path d="M257.43 117.14H246.57L235.62 149.27C233.26 156.2 236.21 164.85 240.93 164.85H263.07C267.79 164.85 270.74 156.2 268.38 149.27L257.43 117.14Z" fill="#A3A3A3"/>
<path d="M252.001 70.68C261.235 70.68 268.721 64.4926 268.721 56.86C268.721 49.2275 261.235 43.04 252.001 43.04C242.767 43.04 235.281 49.2275 235.281 56.86C235.281 64.4926 242.767 70.68 252.001 70.68Z" fill="#A3A3A3"/>
<path d="M257.3 125.79H246.7C246.005 125.79 245.318 125.653 244.676 125.388C244.034 125.122 243.451 124.732 242.96 124.241C242.468 123.75 242.079 123.166 241.813 122.525C241.547 121.883 241.41 121.195 241.41 120.5C241.409 119.805 241.545 119.116 241.81 118.473C242.075 117.83 242.465 117.245 242.956 116.753C243.447 116.261 244.031 115.87 244.673 115.604C245.316 115.337 246.005 115.2 246.7 115.2H257.3C257.996 115.2 258.684 115.337 259.327 115.604C259.969 115.87 260.553 116.261 261.044 116.753C261.536 117.245 261.925 117.83 262.19 118.473C262.456 119.116 262.591 119.805 262.59 120.5C262.59 121.195 262.453 121.883 262.187 122.525C261.922 123.166 261.532 123.75 261.041 124.241C260.55 124.732 259.966 125.122 259.325 125.388C258.683 125.653 257.995 125.79 257.3 125.79Z" fill="#92E3A9"/>
<path d="M261.161 163.53H242.851C239.924 163.53 237.551 165.903 237.551 168.83V171.47C237.551 174.397 239.924 176.77 242.851 176.77H261.161C264.088 176.77 266.461 174.397 266.461 171.47V168.83C266.461 165.903 264.088 163.53 261.161 163.53Z" fill="#A3A3A3"/>
<path d="M96.3086 182.63L53.5586 289.56H139.059L96.3086 182.63Z" stroke="#A3A3A3" stroke-linecap="round" stroke-linejoin="round"/>
<path d="M96.3086 182.63V291.02" stroke="#A3A3A3" stroke-linecap="round" stroke-linejoin="round"/>
<path d="M49.3281 293.57V298.62C49.3281 301.835 50.605 304.917 52.878 307.19C55.1509 309.463 58.2337 310.74 61.4481 310.74H131.158C132.75 310.742 134.327 310.429 135.798 309.82C137.269 309.212 138.605 308.319 139.731 307.193C140.857 306.068 141.75 304.731 142.358 303.26C142.967 301.789 143.279 300.212 143.278 298.62V293.57H49.3281Z" fill="#92E3A9"/>
<path d="M144 289H48.59C47.91 289 47.2572 289.267 46.7726 289.744C46.288 290.221 46.0105 290.87 46 291.55C46 292.238 46.2726 292.898 46.758 293.385C47.2434 293.872 47.9022 294.147 48.59 294.15H144C144.688 294.147 145.347 293.872 145.832 293.385C146.317 292.898 146.59 292.238 146.59 291.55C146.579 290.87 146.302 290.221 145.817 289.744C145.333 289.267 144.68 289 144 289Z" fill="#92E3A9"/>
<path d="M404.93 182.63L362.18 289.56H447.68L404.93 182.63Z" stroke="#A3A3A3" stroke-linecap="round" stroke-linejoin="round"/>
<path d="M404.93 182.63V291.02" stroke="#A3A3A3" stroke-linecap="round" stroke-linejoin="round"/>
<path d="M358 293.57V298.62C358 300.213 358.314 301.79 358.924 303.261C359.533 304.732 360.427 306.068 361.553 307.194C362.68 308.32 364.017 309.212 365.489 309.821C366.96 310.429 368.538 310.742 370.13 310.74H439.84C443.054 310.74 446.137 309.463 448.41 307.19C450.683 304.917 451.96 301.835 451.96 298.62V293.57H358Z" fill="#92E3A9"/>
<path d="M452.639 289H357.219C356.532 289 355.873 289.273 355.387 289.759C354.902 290.244 354.629 290.903 354.629 291.59C354.629 292.278 354.901 292.938 355.387 293.425C355.872 293.912 356.531 294.187 357.219 294.19H452.639C452.98 294.19 453.318 294.123 453.634 293.992C453.949 293.861 454.236 293.67 454.477 293.428C454.719 293.187 454.91 292.9 455.041 292.585C455.172 292.27 455.239 291.931 455.239 291.59C455.239 291.249 455.172 290.911 455.041 290.597C454.91 290.282 454.718 289.996 454.477 289.755C454.235 289.514 453.949 289.324 453.633 289.194C453.318 289.065 452.98 288.999 452.639 289Z" fill="#92E3A9"/>
<path d="M203.151 121.92C196.835 123.275 191.315 127.08 187.801 132.5C181.521 141.8 186.131 161.85 186.131 166.74C186.131 171.63 186.361 200.22 186.361 200.22H231.001C231.001 200.22 229.601 146.28 229.601 142.79C229.601 139.3 228.681 128.14 221.001 123.72C213.321 119.3 203.151 121.92 203.151 121.92Z" fill="#263238" stroke="#263238" stroke-linecap="round" stroke-linejoin="round"/>
<path d="M218.909 126.9C218.909 126.9 206.909 139.34 197.549 145.36C188.189 151.38 185.109 153.24 185.109 153.24" stroke="#666666" stroke-linecap="round" stroke-linejoin="round"/>
<path d="M212.48 122.75C212.48 122.75 199.21 142 187 149.5" stroke="#666666" stroke-linecap="round" stroke-linejoin="round"/>
<path d="M201.083 124.41C201.083 124.41 192.363 142.24 185.312 146.41" stroke="#666666" stroke-linecap="round" stroke-linejoin="round"/>
<path d="M194.233 156.141L186.973 159.671" stroke="#666666" stroke-linecap="round" stroke-linejoin="round"/>
<path d="M190.91 158.63V184.76" stroke="#666666" stroke-linecap="round" stroke-linejoin="round"/>
<path d="M196.381 440.861L194.251 447.671C194.251 447.671 185.531 453.411 185.321 454.261C185.111 455.111 184.891 456.601 184.891 456.601C185.067 457.01 185.367 457.354 185.75 457.584C186.132 457.813 186.576 457.917 187.021 457.881H209.141C209.141 457.881 209.991 452.991 209.571 450.651C209.151 448.311 208.081 444.271 208.081 444.271L207.871 440.721L196.381 440.861Z" fill="#263238" stroke="#263238" stroke-linecap="round" stroke-linejoin="round"/>
<path d="M248.28 440.511C248.28 440.511 258.49 450.721 259.13 450.931L272.13 455.401C272.13 455.401 272.77 457.101 271.92 457.531C271.07 457.961 257.45 457.951 253.83 457.741C250.21 457.531 245.32 454.341 243.83 453.741C243.024 453.371 242.156 453.154 241.27 453.101V456.721H231.05C231.05 456.721 230.63 449.721 230.84 446.931C231.147 444.786 231.792 442.704 232.75 440.761L248.28 440.511Z" fill="#263238" stroke="#263238" stroke-linecap="round" stroke-linejoin="round"/>
<path d="M259.483 363.24C259.483 361.67 250.483 284.66 250.483 284.66L221.003 265.38L183.633 281.91L184.813 295.28L190.323 367.67L191.613 423.92L190.613 436.36L189.613 442.08L190.613 448.8L209.773 449.14L210.023 439.77L214.723 363.34L221.003 305.51L233.093 364.22L230.433 445.79L254.593 446.33C254.593 446.33 255.143 445.95 255.463 440.61C255.553 439.11 252.723 432.2 252.823 430.41C254.213 407.13 259.483 364.41 259.483 363.24Z" fill="#696969" stroke="#263238" stroke-linecap="round" stroke-linejoin="round"/>
<path d="M201.609 400.2L201.659 405.11" stroke="#263238" stroke-linecap="round" stroke-linejoin="round"/>
<path d="M200.723 306.74L201.573 395.49" stroke="#263238" stroke-linecap="round" stroke-linejoin="round"/>
<path d="M248.23 307.36C248.23 307.36 257.65 359.46 257.65 360.29C257.65 361.12 257.37 367.77 257.09 372.21" stroke="#263238" stroke-linecap="round" stroke-linejoin="round"/>
<path d="M205 175.67L178 193.42L191.91 246.88L179.25 296.17L219 307.17L223.5 288.17L228.5 306.92L259 299.42L245.25 252.67L251.25 186.92L213.75 175.67C213.75 175.67 208 173.67 205 175.67Z" fill="#696969" stroke="#263238" stroke-linecap="round" stroke-linejoin="round"/>
<path d="M220.191 248.011L223.511 286.611" stroke="#263238" stroke-linecap="round" stroke-linejoin="round"/>
<path d="M216.859 255.66C217.776 255.66 218.519 254.917 218.519 254C218.519 253.083 217.776 252.34 216.859 252.34C215.942 252.34 215.199 253.083 215.199 254C215.199 254.917 215.942 255.66 216.859 255.66Z" stroke="#263238" stroke-linecap="round" stroke-linejoin="round"/>
<path d="M217.859 268.64C218.776 268.64 219.519 267.897 219.519 266.98C219.519 266.064 218.776 265.32 217.859 265.32C216.942 265.32 216.199 266.064 216.199 266.98C216.199 267.897 216.942 268.64 217.859 268.64Z" stroke="#263238" stroke-linecap="round" stroke-linejoin="round"/>
<path d="M220.52 280C220.522 280.331 220.425 280.655 220.242 280.931C220.06 281.208 219.799 281.423 219.493 281.551C219.188 281.678 218.851 281.712 218.526 281.648C218.201 281.584 217.903 281.425 217.669 281.191C217.435 280.957 217.275 280.658 217.211 280.333C217.147 280.008 217.181 279.672 217.309 279.366C217.436 279.061 217.652 278.8 217.928 278.617C218.204 278.434 218.529 278.338 218.86 278.34C219.3 278.34 219.722 278.515 220.033 278.826C220.345 279.137 220.52 279.56 220.52 280Z" stroke="#263238" stroke-linecap="round" stroke-linejoin="round"/>
<path d="M219.5 244.67L230.5 212.42L223.25 206.42L233 204.42C233 204.42 228.76 187.42 224.75 178.97L213.75 175.67C213.75 175.67 208 173.67 205 175.67L197.91 180.33C197.247 185.503 196.86 190.707 196.75 195.92C196.75 203.42 197.25 209.92 197.25 209.92L205.75 208.42L202 215.67L219.5 244.67Z" fill="#696969" stroke="#263238" stroke-linecap="round" stroke-linejoin="round"/>
<path d="M251.25 186.92C255.569 193.372 258.859 200.457 261 207.92C264.75 220.67 268.75 240.42 267.25 242.92C265.75 245.42 256 244.92 253 243.17C250 241.42 247.75 226.17 247.75 226.17L251.25 186.92Z" fill="#696969" stroke="#263238" stroke-linecap="round" stroke-linejoin="round"/>
<path d="M253.502 230.33L211.412 231.51L208.672 240C215.529 242.518 222.616 244.36 229.832 245.5C241.332 247.25 265.002 248.17 268.002 246.17C271.002 244.17 265.752 227.17 265.752 227.17" fill="#696969"/>
<path d="M253.502 230.33L211.412 231.51L208.672 240C215.529 242.518 222.616 244.36 229.832 245.5C241.332 247.25 265.002 248.17 268.002 246.17C271.002 244.17 265.752 227.17 265.752 227.17" stroke="#263238" stroke-linecap="round" stroke-linejoin="round"/>
<path d="M199.922 166.56C199.922 166.56 202.992 185.3 203.842 193.47C204.692 201.64 217.472 222.26 217.472 222.26L219.472 190.26L220.472 167.44C218.58 168.385 216.509 168.918 214.396 169.006C212.284 169.094 210.176 168.734 208.212 167.95C205.457 166.897 202.783 165.644 200.212 164.2L199.922 166.56Z" fill="white" stroke="#263238" stroke-linecap="round" stroke-linejoin="round"/>
<path d="M208.27 167.92C205.515 166.867 202.841 165.614 200.27 164.17L199.93 166.56C199.93 166.56 200.33 169 200.93 172.5C205.04 175.94 211.31 179.71 213.81 179.93C215.36 180.07 217.81 178.15 220.22 175.73L220.59 167.41C218.69 168.363 216.609 168.901 214.485 168.989C212.361 169.077 210.242 168.713 208.27 167.92Z" fill="#263238" stroke="#263238" stroke-linecap="round" stroke-linejoin="round"/>
<path d="M217.47 222.26L218.32 208.95C215.569 209.488 212.744 209.522 209.98 209.05C213.6 216 217.47 222.26 217.47 222.26Z" fill="#92E3A9" stroke="#263238" stroke-linecap="round" stroke-linejoin="round"/>
<path d="M220.142 136L194.422 154.5C194.422 154.5 195.732 163.02 197.202 166.5C198.672 169.98 210.202 177.65 213.752 177.97C217.302 178.29 225.872 167.49 227.022 165.19C228.172 162.89 226.202 144.55 226.202 144.55L220.142 136Z" fill="white" stroke="#263238" stroke-linecap="round" stroke-linejoin="round"/>
<path d="M214.901 157.45C214.99 157.896 214.961 158.357 214.817 158.789C214.673 159.22 214.419 159.607 214.081 159.91C213.36 160.404 212.492 160.636 211.621 160.57" stroke="#263238" stroke-linecap="round" stroke-linejoin="round"/>
<path d="M208.512 165C208.512 165 211.292 166.8 215.882 164.67" stroke="#263238" stroke-linecap="round" stroke-linejoin="round"/>
<path d="M205.482 154.17C206.067 154.17 206.542 153.328 206.542 152.29C206.542 151.252 206.067 150.41 205.482 150.41C204.896 150.41 204.422 151.252 204.422 152.29C204.422 153.328 204.896 154.17 205.482 154.17Z" fill="#263238"/>
<path d="M219.239 151.64C219.239 152.64 218.759 153.52 218.169 153.52C217.579 153.52 217.109 152.68 217.109 151.64C217.109 150.6 217.589 149.75 218.169 149.75C218.749 149.75 219.239 150.6 219.239 151.64Z" fill="#263238"/>
<path d="M204.95 156.31C208.324 156.31 211.06 154.367 211.06 151.97C211.06 149.573 208.324 147.63 204.95 147.63C201.575 147.63 198.84 149.573 198.84 151.97C198.84 154.367 201.575 156.31 204.95 156.31Z" stroke="#263238" stroke-linecap="round" stroke-linejoin="round"/>
<path d="M226.863 152C226.863 154.39 224.123 156.34 220.743 156.34C217.363 156.34 214.633 154.39 214.633 152C214.633 149.61 217.373 147.65 220.743 147.65C224.113 147.65 226.863 149.57 226.863 152Z" stroke="#263238" stroke-linecap="round" stroke-linejoin="round"/>
<path d="M211.07 152C211.07 152 212.4 149.46 214.63 152" stroke="#263238" stroke-linecap="round" stroke-linejoin="round"/>
<path d="M215.391 146.801C215.391 146.801 219.161 143.361 222.921 145.491" stroke="#263238" stroke-linecap="round" stroke-linejoin="round"/>
<path d="M182.501 191.42C182.501 191.42 172.001 194.42 170.001 199.17C168.001 203.92 169.751 229.42 173.001 239.17C176.251 248.92 178.751 258.42 182.751 258.42C186.751 258.42 197.751 249.92 197.251 243.42C196.751 236.92 189.251 209.92 189.251 208.42" fill="#696969"/>
<path d="M182.501 191.42C182.501 191.42 172.001 194.42 170.001 199.17C168.001 203.92 169.751 229.42 173.001 239.17C176.251 248.92 178.751 258.42 182.751 258.42C186.751 258.42 197.751 249.92 197.251 243.42C196.751 236.92 189.251 209.92 189.251 208.42" stroke="#263238" stroke-linecap="round" stroke-linejoin="round"/>
<path d="M180.76 224.08C181.41 222.61 182.6 220.32 182.69 220.08C182.78 219.84 185.19 219.24 186.39 219.24C187.59 219.24 193.26 221.37 193.26 221.37C192.64 220.242 191.931 219.165 191.14 218.15C190.78 217.97 186.27 216.87 185.63 216.68C185.288 216.558 184.99 216.335 184.778 216.04C184.565 215.746 184.447 215.393 184.44 215.03C184.44 214.3 185.44 214.67 185.44 214.67L193.69 215.42L202.69 228.67L213.62 231.38L209.77 240.2L201.15 235.88C199.001 235.793 196.885 235.326 194.9 234.5C192.14 233.22 190.49 229.91 189.76 229.27C189.03 228.63 181.95 227.89 181.67 227.89C181.39 227.89 180.02 228.99 179.84 228.63C179.833 227.066 180.146 225.518 180.76 224.08Z" fill="white" stroke="#263238" stroke-linecap="round" stroke-linejoin="round"/>
<path d="M181.801 222.551C181.801 222.551 185.271 221.931 185.891 221.931C187.812 222.565 189.678 223.354 191.471 224.291" fill="white"/>
<path d="M181.801 222.551C181.801 222.551 185.271 221.931 185.891 221.931C187.812 222.565 189.678 223.354 191.471 224.291" stroke="#263238" stroke-linecap="round" stroke-linejoin="round"/>
<path d="M180.18 225.65C180.18 225.65 184.28 224.65 184.9 224.65C185.52 224.65 190.85 226.65 190.85 226.65" fill="white"/>
<path d="M180.18 225.65C180.18 225.65 184.28 224.65 184.9 224.65C185.52 224.65 190.85 226.65 190.85 226.65" stroke="#263238" stroke-linecap="round" stroke-linejoin="round"/>
<path d="M190.003 235.921L242.503 222.921L251.503 209.671L259.753 208.921C259.753 208.921 260.753 208.541 260.753 209.281C260.744 209.645 260.625 209.999 260.411 210.293C260.196 210.588 259.897 210.811 259.553 210.931C258.913 211.121 254.413 212.221 254.043 212.401C253.254 213.416 252.549 214.493 251.933 215.621C251.933 215.621 257.603 213.491 258.803 213.491C260.003 213.491 262.403 214.051 262.493 214.331C262.583 214.611 263.783 216.901 264.423 218.331C265.023 219.755 265.336 221.285 265.343 222.831C265.163 223.201 263.783 222.101 263.503 222.101C263.223 222.101 256.153 222.831 255.423 223.481C254.693 224.131 253.033 227.431 250.283 228.711C248.297 229.536 246.181 230.003 244.033 230.091C244.033 230.091 196.173 254.091 195.903 254.161C195.633 254.231 187.723 258.841 184.233 258.661C180.743 258.481 179.923 256.541 178.723 254.061" fill="#696969"/>
<path d="M190.003 235.921L242.503 222.921L251.503 209.671L259.753 208.921C259.753 208.921 260.753 208.541 260.753 209.281C260.744 209.645 260.625 209.999 260.411 210.293C260.196 210.588 259.897 210.811 259.553 210.931C258.913 211.121 254.413 212.221 254.043 212.401C253.254 213.416 252.549 214.493 251.933 215.621C251.933 215.621 257.603 213.491 258.803 213.491C260.003 213.491 262.403 214.051 262.493 214.331C262.583 214.611 263.783 216.901 264.423 218.331C265.023 219.755 265.336 221.285 265.343 222.831C265.163 223.201 263.783 222.101 263.503 222.101C263.223 222.101 256.153 222.831 255.423 223.481C254.693 224.131 253.033 227.431 250.283 228.711C248.297 229.536 246.181 230.003 244.033 230.091C244.033 230.091 196.173 254.091 195.903 254.161C195.633 254.231 187.723 258.841 184.233 258.661C180.743 258.481 179.923 256.541 178.723 254.061" stroke="#263238" stroke-linecap="round" stroke-linejoin="round"/>
<path d="M264.44 218.371C263.8 216.901 262.6 214.611 262.51 214.371C262.42 214.131 260.01 213.531 258.82 213.531C257.63 213.531 251.95 215.661 251.95 215.661C252.566 214.533 253.271 213.456 254.06 212.441C254.43 212.261 258.93 211.161 259.57 210.971C259.914 210.851 260.213 210.628 260.428 210.334C260.642 210.039 260.762 209.685 260.77 209.321C260.77 208.581 259.77 208.961 259.77 208.961L251.52 209.711L242.52 222.961L231.59 225.661L235.45 234.491L244.07 230.171C246.218 230.083 248.334 229.616 250.32 228.791C253.07 227.511 254.72 224.201 255.46 223.561C256.2 222.921 263.27 222.181 263.54 222.181C263.81 222.181 265.2 223.281 265.38 222.911C265.372 221.35 265.052 219.806 264.44 218.371Z" fill="white" stroke="#263238" stroke-linecap="round" stroke-linejoin="round"/>
<path d="M263.41 216.841C263.41 216.841 259.94 216.221 259.32 216.221C257.398 216.854 255.528 217.64 253.73 218.571" fill="white"/>
<path d="M263.41 216.841C263.41 216.841 259.94 216.221 259.32 216.221C257.398 216.854 255.528 217.64 253.73 218.571" stroke="#263238" stroke-linecap="round" stroke-linejoin="round"/>
<path d="M265.003 219.94C265.003 219.94 260.913 218.94 260.293 218.94C259.673 218.94 254.293 220.94 254.293 220.94" fill="white"/>
<path d="M265.003 219.94C265.003 219.94 260.913 218.94 260.293 218.94C259.673 218.94 254.293 220.94 254.293 220.94" stroke="#263238" stroke-linecap="round" stroke-linejoin="round"/>
<path d="M229.662 231.601C229.662 231.822 229.596 232.039 229.472 232.224C229.349 232.408 229.173 232.552 228.968 232.636C228.763 232.721 228.537 232.742 228.32 232.698C228.102 232.654 227.903 232.547 227.746 232.389C227.59 232.231 227.484 232.031 227.442 231.813C227.4 231.595 227.424 231.369 227.51 231.165C227.596 230.96 227.741 230.786 227.927 230.664C228.112 230.543 228.33 230.479 228.552 230.481C228.847 230.483 229.13 230.602 229.337 230.812C229.545 231.022 229.662 231.305 229.662 231.601Z" fill="white"/>
<path d="M224.202 234.211C224.821 234.211 225.322 233.709 225.322 233.091C225.322 232.472 224.821 231.971 224.202 231.971C223.583 231.971 223.082 232.472 223.082 233.091C223.082 233.709 223.583 234.211 224.202 234.211Z" fill="white"/>
<path d="M219.862 235.7C220.481 235.7 220.982 235.199 220.982 234.58C220.982 233.961 220.481 233.46 219.862 233.46C219.244 233.46 218.742 233.961 218.742 234.58C218.742 235.199 219.244 235.7 219.862 235.7Z" fill="white"/>
<path d="M464 457.88H475" stroke="#263238" stroke-linecap="round" stroke-linejoin="round"/>
<path d="M26.6719 457.88H451.002" stroke="#263238" stroke-linecap="round" stroke-linejoin="round"/>
</svg>
